<svg id="Layer_1" data-name="Layer 1" xmlns="http://www.w3.org/2000/svg" width="15.19" height="15.36" viewBox="0 0 15.19 15.36"><defs><style>.cls-1{fill:none;fill-rule:evenodd;}.cls-2{fill:#347c8a;}.cls-3{fill:#fff;}</style></defs><path class="cls-1" d="M8-285.5c164,0,297,131.18,297,293s-133,293-297,293S-289,169.32-289,7.5-156-285.5,8-285.5Z"/><circle class="cls-2" cx="7.6" cy="7.6" r="7.6"/><path class="cls-3" d="M5.39,5.53v5.2a.86.86,0,0,0,.21.68,1.09,1.09,0,0,0,.7.18v.26l-.61,0c-.28,0-.56,0-.84,0s-.55,0-.83,0l-.62,0v-.26a1.07,1.07,0,0,0,.7-.18.86.86,0,0,0,.21-.68V7a1.3,1.3,0,0,0-.19-.79.83.83,0,0,0-.72-.26V5.67l.74,0a4.73,4.73,0,0,0,.67,0A3.1,3.1,0,0,0,5.39,5.53ZM4.77,2.67a.73.73,0,0,1,.54.22.78.78,0,0,1,.23.54A.74.74,0,0,1,5.31,4,.75.75,0,0,1,4.23,4,.74.74,0,0,1,4,3.43a.78.78,0,0,1,.23-.54A.73.73,0,0,1,4.77,2.67Z"/><path class="cls-3" d="M12.4,5.67v.24a.69.69,0,0,0-.42.2,1.61,1.61,0,0,0-.36.64l-2,5.16h-.2L7.24,6.59A1.15,1.15,0,0,0,6.86,6a.65.65,0,0,0-.32-.1V5.67l.5,0H8.39l.77,0v.25a2.79,2.79,0,0,0-.53,0,.36.36,0,0,0-.3.23,1.05,1.05,0,0,0,.11.66l1.5,3.71-.07.06L11.24,7a1.37,1.37,0,0,0,.12-.63.46.46,0,0,0-.24-.35,1.41,1.41,0,0,0-.64-.14V5.67h.37l.31,0H12Z"/></svg>