<?xml version="1.0" encoding="utf-8"?>
<!-- Generator: Adobe Illustrator 26.0.2, SVG Export Plug-In . SVG Version: 6.00 Build 0)  -->
<svg version="1.1" id="Layer_1" xmlns="http://www.w3.org/2000/svg" xmlns:xlink="http://www.w3.org/1999/xlink" x="0px" y="0px"
	 viewBox="0 0 142.4 141.4" style="enable-background:new 0 0 142.4 141.4;" xml:space="preserve">
<style type="text/css">
	.st0{fill:#347C89;}
	.st1{fill:#FFFFFF;}
	.st2{fill:none;}
	.st3{fill:#025B69;}
	.st4{fill:#A9C7CC;}
	.st5{fill:#035B69;}
	.st6{fill:#035C6A;}
	.st7{fill:#045C6A;}
	.st8{fill:#055D6A;}
	.st9{fill:#055D6B;}
	.st10{fill:#095F6D;}
	.st11{fill:#065D6B;}
	.st12{fill:#085F6D;}
	.st13{fill:#085E6C;}
	.st14{fill:#075E6C;}
	.st15{fill:#0A606D;}
	.st16{fill:#0B606E;}
	.st17{fill:#0E6370;}
	.st18{fill:#0A616E;}
	.st19{fill:#09606D;}
	.st20{fill:#0B606D;}
	.st21{fill:#166774;}
	.st22{fill:#0F626F;}
	.st23{fill:#095F6C;}
	.st24{fill:#0E626F;}
	.st25{fill:#116572;}
	.st26{fill:#216F7B;}
	.st27{fill:#0E6270;}
	.st28{fill:#156774;}
	.st29{fill:#136371;}
	.st30{fill:#186875;}
	.st31{fill:#1E6E7A;}
	.st32{fill:#1E6D7A;}
	.st33{fill:#1D6C79;}
	.st34{fill:#28717D;}
	.st35{fill:#126573;}
	.st36{fill:#176775;}
	.st37{fill:#186976;}
	.st38{fill:#176975;}
	.st39{fill:#1F6C78;}
	.st40{fill:#2C7580;}
	.st41{fill:#206C78;}
	.st42{fill:#216C78;}
	.st43{fill:#2A737F;}
	.st44{fill:#387F89;}
	.st45{fill:#2B7580;}
	.st46{fill:#26707C;}
	.st47{fill:#1B6B77;}
	.st48{fill:#2B7681;}
	.st49{fill:#1B6875;}
	.st50{fill:#5A9099;}
	.st51{fill:#4F8E98;}
	.st52{fill:#3D7E88;}
	.st53{fill:#508C96;}
	.st54{fill:#46818C;}
	.st55{fill:#508A94;}
	.st56{fill:#21707C;}
	.st57{fill:#005B6A;}
	.st58{fill:#007C8A;}
	.st59{fill:#005C6B;}
	.st60{fill:#007A89;}
	.st61{fill:#005E6D;}
	.st62{fill:#005D6C;}
	.st63{fill:#007C8B;}
</style>
<circle class="st0" cx="71.8" cy="71.3" r="69.8"/>
<path class="st2" d="M71.1,0.3c27.8,0,55.7,0,83.5,0c0.9,0,1.1,0.2,1.1,1c0,48.1,0,96.2,0,144.4c0,0.9-0.2,1-1.1,1
	c-55.7,0-111.4,0-167,0c-0.9,0-1.1-0.2-1.1-1c0-48.1,0-96.2,0-144.4c0-0.9,0.2-1,1.1-1C15.4,0.3,43.2,0.3,71.1,0.3z"/>
<path class="st2" d="M16.5,114.3c-0.4-0.5-0.8-1.1-1.3-1.6c1.7-2,3.7-3.9,5.9-5.4c1-0.7,1.4-1.5,1.5-2.7c0.1-1,0.2-2,0.2-3
	c0-1-0.3-1.8-1.3-2.3c-0.8-0.4-1.1-1.1-1.1-1.9c0-1.4-0.4-2.7-1.1-4c-0.7-1.3-0.7-2.8-0.4-4.2c0.3-1.1,0.5-2.2,0.9-3.3
	c0.5-1.6,0.8-3,0-4.7c-0.6-1.4-0.4-3.1-0.9-4.6c-0.2-0.7-0.5-1.4-0.7-2.1c-0.2-1-0.5-1.7-1.8-1.7c-0.6,0-1-0.6-1.2-1.2
	c-0.5-1.2-1.3-2.2-2.4-3c-1.4-1-2.3-2.5-3.6-3.5c-0.3-0.2-0.4-0.7-0.5-1c-0.4-1.1-1-2.2-1.6-3.2c-0.8-1.4-1.7-2.4-3.5-2.4
	c1.5-7.2,4.3-13.8,8.1-20.2c2.1-3.5,4.6-6.6,7.2-9.8c3.2-3.9,7.1-7,11.1-10.1c5.6-4.4,12-7.2,18.6-9.7C58,5.2,67.8,4.4,77.7,5.2
	c4.7,0.4,9.4,1.1,13.8,2.7c6.7,2.3,13.2,4.9,19,9.1c4.2,3.1,8.4,6.3,11.9,10.2c5.2,5.8,9.5,12.1,12.5,19.2c4.7,11.1,6.5,22.5,5,34.5
	c-1,8.3-3.4,16.1-7.3,23.6c-1.8,3.4-4,6.5-6.2,9.7c-2.7,3.7-6,6.8-9.4,9.9c-4.4,4.1-9.6,7.1-14.9,9.9c-10.7,5.6-22.3,7.5-34.4,7.1
	c-0.3,0-0.7-0.1-1-0.2c-0.5-0.8-0.8-1.8-1.3-2.6c-0.2-0.2-0.2-0.6-0.2-0.9c0-0.3,0-0.8,0.4-0.9c0.4-0.1,0.6,0.3,0.7,0.6
	c0.1,0.2,0.1,0.4,0.3,0.6c0.1-0.6,0.1-1.4,0.9-1.3c1,0.2,0.3,1.3,0.7,1.8c0.1-1.2,0.3-2.4-0.4-3.6c-0.4-0.6,0.2-1.2,0.6-1.6
	c1-1,0.8-2.2,0.8-3.3c0-0.8,0-1.5,0.4-2.2c0.1-0.1-0.2-0.2,0-0.1c0,0,0,0,0,0.1c-0.2,0.5-0.6,0.6-1.1,0.5c-0.4,0-2.2-1.9-2.2-2.4
	c0-0.1,0-0.2,0-0.2c1.2-0.7,0.3-1.5,0.2-2.3c0,0,0,0.1,0,0.1c0.1,0.6,0.4,1.4-0.3,1.5c-0.6,0-1.5-0.6-1.4-1.4
	c0.2-1.1-0.4-1.1-1.3-1.3c-2-0.5-3.2-1.9-3.7-3.7c-0.2-0.7-0.5-1.3-0.9-1.8c-0.3-0.4-0.4-0.7,0-1c0.4-0.3,0.7-0.3,1.1,0
	c0.7,0.5,1,1.2,1.1,2.1c0.1,1.1,0.6,2.1,1.8,2.5c-0.1-0.4-0.5-0.6-0.8-0.9c-0.6-0.6-1.1-1.2-1.1-2.1c0-0.8-0.4-1.6-0.8-2.3
	c-0.1-0.2-0.2-1.1-0.9-0.4c-0.1,0.1-0.3,0-0.5-0.1c-1.4-0.9-2.7-0.4-3.8,0.5c-0.5,0.4-1,0.8-1.7,0.8c-0.4,0-0.8,0.2-1.1,0.4
	c-1.6,1.1-3.8,1.4-5,3.1c-0.1,0.1-0.3,0.2-0.5,0.2c-2.6,0.5-4.4,2.5-6.8,3.4c-2.2,0.9-4,2.4-6.2,3.3c-0.6,0.2-1,0.7-1.5,1.1
	c-0.4,0.4-0.8,0.9-1.5,0.9c-1.5-1-3-2-4.3-3.3c0.1-0.6,0.5-0.9,1.1-1c0.8-0.1,1.7,0,2.1-1c0-0.1,0.2-0.2,0.3-0.2
	c1.4,0.3,2.2-0.9,3.3-1.3c0.9-0.3,1.7-0.7,2.6-0.6c0.8,0.1,1.3-0.8,2.4-0.7c-0.5-0.5-1.4,0.2-1.4-0.7c0.1-0.6,0.6-0.9,1.3-0.9
	c0.7,0,1.2-0.3,0.8-1c-0.4-0.7-0.4-1.3,0.4-1.5c0.9-0.2,1.1,0.4,1.2,1.1c0,0.1,0.1,0.1,0.3,0.2c0.7-1.4,1.6-2.5,3.5-1.9
	c-0.1-0.3-0.3-0.4-0.4-0.6c-0.2-0.3-0.7-0.7-0.4-1.1c0.3-0.4,0.7-0.1,1.1-0.1c0.6,0.1,1-0.2,1.2-0.7c0.3-0.7,0.7-0.8,1.3-0.3
	c0.5,0.4,1.3,0.3,1.6,1c0-0.6-0.9-0.7-0.6-1.2c0.4-0.6,1.1,0,2-0.2c-1.3-0.3-2.5-0.4-2.7-1.7c-0.3,0-0.4,0.2-0.4,0.3
	c-0.3,1.3-1.2,0.8-2.1,0.9c-1.4,0.1-3.1-0.2-4,1.3c-0.2,0.3-0.6,0.3-0.9,0.4c-0.7,0.1-1.2,0-1.3,1.1c0,0.9-1.3,1.1-2.3,1.3
	c0.4,0.3,1.2-0.5,1.3,0.3c0.1,0.7-0.4,0.9-1.2,1c0.2,0.4,0.9,0.4,0.6,1c-0.2,0.4-0.6,0.3-1,0.4c-1.4,0.3-2.9,0-4.3,0.5
	c-0.2,0.1-0.4,0.2-0.6,0.1c-2.5-0.4-4.9,0.4-7.3,0.3c-1.2-0.1-2.4,0.2-3.5-0.4c-1.2-1.1-2.2-2.3-3.2-3.6c3.4-2.7,6.8-5.5,10.7-7.7
	c0.3-0.2,0.7-0.3,0.6-0.7c-0.2-0.4-0.6-0.2-1-0.2c-1.9,0.2-3.1,1.6-4.5,2.7C20.7,110.9,18.9,112.9,16.5,114.3z"/>
<path class="st57" d="M3.7,58.4c1.4-0.4,2.4,0,3.3,1.5c0.5,0.7,1,1.5,1.3,2.3c0.9,3,3.3,4.8,5.6,6.7c0.7,0.6,1.1,1.3,1.5,2
	c0.4,0.8,0.6,2,2.1,1.4c0.4-0.1,0.8,0.3,0.9,0.7c0.4,2.5,1.8,4.7,1.7,7.3c0,0.3,0.1,0.8,0.3,1c1.2,1.1,0.5,2.3,0.2,3.5
	c-0.5,2-1.4,4-1.3,6.2c0,0.9,0.2,1.6,0.7,2.4c0.6,1.1,0.9,2.3,0.9,3.5c0,0.9,0.1,1.7,1.2,2.1c0.8,0.3,1.1,1.2,1.1,2
	c0.1,1.5-0.1,3-0.3,4.5c-0.1,0.9-0.8,1.3-1.5,1.8c-1.7,1.4-3.6,2.6-4.9,4.4c-0.3,0.4-0.6,0.8-1.2,0.8c-1.7-2.1-3.3-4.4-4.5-6.8
	c0.3-1,1.3-1.3,2.1-1.6c1.5-0.5,3-0.8,4.5-1.2c-2.6,0.5-5.2,1.7-7.9,0.4c-0.1-0.3-0.2-0.5-0.4-0.8c-0.2-0.3-0.1-0.5,0.1-0.7
	c0.9-0.6,0.9-1.4,0.9-2.2c0.1-3.5-1-6.6-2.9-9.5c-0.5-0.8-1.1-1.3-2.1-1c-0.4,0.1-0.7,0-1-0.2c-1.2-4.2-1.7-8.5-2-12.8
	c-0.3-5.7,0.2-11.4,1.3-17.1C3.5,59,3.6,58.7,3.7,58.4z"/>
<path class="st57" d="M30.6,127.9c2.4-2.3,5.5-3.6,8.4-5.2c1.8-0.9,3.6-1.9,5.2-3c1.3-0.9,2.8-1.4,4.2-2.3c1.2-0.8,2.6-1.8,4.1-2
	c1.4-0.2,2.4-1.1,3.4-1.8c1-0.6,1.7,0.2,2.5-0.2c0.3-0.1,0.1,0.6,0.6,0.7c0.5-0.3-0.1-0.7,0.2-1.1c1.1,1.2,1.8,2.5,1.9,4.2
	c0,1,0.9,1.5,1.6,2.1c0.3,0.2,0.7,0.4,0.7,0.8c0,0.1-0.2,0.2-0.2,0.3c-0.4-0.6-1.2,0.3-1.5-0.4c-0.4-0.9-1.2-1.7-1.1-2.8
	c0.1-0.8-0.7-1.1-1-1.7c-0.2-0.3-0.6-0.1-0.8,0.1c-0.4,0.3,0,0.3,0.2,0.5c0.8,0.9,0.9,2.1,1.5,3.2c0.5,1.1,2.2,2.4,3.5,2.4
	c0.7,0,1.3,0,1,0.9c-0.4,1.1,0.5,1.5,1.2,1.9c0-0.6,0.2-1.1-0.2-1.6c-0.2-0.2-0.2-0.5,0.1-0.6c0.3-0.1,0.6,0.1,0.5,0.4
	c-0.1,0.6,0.3,1.1,0.5,1.6c0.3,0.7,0,1.2-0.9,1.2c0.4,0.8,1.3,1.2,1.6,2c0.2,0.4,0.7,0.3,1,0.2c0.7-0.3-0.2-0.7,0.1-1
	c0.4-0.1,0.6,0.4,0.5,0.6c-0.5,1.1,0.1,2.2-0.2,3.3c0,0.1-0.1,0.2-0.1,0.2c1.1,1.5-0.8,1.9-1.1,2.9c-0.1,0.3-0.5,0.6-0.2,0.9
	c1,0.9,0.7,2,0.5,3.1c-0.1,0.5,0.4,1-0.1,1.5c-0.5-0.8-0.8-1.7-0.7-2.7c-0.6,0.1-0.9,0.5-0.7,1c0.1,0.3,0.5,0.6-0.1,0.7
	c-0.4,0.1-0.8-0.1-0.8-0.6c-0.1-0.3,0.1-0.7-0.4-1c-0.3,0.7-0.3,1.3,0.2,1.7c0.8,0.6,0.5,1.7,1.3,2.3c0.1,0.1-0.2,0.2-0.4,0.2
	c-8.4-0.3-16.4-2.2-23.9-5.7C38.5,133,34.3,130.8,30.6,127.9z"/>
<path class="st57" d="M20.2,118.8c0.1-0.1,0.3-0.2,0.3-0.2c1.5,1,3.2-0.1,4.7,0.4c0.8,0.3,1.4-0.4,2.1-0.5c1-0.1,2.1,0.3,3.1,0.1
	c0.9-0.2,2,0.1,2.7-0.9c0.1-0.2,0.6-0.3,0.6,0.1c-0.1,1.2,0.7,0.4,1,0.4c0.6,0,1.1-0.8,1.7-0.1c0.1,0.1,0.3-0.1,0.4-0.2
	c0.1-0.3-0.1-0.4-0.3-0.4c-0.4-0.1-0.9-0.2-0.7-0.7c0.1-0.6,0.6-0.1,0.9-0.1c0.6,0,0.7-0.3,0.8-0.8c-0.4-0.3-0.8,0.1-1.3,0.1
	c-0.3,0-0.6,0.3-0.7-0.2c-0.1-0.4,0.3-0.7,0.6-0.6c0.7,0.3,1.1-0.1,1.6-0.4c0.7-0.3,1.2-0.8-0.2-1.3c0.9-0.3,1.6-0.9,2.4-0.7
	c0.3,0.1,0.5,0,0.6-0.4c0.4-0.8,1.2-1.2,2.1-1c0.9,0.3,0.8-0.2,0.7-0.7c1,0.6,2.1,0.3,3.1,0.7c0.1-0.7-0.7-0.5-0.7-0.9
	c0.2-0.5,1.4,0.3,1-0.9c0,0,0.2-0.2,0.3-0.2c0.3,0,0.3,0.2,0.4,0.4c0.3,0.9,0.6,1.7,1.9,1.5c0.2,0,0.6,0.2,0.8,0.4
	c0.2,0.1,0.5,0.3,0.4,0.6c-0.1,0.3-0.4,0.1-0.7,0.1c-0.5-0.1-1.1-0.2-1.8-0.3c0.4,0.6,1.4,0.9,0.6,1.7c-0.2,0.2-0.4,0.3-0.6,0.1
	c-0.5-0.4,0.2-0.5,0.3-0.9c-0.9,0.2-1.4-0.4-2-0.9c-0.6,1.7-1,1.9-2.8,1.3c0.1,0.6,0.6,0.9,0.9,1.3c0.2,0.2,0.7,0.2,0.3,0.6
	c-0.2,0.3-0.6,0.3-0.8,0.1c-0.5-0.5-1.1-0.1-1.6-0.1c-0.9,0.1-0.6,0.9-1,1.3c-0.3,0.3-0.5,0.9-1,0.8c-0.4-0.1-0.8-0.5-0.4-1
	c0.2-0.3,0.1-0.5-0.2-0.6c-0.3-0.1-0.6-0.1-0.9,0.1c-0.2,0.2-0.2,0.4-0.1,0.7c0.8,1.5,0.8,1.5-1,1.7c-0.5,0-0.8,0.3-0.9,0.9
	c0.6-0.2,1.3-0.7,1.8,0.1c-0.6,0.8-2,0.4-2.4,1.5c-0.1,0.2-0.3,0-0.5-0.1c-0.8-0.5-1.5-0.2-2.1,0.2c-0.8,0.5-1.8,0.6-2.4,1.3
	c-0.3,0.3-0.8,0.4-1.2,0.2c-0.2-0.1-0.3-0.2-0.5,0c-0.8,1-1.1,1.1-2.4,1.2c-0.6,0-0.6,0.6-1,0.7c-1.7-1.6-3.4-3.2-5.1-4.8
	C20.9,119.5,20.6,119.2,20.2,118.8z"/>
<path class="st58" d="M4.1,89.1c2.3-0.9,3.2,0.6,4.2,2.2c1.8,3,2.3,6.2,2.3,9.7c0,1.1-1.2,1-1.4,1.8C6.8,98.5,5.3,93.9,4.1,89.1z"/>
<path class="st59" d="M16.5,114.3c1.7-1.5,3.3-3.3,5.4-4.5c0.8-0.5,1.4-1.3,2.2-2c1.1-0.9,2.2-1.5,3.6-1.6c0.5,0,1-0.2,1.2,0.4
	c0.2,0.6-0.4,0.9-0.9,1.1c-1.2,0.6-2.3,1.1-3.3,2c-2.1,1.9-4.8,3.1-6.7,5.2c-0.3,0.3-0.6,0.3-1,0.3
	C16.6,115.1,16.6,114.7,16.5,114.3z"/>
<path class="st60" d="M9.5,103.6c3,0.7,6-0.2,8.9-0.8c0,0.1,0,0.2,0.1,0.4c-1.5,0.4-2.9,0.9-4.4,1.2c-1.2,0.3-2.3,0.8-3.3,1.6
	C10.3,105.1,9.9,104.3,9.5,103.6z"/>
<path class="st57" d="M70.9,107.4c-0.2-0.5-0.4-0.9-0.6-1.4c-0.5,0.1-0.5,1-1.2,0.7c-0.7-0.3-0.2-0.8-0.4-1.2
	c-0.1-0.1-0.1-0.2-0.1-0.4c-0.1-0.5-0.6-1.1-0.1-1.4c0.5-0.4,0.8,0.4,1.2,0.7c0.2,0.1,0.4,0.3,0.8,0.3c-0.6-1,0-1.9,0-2.9
	c-0.1-1-0.4-1.6-1.4-2c-0.9-0.4-2-0.7-2.4-1.8c-0.1-0.3-0.5-0.5-0.6,0c-0.2,1.2-1.1,1.1-1.8,0.8c-1.1-0.4-1.5,0.2-1.6,1
	c-0.2,1.3-0.9,1.2-1.9,0.8c-0.3-0.1-0.6-0.3-0.9-0.5c-1.7-0.9-3.4-1.5-5.4-1.6c-2.8-0.1-5.6-0.3-8.3-0.2c-0.5,0-0.8-0.1-0.9-0.6
	c-0.3-1.1-0.9-2-1.3-3c-0.7-1.9-2.3-2.6-4.6-2.1c-1.9,0.4-3.8-0.1-5.7-0.2c-1.2,0-1.9-1.1-2.4-2.1c-0.3-0.5,0.1-0.7,0.4-0.9
	c0.5-0.3,0.6-0.7,0.3-1.1c-1.5-1.9-1.6-4.4-3.1-6.2c-0.4-0.5,0.2-1.2-0.2-1.8c-0.4-0.7-0.7-1.1-1.5-1c-0.9,0.1-1.8,0.1-2.6-0.2
	c-1.3-0.5-1.4-1.1-0.5-2c1-1,2-2,1.5-3.6c-0.2-0.5,0.1-1.1,0.5-1.5c1-1.3,1-2.7,0.4-4.1c-0.4-0.9-0.5-2-1.1-2.8
	c-0.1-0.2-0.4-0.3-0.2-0.5c0.2-0.3,0.4-0.1,0.7-0.1c0.9,0.1,1.4,1,2.4,1.1c-1.6-2.1-0.3-4,0.5-5.8c0.4-1.1,0.8-1.8,0.1-2.8
	c-0.2-0.3-0.8-0.6-0.4-1.1c0.3-0.4,0.8,0.3,1.4,0.1c-0.8-0.6-1.4-1.1-2-1.6c-1-0.7-2-3.5-1.5-4.6c0.3-0.9,1.4-0.9,2-1.6
	c0.3-0.3,0.7-0.4,0.3-1c-0.4-0.6,0-1.1,0.5-1.4c1.2-0.8,2.6-1.6,3.7-2.6c0.2-0.2,0.4-0.3,0.8-0.1c-0.3,0.4-1.2,0.8,0,1.1
	c0.2,0.1-0.2,0.4-0.5,0.6c-1.2,0.9-2.7,1.3-3.4,2.7c-0.1,0.1-0.1,0.2-0.2,0.7c3.6-3.4,8.1-4.7,12.3-6.7c0.3,2.2-1.9,2.5-2.7,3.8
	c-0.8,1.2-2.1,2-3.3,3.1c1.7-0.2,2.4-1.4,3.3-2.3c2.2-2.2,4.8-3.9,7.5-5.4c-1,1.4-2.6,2.1-3.4,3.7c1.2-1.1,2.5-2.2,3.8-3.2
	c1.1-0.8,2.3-1.6,3.6-1.9c0.8-0.2,1.6-0.1,2.3-0.3c1.3-0.4,2.7,0.4,4-0.1c0.6-0.2,1.3,0.2,1.4,1.2c0.2,2.6,0.6,5.2,1,7.8
	c0.1,0.9,0.2,1.9,1.1,2.6c0.5,0.5,0.5,1.3,0.5,2c0,0.7-0.1,1.4,0.1,2.1c0.6-0.4,0.4-0.8,0.4-1.1c-0.2-2.3-0.5-4.5-0.6-6.8
	c-0.1-1.6-0.4-3.2-0.4-4.8c0-1-0.3-2.3,0.1-3c0.7-1.3,0-2.1-0.3-3.1c-0.1-0.3-0.3-0.6-0.7-0.7c-0.4,0-1,0-0.7-0.7
	c0.2-0.5,0.9-0.9,1.3-0.5c1.1,1.3,2.1,0.8,3.5,0.4c1.3-0.4,3.9,1.5,4.6,2.9c0.9,1.8,1.8,3.6,2.9,5.3c-0.5-2.2-1.9-4.1-2.8-6.2
	c0.6-0.1,1,0.2,1.1,0.6c0.7,1.7,1.8,3.1,2.4,4.9c0.4,1.3,1,2.6,1.5,3.9c0.6,1.7,1.1,3.4,1.3,5.2c0,0.4,0.2,0.7,0.3,1.1
	c0.9,3,1.5,6,1.9,9c0.2,1.3,0.3,2.7,0.9,4c0.7,1.4,0.6,3,0,4.5c-0.4,1.1-0.3,2.1,0.3,3.1c0.1,0.3,0.3,0.6,0.2,0.8
	c-0.3,2.4,0.6,4.5,1.2,6.8c0.5,2,1,4.1,0.6,6.2c-0.2,1,0.8,2,0.4,3.2c-0.1,0.3,0,0.7-0.2,0.8c-1.6,1.4-1.1,3.3-1.3,5
	c-0.2,1.8-0.8,3.3-2,4.5c-0.7,0.7-1.1,1.6-2.4,2c-1.2,0.4-1.2,2.1-1.4,3.3c-0.2,1.1-0.1,2.2,0.1,3.3C72,108.6,71.6,107.7,70.9,107.4
	L70.9,107.4z"/>
<path class="st61" d="M52.8,112.3c1.3,0.9,2.2,0.1,3.1-0.5c0.3-0.2,0.7-0.5,0.9-0.1c0.3,0.4-0.3,0.5-0.6,0.6c-2.3,1.4-4.8,2.4-7.1,4
	c-1.4,1-3.4,1.3-4.9,2.3c-1.6,1-3.5,1.4-4.9,2.6c-0.2,0.2-0.5,0.4-0.9,0.1c0.5-0.8,1.7-1.1,1.5-2.3c1.2,0.5,3.1-0.2,3.5-1.3
	c0.1-0.2,0-0.5,0.2-0.5c1.5,0.4,2.4-1.3,3.9-1.1c0.4,0,0.8-0.2,1-0.5c1-1.1,2.3-1.8,3.8-2C53.1,113.3,52.7,112.8,52.8,112.3z"/>
<path class="st62" d="M70.9,107.4c0.3,1.1,1.4,1.7,1.4,2.8c0.4,0.1,0.4-0.2,0.5-0.3c0.2-0.3,0.3-0.8,0.8-0.5
	c0.5,0.3,0.6,0.7,0.2,1.2c-0.7,0.7-0.9,1.5-0.2,2.3c0.4,0.4,0,0.9,0.1,1.4c0.3,1.4-0.7,2.6-0.3,4.1c-0.8-1.1-0.6-2.3-0.8-3.5
	c-0.6-2.4-0.5-4.9-2-7.1C70.3,107.5,70.7,107.4,70.9,107.4C70.9,107.4,70.9,107.4,70.9,107.4z"/>
<path class="st63" d="M28.7,73.1c1-1.6,1.5-1.8,2.9-1c1.1,0.7,1.5,1.6,0.6,2.5c-1.2,1.2-1.9,2.8-3.3,3.8c-0.6,0.5-1,0.6-1.2-0.2
	c-0.2-1.1-0.6-1-1.3-0.5C26,78,25.5,78.5,25.1,78c-0.3-0.5,0.3-1,0.6-1.1c1.6-0.5,2.7-1.2,1.5-3c-0.1-0.1,0.1-0.4,0.1-0.6
	c0-0.5-0.5-1.3,0.3-1.5C28.2,71.7,28.3,72.6,28.7,73.1z"/>
<g>
	<path class="st1" d="M35.4,110.8v7.4c0,0.5,0.1,0.8,0.3,1c0.2,0.2,0.5,0.3,0.9,0.3v0.4c-0.2,0-0.5,0-0.9,0c-0.4,0-0.8,0-1.2,0
		c-0.4,0-0.8,0-1.2,0c-0.4,0-0.7,0-0.9,0v-0.4c0.4,0,0.8-0.1,0.9-0.3c0.2-0.2,0.3-0.5,0.3-1v-5.3c0-0.5-0.1-0.9-0.3-1.1
		c-0.2-0.2-0.5-0.4-1-0.4V111c0.4,0,0.7,0.1,1.1,0.1c0.4,0,0.7,0,1.1-0.1C34.8,110.9,35.1,110.9,35.4,110.8z M34.4,106.7
		c0.4,0,0.6,0.1,0.9,0.3c0.2,0.2,0.4,0.5,0.4,0.8c0,0.3-0.1,0.6-0.4,0.8c-0.2,0.2-0.5,0.3-0.9,0.3c-0.4,0-0.6-0.1-0.9-0.3
		c-0.2-0.2-0.4-0.5-0.4-0.8c0-0.3,0.1-0.6,0.4-0.8C33.7,106.8,34,106.7,34.4,106.7z"/>
	<path class="st1" d="M41.6,110.7c0.5,0,1,0.1,1.4,0.3c0.4,0.2,0.7,0.6,0.9,1.1l-0.2,0.2c-0.2-0.4-0.4-0.7-0.7-0.9
		c-0.3-0.2-0.7-0.3-1-0.3c-0.6,0-1.2,0.3-1.6,1c-0.4,0.7-0.6,1.7-0.6,3.2c0,0.9,0.1,1.7,0.2,2.3c0.2,0.6,0.4,1,0.7,1.3
		c0.3,0.3,0.7,0.4,1.1,0.4s0.8-0.2,1.2-0.6s0.6-0.9,0.6-1.6l0.2,0.4c-0.1,0.8-0.4,1.4-0.8,1.8c-0.4,0.4-1,0.6-1.7,0.6
		c-0.7,0-1.3-0.2-1.8-0.5c-0.5-0.3-0.9-0.8-1.2-1.5s-0.4-1.5-0.4-2.6c0-1,0.2-1.9,0.5-2.6c0.3-0.7,0.8-1.2,1.4-1.5
		S40.9,110.7,41.6,110.7z M45.4,106.4v11.5c0,0.5,0.1,0.9,0.3,1.1c0.2,0.2,0.5,0.4,1,0.4v0.4c-0.4,0-0.7-0.1-1.1-0.1
		c-0.4,0-0.7,0-1.1,0.1s-0.6,0.1-0.9,0.2v-11.5c0-0.5-0.1-0.9-0.3-1.1c-0.2-0.2-0.5-0.4-1-0.4v-0.4c0.4,0,0.7,0.1,1.1,0.1
		c0.4,0,0.7,0,1.1-0.1C44.8,106.6,45.1,106.5,45.4,106.4z"/>
	<path class="st1" d="M49.8,119.9c-0.5,0-0.9-0.1-1.2-0.3c-0.3-0.2-0.6-0.4-0.8-0.7c-0.2-0.3-0.3-0.7-0.3-1.1c0-0.5,0.1-0.9,0.3-1.2
		c0.2-0.3,0.5-0.6,0.9-0.8c0.4-0.2,0.7-0.4,1.1-0.5c0.4-0.1,0.8-0.3,1.1-0.4s0.7-0.3,0.9-0.4c0.2-0.2,0.3-0.4,0.3-0.6v-1.2
		c0-0.4-0.1-0.7-0.2-1c-0.1-0.2-0.3-0.4-0.5-0.5c-0.2-0.1-0.5-0.2-0.8-0.2c-0.3,0-0.5,0-0.8,0.1c-0.3,0.1-0.5,0.2-0.7,0.4
		c0.2,0.1,0.5,0.2,0.6,0.4c0.2,0.2,0.2,0.4,0.2,0.7c0,0.3-0.1,0.6-0.3,0.7c-0.2,0.2-0.5,0.3-0.8,0.3c-0.4,0-0.6-0.1-0.8-0.3
		c-0.2-0.2-0.3-0.5-0.3-0.8c0-0.3,0.1-0.6,0.2-0.7c0.2-0.2,0.4-0.4,0.6-0.5c0.3-0.2,0.6-0.3,1-0.5c0.4-0.1,0.9-0.2,1.4-0.2
		c0.5,0,0.9,0.1,1.3,0.2c0.4,0.1,0.7,0.3,0.9,0.5c0.3,0.3,0.5,0.6,0.6,1c0.1,0.4,0.1,0.9,0.1,1.4v4.7c0,0.3,0,0.5,0.1,0.6
		c0.1,0.1,0.2,0.2,0.4,0.2c0.1,0,0.2,0,0.3-0.1c0.1-0.1,0.2-0.1,0.4-0.3l0.2,0.3c-0.2,0.2-0.5,0.3-0.7,0.5s-0.6,0.2-0.9,0.2
		c-0.4,0-0.7-0.1-0.9-0.2c-0.2-0.1-0.4-0.3-0.5-0.5c-0.1-0.2-0.2-0.5-0.2-0.8c-0.3,0.5-0.6,0.8-1.1,1.1
		C50.8,119.7,50.3,119.9,49.8,119.9z M50.6,119c0.3,0,0.6-0.1,0.9-0.3s0.5-0.5,0.8-0.8v-3.4c-0.1,0.2-0.3,0.3-0.5,0.5
		c-0.2,0.1-0.5,0.3-0.8,0.4s-0.5,0.3-0.8,0.5s-0.4,0.4-0.6,0.7c-0.2,0.3-0.2,0.6-0.2,1c0,0.4,0.1,0.8,0.3,1S50.2,119,50.6,119z"/>
	<path class="st1" d="M67.4,111v0.3c-0.2,0-0.4,0.1-0.6,0.3c-0.2,0.2-0.4,0.5-0.5,1l-2.7,7.2c-0.1,0-0.2,0-0.3,0s-0.2,0-0.3,0
		l-3.1-7.5c-0.2-0.4-0.4-0.7-0.5-0.8c-0.2-0.1-0.3-0.1-0.5-0.1V111c0.3,0,0.6,0,0.8,0.1c0.3,0,0.6,0,1,0s0.7,0,1.1,0
		c0.4,0,0.8,0,1.1-0.1v0.4c-0.3,0-0.5,0-0.7,0.1c-0.2,0-0.3,0.1-0.4,0.3c-0.1,0.2,0,0.4,0.1,0.8l2.1,5.3l-0.1,0.1l1.8-4.6
		c0.2-0.5,0.2-0.8,0.2-1.1c0-0.3-0.2-0.5-0.4-0.6c-0.2-0.1-0.5-0.2-0.9-0.2V111c0.2,0,0.4,0,0.5,0c0.2,0,0.3,0,0.5,0
		c0.2,0,0.3,0,0.5,0c0.2,0,0.5,0,0.7,0C67.1,111,67.3,111,67.4,111z"/>
	<path class="st1" d="M71,110.8v7.4c0,0.5,0.1,0.8,0.3,1c0.2,0.2,0.5,0.3,0.9,0.3v0.4c-0.2,0-0.5,0-0.9,0c-0.4,0-0.8,0-1.2,0
		c-0.4,0-0.8,0-1.2,0c-0.4,0-0.7,0-0.9,0v-0.4c0.4,0,0.8-0.1,0.9-0.3c0.2-0.2,0.3-0.5,0.3-1v-5.3c0-0.5-0.1-0.9-0.3-1.1
		c-0.2-0.2-0.5-0.4-1-0.4V111c0.4,0,0.7,0.1,1.1,0.1c0.4,0,0.7,0,1.1-0.1C70.4,110.9,70.7,110.9,71,110.8z M70,106.7
		c0.4,0,0.6,0.1,0.9,0.3c0.2,0.2,0.4,0.5,0.4,0.8c0,0.3-0.1,0.6-0.4,0.8c-0.2,0.2-0.5,0.3-0.9,0.3c-0.4,0-0.6-0.1-0.9-0.3
		c-0.2-0.2-0.4-0.5-0.4-0.8c0-0.3,0.1-0.6,0.4-0.8C69.3,106.8,69.6,106.7,70,106.7z"/>
	<path class="st1" d="M75.7,106.4V119c-0.2,0.1-0.4,0.2-0.6,0.3c-0.2,0.1-0.4,0.2-0.6,0.3c-0.2,0.1-0.4,0.2-0.5,0.4l-0.3-0.1
		c0-0.2,0.1-0.3,0.1-0.5c0-0.2,0-0.3,0-0.5v-10.4c0-0.5-0.1-0.9-0.3-1.1c-0.2-0.2-0.5-0.4-1-0.4v-0.4c0.4,0,0.7,0.1,1.1,0.1
		c0.4,0,0.7,0,1.1-0.1C75.1,106.6,75.4,106.5,75.7,106.4z M78.3,110.7c0.9,0,1.7,0.4,2.3,1.1s0.9,1.9,0.9,3.4c0,1.1-0.2,2-0.5,2.7
		c-0.4,0.7-0.8,1.2-1.4,1.5c-0.6,0.3-1.2,0.5-1.9,0.5c-0.5,0-1-0.1-1.5-0.4c-0.5-0.3-0.9-0.7-1.1-1.2l0.3,0.1
		c0.2,0.4,0.6,0.7,0.9,0.9c0.4,0.2,0.8,0.3,1.1,0.3c0.7,0,1.2-0.3,1.6-1c0.4-0.7,0.5-1.8,0.5-3.2c0-0.9-0.1-1.7-0.2-2.3
		c-0.1-0.6-0.4-1-0.6-1.3c-0.3-0.3-0.6-0.4-1-0.4c-0.5,0-0.9,0.2-1.3,0.6c-0.4,0.4-0.7,1-0.7,1.8l-0.2-0.4c0.2-0.8,0.5-1.5,1-2
		C77,111,77.6,110.7,78.3,110.7z"/>
	<path class="st1" d="M87,110.7c0.8,0,1.4,0.2,2,0.5c0.6,0.3,1.1,0.8,1.4,1.5c0.4,0.7,0.5,1.6,0.5,2.7c0,1.1-0.2,2-0.5,2.7
		c-0.4,0.7-0.8,1.2-1.4,1.5s-1.3,0.5-2,0.5c-0.7,0-1.4-0.2-2-0.5c-0.6-0.3-1.1-0.8-1.4-1.5c-0.3-0.7-0.5-1.6-0.5-2.7
		c0-1.1,0.2-2,0.5-2.7c0.3-0.7,0.8-1.2,1.4-1.5C85.6,110.9,86.2,110.7,87,110.7z M87,111.1c-0.6,0-1.1,0.3-1.4,1
		c-0.4,0.7-0.6,1.8-0.6,3.3c0,1.5,0.2,2.6,0.6,3.3c0.4,0.7,0.9,1,1.4,1c0.6,0,1.1-0.3,1.4-1c0.4-0.7,0.6-1.8,0.6-3.3
		c0-1.5-0.2-2.6-0.6-3.3C88,111.4,87.6,111.1,87,111.1z"/>
	<path class="st1" d="M97.6,110.7c0.3,0,0.6,0.1,0.8,0.2s0.4,0.3,0.5,0.5c0.1,0.2,0.2,0.4,0.2,0.7c0,0.3-0.1,0.6-0.3,0.8
		c-0.2,0.2-0.5,0.3-0.8,0.3c-0.3,0-0.5-0.1-0.7-0.3s-0.3-0.4-0.3-0.7c0-0.2,0.1-0.5,0.2-0.6s0.3-0.3,0.5-0.4
		c-0.1-0.1-0.2-0.1-0.4-0.1c-0.3,0-0.6,0.1-0.9,0.3c-0.3,0.2-0.5,0.4-0.7,0.7c-0.2,0.3-0.3,0.6-0.4,0.9c-0.1,0.3-0.2,0.6-0.2,0.9
		v3.9c0,0.6,0.2,0.9,0.5,1.1c0.3,0.2,0.7,0.3,1.3,0.3v0.4c-0.3,0-0.6,0-1.1,0c-0.5,0-1,0-1.5,0c-0.4,0-0.8,0-1.2,0
		c-0.4,0-0.7,0-0.9,0v-0.4c0.4,0,0.8-0.1,0.9-0.3c0.2-0.2,0.3-0.5,0.3-1v-5.3c0-0.5-0.1-0.9-0.3-1.1c-0.2-0.2-0.5-0.4-1-0.4V111
		c0.4,0,0.7,0.1,1.1,0.1c0.4,0,0.7,0,1.1-0.1c0.3,0,0.6-0.1,0.9-0.2v2c0.1-0.3,0.3-0.6,0.5-1c0.2-0.3,0.5-0.6,0.8-0.8
		S97.2,110.7,97.6,110.7z"/>
	<path class="st1" d="M103,122.9c-0.6,0-1.2-0.1-1.8-0.2c-0.5-0.1-1-0.3-1.3-0.6c-0.3-0.3-0.5-0.6-0.5-1c0-0.4,0.2-0.7,0.5-1
		c0.3-0.3,0.8-0.5,1.3-0.6l0.1,0.3c-0.2,0.1-0.4,0.3-0.6,0.5c-0.1,0.2-0.2,0.5-0.2,0.7c0,0.5,0.2,0.9,0.7,1.2
		c0.5,0.3,1.1,0.4,1.8,0.4c0.5,0,1-0.1,1.5-0.2c0.5-0.1,0.8-0.3,1.1-0.6s0.4-0.7,0.4-1.1c0-0.4-0.1-0.7-0.4-0.9
		c-0.3-0.2-0.8-0.4-1.5-0.4h-1.2c-0.4,0-0.8,0-1.1-0.1c-0.3-0.1-0.6-0.2-0.8-0.4c-0.2-0.2-0.3-0.5-0.3-0.8c0-0.4,0.2-0.8,0.5-1.2
		c0.3-0.4,0.9-0.7,1.7-1.1l0.2,0.2c-0.3,0.2-0.6,0.4-0.9,0.6c-0.3,0.2-0.4,0.4-0.4,0.7c0,0.4,0.3,0.5,0.8,0.5h2c0.5,0,1,0.1,1.4,0.2
		s0.8,0.4,1,0.7s0.4,0.7,0.4,1.2c0,0.5-0.2,1-0.5,1.5c-0.3,0.5-0.9,0.8-1.6,1.1S104.1,122.9,103,122.9z M103.1,116.1
		c-0.6,0-1.1-0.1-1.6-0.3c-0.5-0.2-0.8-0.5-1.1-0.9s-0.4-0.9-0.4-1.5s0.1-1.1,0.4-1.5c0.3-0.4,0.6-0.7,1.1-0.9
		c0.5-0.2,1-0.3,1.6-0.3c0.6,0,1.1,0.1,1.6,0.3c0.5,0.2,0.8,0.5,1.1,0.9c0.3,0.4,0.4,0.9,0.4,1.5s-0.1,1.1-0.4,1.5s-0.6,0.7-1.1,0.9
		C104.3,116,103.7,116.1,103.1,116.1z M103.1,115.8c0.4,0,0.7-0.2,0.9-0.5s0.3-1,0.3-1.9s-0.1-1.5-0.3-1.9s-0.5-0.5-0.9-0.5
		c-0.4,0-0.7,0.2-0.9,0.5s-0.3,1-0.3,1.9s0.1,1.5,0.3,1.9S102.8,115.8,103.1,115.8z M105.6,112.2l-0.3-0.1c0.2-0.4,0.4-0.7,0.8-1
		c0.4-0.3,0.8-0.4,1.2-0.4c0.3,0,0.6,0.1,0.8,0.3s0.3,0.4,0.3,0.7c0,0.4-0.1,0.6-0.3,0.7s-0.4,0.2-0.6,0.2c-0.2,0-0.3-0.1-0.5-0.2
		c-0.2-0.1-0.2-0.3-0.3-0.6c0-0.3,0.1-0.6,0.3-1l0.2,0.1c-0.5,0.2-0.8,0.4-1,0.6C106,111.6,105.8,111.8,105.6,112.2z"/>
</g>
</svg>
