<svg id="Layer_1" data-name="Layer 1" xmlns="http://www.w3.org/2000/svg" width="186.32" height="186.77" viewBox="0 0 186.32 186.77"><defs><style>.cls-1{fill:#367c8a;}.cls-2{fill:#ec790b;stroke:#fff;stroke-miterlimit:10;stroke-width:2px;}.cls-3{fill:#fff;}</style></defs><circle class="cls-1" cx="93.16" cy="93.38" r="91.93"/><path class="cls-2" d="M138,112.29c-3.51,5.21-10.15,6.49-11.75,6.8-15.31,2.94-20.63-12.77-36.56-13C73.44,106,66.56,122.2,52.94,117.92a17.26,17.26,0,0,1-9.19-6.9c-8.57-13.89,7.69-43.11,24.69-45.56,7.87-1.13,10.3,4.27,23.41,4.36,12.19.08,14.35-4.56,21.7-3.4C130.86,69.16,146.84,99.24,138,112.29Z"/><rect class="cls-3" x="69.01" y="80.01" width="2.71" height="18.57" rx="1.35"/><rect class="cls-3" x="68.98" y="79.95" width="2.76" height="18.69" rx="1.16" transform="translate(159.66 18.93) rotate(90)"/><ellipse class="cls-3" cx="111.57" cy="86.85" rx="2.46" ry="2.44"/><ellipse class="cls-3" cx="107.45" cy="93.46" rx="2.46" ry="2.44"/><ellipse class="cls-3" cx="115.62" cy="93.46" rx="2.46" ry="2.44"/></svg>