<svg id="Layer_1" data-name="Layer 1" xmlns="http://www.w3.org/2000/svg" width="186.32" height="186.77" viewBox="0 0 186.32 186.77"><defs><style>.cls-1{fill:#367c8a;}.cls-2{fill:#ec790b;stroke:#fff;stroke-miterlimit:10;stroke-width:2px;}</style></defs><circle class="cls-1" cx="93.54" cy="94.62" r="91.93"/><path class="cls-2" d="M137.5,74,117,84V71.18a8.76,8.76,0,0,0-8.73-8.73h-55a8.76,8.76,0,0,0-8.73,8.73v46.87a8.76,8.76,0,0,0,8.73,8.74h55.05a8.76,8.76,0,0,0,8.73-8.74V107.12l19.66,12.48a3.55,3.55,0,0,0,5.45-2.95l.48-39.4A3.54,3.54,0,0,0,137.5,74Z"/></svg>