<svg id="Layer_1" data-name="Layer 1" xmlns="http://www.w3.org/2000/svg" xmlns:xlink="http://www.w3.org/1999/xlink" width="1920" height="1080" viewBox="0 0 1920 1080"><defs><style>.cls-1{fill:url(#linear-gradient);}.cls-2{fill:#2a4828;}.cls-3{fill:#395229;}.cls-4{fill:url(#linear-gradient-2);}.cls-5{fill:#ececec;}.cls-6{fill:#fdfdfc;}.cls-7{fill:#ea5b27;}.cls-8{fill:#dd5a28;}.cls-9{fill:#cf592d;}.cls-10{fill:#d9ebde;}.cls-11{fill:#dbecdf;}.cls-12{fill:#61492d;}.cls-13{fill:#ead263;}.cls-14{fill:#e42320;}.cls-15{fill:#f4f4f6;}.cls-16{fill:#ef7f13;}.cls-17{fill:#f29222;}.cls-18{fill:#e9c854;}.cls-19{fill:#efc135;}.cls-20{fill:#f1c835;}.cls-21{fill:#1d1e1c;}.cls-22{fill:#f1f1f1;}.cls-23,.cls-30{fill:#fff;}.cls-24{fill:#4e4d4d;}.cls-25{fill:#ebe33a;}.cls-26{fill:#020202;}.cls-27{fill:#3c3c3f;}.cls-28{fill:url(#radial-gradient);}.cls-29{fill:#efeab1;opacity:0.39;}.cls-30{opacity:0.77;}.cls-31{fill:url(#linear-gradient-3);}.cls-32{fill:url(#linear-gradient-4);}.cls-33{fill:url(#linear-gradient-5);}.cls-34{fill:url(#linear-gradient-6);}.cls-35{fill:url(#linear-gradient-7);}.cls-36{fill:url(#linear-gradient-8);}.cls-37{fill:url(#linear-gradient-9);}.cls-38{fill:url(#linear-gradient-10);}.cls-39{fill:url(#linear-gradient-11);}.cls-40{fill:url(#linear-gradient-12);}</style><linearGradient id="linear-gradient" x1="958.5" y1="777.75" x2="958.5" y2="-14" gradientTransform="translate(576.63 1340.37) rotate(-90)" gradientUnits="userSpaceOnUse"><stop offset="0.07" stop-color="#205f7a"/><stop offset="0.33" stop-color="#1f4f6f"/><stop offset="0.53" stop-color="#1b415f"/><stop offset="0.6" stop-color="#173651"/><stop offset="0.87" stop-color="#0a1023"/><stop offset="1" stop-color="#050111"/></linearGradient><linearGradient id="linear-gradient-2" x1="-107.2" y1="810.69" x2="1940.48" y2="810.69" gradientTransform="matrix(1.08, 0, 0, 1.47, -29.78, -276.42)" gradientUnits="userSpaceOnUse"><stop offset="0" stop-color="#395229"/><stop offset="0.52" stop-color="#566c49"/><stop offset="1" stop-color="#6a7d5f"/></linearGradient><radialGradient id="radial-gradient" cx="1652.01" cy="1065.4" r="28" gradientTransform="translate(839.85 182.52) scale(0.5 0.48)" gradientUnits="userSpaceOnUse"><stop offset="0.14" stop-color="gray"/><stop offset="0.53" stop-color="#666"/><stop offset="1"/></radialGradient><linearGradient id="linear-gradient-3" x1="378.16" y1="750.1" x2="378.17" y2="750.1" gradientUnits="userSpaceOnUse"><stop offset="0.14" stop-color="#2a4828"/><stop offset="0.53" stop-color="#395229"/><stop offset="1" stop-color="#526945"/></linearGradient><linearGradient id="linear-gradient-4" x1="336.73" y1="753.05" x2="336.74" y2="753.05" xlink:href="#linear-gradient-3"/><linearGradient id="linear-gradient-5" x1="781.31" y1="745.3" x2="781.31" y2="745.3" xlink:href="#linear-gradient-3"/><linearGradient id="linear-gradient-6" x1="739.87" y1="748.25" x2="739.88" y2="748.25" xlink:href="#linear-gradient-3"/><linearGradient id="linear-gradient-7" x1="1184.45" y1="744.9" x2="1184.46" y2="744.9" xlink:href="#linear-gradient-3"/><linearGradient id="linear-gradient-8" x1="1143.02" y1="747.85" x2="1143.03" y2="747.85" xlink:href="#linear-gradient-3"/><linearGradient id="linear-gradient-9" x1="1567.44" y1="745.53" x2="1567.45" y2="745.53" xlink:href="#linear-gradient-3"/><linearGradient id="linear-gradient-10" x1="1526" y1="748.48" x2="1526.02" y2="748.48" xlink:href="#linear-gradient-3"/><linearGradient id="linear-gradient-11" x1="-13.07" y1="1021.69" x2="1953.05" y2="1021.69" xlink:href="#linear-gradient-3"/><linearGradient id="linear-gradient-12" x1="1888.86" y1="749.81" x2="1888.87" y2="749.81" xlink:href="#linear-gradient-3"/></defs><rect class="cls-1" x="562.63" y="-589.63" width="791.75" height="1943" transform="translate(1340.37 -576.63) rotate(90)"/><path class="cls-2" d="M1650.84,602.09c1.48-44.16-67.8-103.89-127.73-116.18-116.28-23.86-190.71,132.24-164.06,179.45C1393.88,727.06,1648,685.24,1650.84,602.09Z"/><path class="cls-3" d="M1798.37,702.27c-126.08,12.05-308.74-14.94-327.58-72.83-23.16-71.19,193.73-213,362.64-158.86,82.49,26.42,165.17,103.28,148.69,158.77C1965.2,686.31,1850.8,697.25,1798.37,702.27Z"/><path class="cls-2" d="M336.75,858.66c-158.61,34.52-393,23.19-423-54C-123.14,709.75,137,483.43,356.85,534.1c107.38,24.75,220.29,119,205.22,197.93C546.61,813,402.7,844.31,336.75,858.66Z"/><path class="cls-4" d="M208.07,638.86c248.52-87.79,356.79-126,431.13-117.76s67.33,30.84,184.81,51c35.37,6.07,116.06,19.92,193.81,10.8,152.87-17.94,131.56-104.24,239.9-118.6,109.23-14.48,153.27,76.45,345,90,64.54,4.57,101-3.68,183.58,37.3,10.29,5.1,154.7,77.93,228.2,175.57,24.23,32.2,83.12,123.5,6.52,245.18-215.68,342.63-615.36,2.24-1186.79,118.45-489.84,99.62-935.58,448.24-980.54,48.42-11-97.89,6.58-292.08,113.41-413.4C14.41,712.13,64.09,689.73,208.07,638.86Z"/><ellipse class="cls-5" cx="730.74" cy="141.95" rx="7.44" ry="6.12" transform="matrix(0.99, -0.15, 0.15, 0.99, -13.17, 114.92)"/><ellipse class="cls-5" cx="899.76" cy="172.04" rx="7.11" ry="5.85" transform="translate(462.61 977.06) rotate(-72.32)"/><path class="cls-6" d="M346,173.07C346,213.89,377.09,247,415.5,247a66.81,66.81,0,0,0,44.66-17.28,77.89,77.89,0,0,1-12.21.95c-42,0-76.05-33.11-76.05-74A72.88,72.88,0,0,1,397,101.8C367.56,110.4,346,139.06,346,173.07Z"/><path class="cls-7" d="M372.42,672.43c3.09,20.78-4.12,44.58-7,44.48-4.45-.14-4.49-59.63.24-62.47C367.93,653.11,371.22,664.37,372.42,672.43Z"/><path class="cls-8" d="M443,529.92c-8.2,16.57-14.77,33.45-22.64,50,12.17,3.77,24.11,8.35,36.22,12.31C452.78,571.52,447.19,550.77,443,529.92Z"/><path class="cls-7" d="M402.45,694.31c21.37-61.93,18.12-54.11,13.35-117.09,65.61,14.08,72.51,34.67,122.43,74.33C489.28,683.86,456.17,693.48,402.45,694.31Z"/><path class="cls-7" d="M439.52,529.66a339.14,339.14,0,0,1-23.72,47.57c11.64,5.59,23.88,9,36.23,12.32C448.16,569.46,445.67,548.87,439.52,529.66Z"/><path class="cls-7" d="M231.49,690.37c-10-5.75-17-27-19.14-32-7.68-17.87-24.61-67.2-16.1-82,28-48.54,232.91-2.87,232.93,54.3,0,46.59-146.22,79-174.84,71.14C243.3,698.79,236.14,693.06,231.49,690.37Z"/><path class="cls-7" d="M212.11,565.75c.41,11.76-11.93,3.76-14.11,2.56-64-35.15-43.79-135.84-86-178.72-26.78-27.16,68.89,4.65,99.63,69.46C229.88,497.66,211.19,539.75,212.11,565.75Z"/><path class="cls-9" d="M439.36,534.56c-5.34,15-8.73,30.17-16.5,43.75,7.86,2.75,15.25,5.84,23.52,7.13C445,569.47,441.86,550.41,439.36,534.56Z"/><path class="cls-10" d="M415.42,654.6c-4.46,13.47-8.36,26.32-13,39.68,22.18.74,39.38-.37,65-8.19C446.6,676.74,434.05,667.82,415.42,654.6Z"/><ellipse class="cls-10" cx="441.81" cy="669.68" rx="8.01" ry="30.26" transform="matrix(0.51, -0.86, 0.86, 0.51, -359.6, 707.12)"/><path class="cls-11" d="M417.87,656.23c-1.35-11.76-150.09-5.8-147.35,39.58.31,5.24,3.36,5.5,3.71,5.71C291.06,712.25,419.22,668,417.87,656.23Z"/><path class="cls-11" d="M412.52,659.79,411,655.1a1.37,1.37,0,0,1,1.23-1.85l4.39.44a1.28,1.28,0,0,1,.69,2L414.43,660A1,1,0,0,1,412.52,659.79Z"/><path class="cls-11" d="M110.38,388.1c16.52,16.09,23.63,41.5,30.18,68.26l59.85-15.85,0-.06C164.94,386.84,85.9,364.28,110.38,388.1Z"/><path class="cls-7" d="M189.86,451.59c-.16-6-4.31-20.56-6.7-22.63-3.52-3,17.74,3.39,17.72,13.91C200.87,449.18,193.64,450.6,189.86,451.59Z"/><path class="cls-7" d="M179.31,454.57c-.15-6-4.31-20.55-6.7-22.62-3.52-3.05,17.75,3.39,17.73,13.91C190.32,452.17,183.09,453.59,179.31,454.57Z"/><path class="cls-7" d="M169.39,458.11c-.15-6-4.31-20.56-6.7-22.62-3.52-3.05,17.75,3.38,17.73,13.91C180.4,455.71,173.17,457.12,169.39,458.11Z"/><path class="cls-7" d="M159.28,460.53c-.15-6-4.31-20.56-6.7-22.63-3.52-3,17.75,3.39,17.73,13.91C170.3,458.12,163.06,459.54,159.28,460.53Z"/><path class="cls-7" d="M149.36,464.07c-.15-6-4.31-20.56-6.7-22.63-3.52-3.05,17.75,3.39,17.73,13.91C160.37,461.66,153.14,463.08,149.36,464.07Z"/><path class="cls-7" d="M144.26,469.38c-.71-5.93-6.2-19.74-8.78-21.48-3.8-2.58,18.1,1.15,19.05,11.53C155.08,465.65,148,467.94,144.26,469.38Z"/><path class="cls-7" d="M351.51,685.42c3.09,20.78-4.12,44.58-6.95,44.49-4.46-.14-4.5-59.64.23-62.47C347,666.1,350.31,677.37,351.51,685.42Z"/><path class="cls-7" d="M342.68,737.07c5.07,7.55,19.76,1.33,20.52-3.3.87-5.28-15.31-14.77-20.47-9.64C340,726.8,340.27,733.48,342.68,737.07Z"/><path class="cls-7" d="M361.05,720.74c4.27,6.13,17.24.79,18-3,.87-4.36-13.07-11.92-17.7-7.61C359,712.33,359,717.83,361.05,720.74Z"/><path class="cls-7" d="M253,667.07c-1-2.89-3.54-5.55-6.26-5.47-7.4.21-15.84,20.59-17.81,38.06-2.64,23.32,5.66,46.5,9.61,45.75.81-.15,1.44-1.32,2.18-3.51,5.54-16.28-3.73-25.94-1.29-41.48C242.12,683.41,256.18,676.26,253,667.07Z"/><path class="cls-7" d="M281.28,648.42c-.58-3.07-2.69-6.2-5.36-6.62-7.24-1.16-18.25,17.66-22.56,34.76-5.75,22.83-.82,47.54,3.13,47.52.82,0,1.59-1.06,2.61-3.11,7.62-15.26-.1-26.63,4.39-41.71C268.42,662.74,283.11,658.19,281.28,648.42Z"/><path class="cls-7" d="M233.34,746c6.15,6.37,19.94-2.53,20-7.18.12-5.3-17.4-11.41-21.83-5.42C229.25,736.46,230.42,742.92,233.34,746Z"/><path class="cls-7" d="M254.43,730.43c5.57,4.87,16-3.41,15.7-7.27-.38-4.4-15.19-8.29-18.27-3C250.26,722.85,251.79,728.12,254.43,730.43Z"/><path class="cls-12" d="M2037.81,479.22,1969,491l2.34,58.08-110.56,11.45-.39-50.86-41.05,7.05L1818.26,565l-81.43,8.43.7-42.57-38.08,6.54.58,39.84-52,5.38-.6-36.28-25.22,4.34-.26,34.65-47.4,4.9.12-31.38-25,4.3.61,29.6-35,3.62-.6-27.21-20.91,3.59,1.76,39.84-29.21,2.33-.91-37.29-14.66,2.52.2,36-28.22,2.26-.26-33.4-15.25,2.62.85,31.95-21.73,1.74-.83-30-10.9,1.88.33,29-23.14,1.86-.35-26.88-11.49,2,.76,25.78-21.14,1.7V602.5h-12.27l-.52,21.19-30.14.65V602.5h-15l.54,22.16-28,.6-.55-22.76h-12.28v23l-22.9.49V602.5h-15l.58,23.85-25.58.55-.6-24.4h-12.27v24.68l-22.67.49.61-25.17h-15v16.56l-22.9.5V602.5h-15l.42,17.37-14.31.31V595.89h-12.28l-.16,6.61h-11.54v14.82l-19,.41V595.89h-15l.16,6.61H995l.39,15.63-23.9.52-.56-22.77H958.65v6.62H954.7V619l-19,.41V595.89h-15l.17,6.61h-9.17v17.44l-16,.35-.6-24.4H882.9v24.68l-22.67.49.62-25.18h-15v16.57L823,613V595.88H808l.43,17.38-25.59.55-.43-17.93H770.13v18.21l-22.9.49v-18.7h-15l.46,19-28,.61-.48-19.62H692v19.89l-28.47.62.5-20.51H649v.25l-4.14-.6-.34,21.55-20.69-1.14V592.51l-11.11-1.6.41,24.45-22.44-1.24-.47-26.45-10.63-1.53v27.37l-21.26-1.16V583.08l-15-2.16.6,30.64L516.09,610l-.69-33.14-14.57-2.1v34.4l-29.18-1.6.84-36.89-21-3v25.23l-35.37-2.77V562.6l-25.53-3.68.75,29.3-48.77-3.81-.9-32.53-26.19-3.77v34.18L260.92,578V540.26l-40.38-5.81L221.86,575l-87.73-6.85-1.67-46.35-44.9-6.46v49.17L-36,554.83l2.46-57L-112,486.58V816.76l65.15-9.38,2.58-60.07L87.56,734v54l54.2-7.8-1.85-51.49L226.57,720l1.56,47.8,32.79-4.72V716.54l54.54-5.5v44.19l31.7-4.56L346,708l48.3-4.88,1.05,40.65,20.78-3V700.89l35-3.54-.9,38.48,21.1-3V708.42l29.49-3.65v23.78L518.49,726,518,702.63l27.67-3.43.45,22.83,12.23-1.76V697.63L579.62,695v22.22l12.9-1.86-.39-21.91,22.3-2.77.36,21.48,9.07-1.31V689.5l19.59-2.43-.33,21,9.59-1.38v-.5h8.59l.52-21.19,30.15-.65v21.84h15L706.4,684l28-.6.56,22.76h12.27v-23l22.9-.49v23.53h15l-.58-23.85,25.58-.55.6,24.4H823V681.51l22.68-.49L845,706.19h15V689.62l22.9-.49v17.06h15l-.43-17.37,14.32-.31V712.8H924l.16-6.61h11.55V691.36l19-.4V712.8h15l-.16-6.61h4.11l-.38-15.64,23.89-.51.56,22.76H1010v-6.61h3.94V689.68l19-.41V712.8h15l-.16-6.61h9.17V688.75l16-.35.6,24.4h12.27V688.12l22.67-.49-.61,25.17h15V696.23l22.9-.49V712.8h15l-.42-17.37,25.58-.56.44,17.93h12.27V694.6l22.9-.49V712.8h15l-.46-19,28-.6.48,19.61h12.28V692.91l28.46-.61-.5,20.5h8.73l.39,12.49,10,1.16-1-22.94,20.41,2,.69,23.26,9.41,1.1-.31-23.4,23,2.27.27,23.8,13.26,1.54-.67-24.08,21.75,2.14.66,24.47,12.46,1.44-.2-24.63,28,2.75.15,25.13,17.78,2.07-.62-25.49,29.51,2.9.6,26,21,2.43-1.81-41,34.59,2.61.88,42.25,20.34,2.36.17-43,46.89,3.54-.34,44.89,30.42,3.53-.77-46.21,51.83,3.92.7,48.31,30.76,3.57.81-49.45,80.15,6-1.18,52.67,49.16,5.71-.41-54.79,117.05,8.83,2.4,59.79,56.26,6.54ZM87.56,674.72l-128.77,1.9,3.05-70.92,125.72,6.45Zm50.37-.73-2.13-59.36,87.5,4.49L225,672.71Zm177.53-2.62-54.54.81V621.05l54.54,2.8Zm29.49-.43-1.27-45.64,48.66,2.5,1.09,42.43Zm106.52-1.56-35.37.52V629l35.37,1.81Zm49.36,1.84-29.49.58V634.57l29.49,1.37Zm16.52-.32-.71-34.22L544.48,638l.64,32.39Zm62.27-1.22-21.26.42V638.62l21.26,1Zm12.08-.23-.52-29.3,22.41,1,.47,27.82Zm52-1-19.88.39V641.67l20.29.94ZM692,660.36l-29.53-.44.62-25.3,28.91.44Zm13.85.21-.62-25.32,28,.42.62,25.32Zm64.31,1-22.9-.34V635.88l22.9.34Zm13.89.21-.62-25.32,25.6.38.62,25.32Zm61.85.93-22.9-.34V637l22.9.34Zm37,2.4-22.9-.35V639.41l22.9.34Zm131,1.95V642.55l19,.28v24.48Zm-17.34-.26-23.92-.36-.6-24.47,23.92.35Zm-60.82-.9V641.38l19,.29v24.47Zm-38.87-.58L896.26,640l15.51.24V665.5Zm160,3.22V643.19l14.89.22.62,25.32Zm51.76.78-22.9-.34V643.62l22.9.34Zm37,2.4-22.9-.35V646l22.9.34Zm14,.21-.62-25.33,25.61.39.62,25.32Zm61.77.92-22.9-.34V647.16l22.9.34Zm14,.2-.62-25.31,28,.42.62,25.32Zm70.18,1.06-28.91-.44v-25.3l29.53.44Zm16.22,9-1.29-28.33,21.07-1.57.89,29.73Zm30.81-.26-.41-30.44,23.09-1.73.37,32Zm35.46-.3-.91-32.75,21.7-1.62.92,34.18Zm35.19-.3L1423,647.1l28.16-2.1.21,37Zm44.71-.39-.93-38,29.49-2.21.92,40Zm49.16-3.43-.92-41.3,34.91-2.78L1552,678ZM1621.26,677l-47,.63.17-45.17,47.24-3.76Zm28.33-.39-.83-50.07,51.92-4.13.77,53.51Zm166.21-2.22-80.63,1.08.91-55.87,81.1-6.46Zm45.84-.62-.48-64.13,112.26-8.93,2.87,71.53Z"/><path class="cls-13" d="M672.07,606.58a8.16,8.16,0,0,1,1.4,3.38c2.71,13.2.19,22.52-8.05,28.71-8.43,6.34-19.4,7.4-33.73,3.45-13.86-3.8-27.86-11.39-41.49-23.5-13.2-11.71-21.66-24.15-24.66-37.68-3.16-14.11.7-25.62,11.13-33.59,11.36-8.68,24.41-10.84,38.23-6.5a6.75,6.75,0,0,1,3.22,1.85c.7.82,2.09,4.74,4.26,11.68s3.36,10.88,3.32,12a1.27,1.27,0,0,1-.54,1.22c-.16.12-1.75-.17-4.76-.84a38,38,0,0,0-9.61-1,18.55,18.55,0,0,0-10.51,3.53c-4.87,3.68-6.49,9-4.8,15.7,1.59,6.23,5.57,12.34,11.78,18.39s12.79,10.29,19.37,12.61c7.15,2.52,12.77,2.19,17.06-1a13.54,13.54,0,0,0,5-7.77,28.13,28.13,0,0,0,.63-7.83c-.12-2.58-.09-3.92.07-4,.31-.22.82-.19,1.54.07,1.17.44,4.86,2.21,11,5.42C668.34,604.13,671.67,606.1,672.07,606.58Z"/><path class="cls-13" d="M706.5,537.94q15.36,25,30.7,49.92c1,1.69,1.19,2.83.47,3.44a53.31,53.31,0,0,1-6.42,3.59,33.12,33.12,0,0,1-7.25,3c-1.17.25-2.36-.49-3.53-2.23q-4.12-6.07-12.27-18.34T696,559c-3.72-5.51-7.59-7.19-11.61-5-1.35.74-2.4,2.38-3.14,4.88-.8,2.74-.54,5,.74,6.73q6.19,8.55,12.4,17.08,2.42,3.31,7.35,9.94t7.35,9.94c1.24,1.71,1.47,2.9.7,3.62a69.73,69.73,0,0,1-7.4,4.76,21.36,21.36,0,0,1-5.53,2.6,3.25,3.25,0,0,1-3.41-1.39q-4.2-5.29-12.62-16t-12.61-16q-17.43-22-29.21-36.11c-2.76-3.3-5.53-6.6-8.27-9.91a115,115,0,0,0-8.94-9.38,11,11,0,0,1-1.19-1.17,1.47,1.47,0,0,1-.25-1.86,18.29,18.29,0,0,1,4.45-3.9c2.85-2,4.49-3.15,4.9-3.54,3-2.51,6-5,9.08-7.49.59-.36,1.26-.05,2,.93,1.06,1.48,2.45,3.53,4.14,6.14q3,4.56,4.15,6.15,11,15.81,17.62,24.87c.67.91,1.17,1.27,1.52,1.08a40.31,40.31,0,0,0,.89-3.95,32.36,32.36,0,0,1,2.63-7.8,15.73,15.73,0,0,1,6.47-6.91,18.1,18.1,0,0,1,14.6-1.2C698.23,528,702.8,531.92,706.5,537.94Z"/><path class="cls-13" d="M752,542.1q2.81,5.49,8.51,16.3T769,574.64c.55,1.06.46,1.83-.21,2.35a38.16,38.16,0,0,1-6.91,3.42,39.29,39.29,0,0,1-7.38,2.66,2.08,2.08,0,0,1-1.79-.41,14.62,14.62,0,0,1-1.34-2.17q-2.9-5.09-8.52-15.37c-3.77-6.84-6.6-12-8.56-15.44q-11.84-21-20-32.79c-.53-.74-.84-1.24-1-1.49a1.32,1.32,0,0,1,.65-2.14,37,37,0,0,1,4.95-1.67,47.52,47.52,0,0,0,5-1.63q1.61-.7,4.62-2.43a42.51,42.51,0,0,1,4.65-2.38c.9-.35,1.6,0,2.1,1,.11.2.3.7.62,1.47Q742.1,522.82,752,542.1Zm-27.05-56.49c4.41,8.75,2.9,14.58-4.41,17.72a12.32,12.32,0,0,1-9.61.16,17.21,17.21,0,0,1-8.81-8.06c-2.19-3.82-2.79-7.51-1.74-11.07a10.59,10.59,0,0,1,6.21-7,12.34,12.34,0,0,1,9.87.13A16.34,16.34,0,0,1,724.93,485.61Z"/><path class="cls-13" d="M797.74,508.48s-1.3-.08-3.8-.26a16.27,16.27,0,0,0-5.79.37,8.52,8.52,0,0,0-6.09,6.64c-.79,3.41-.18,7.4,1.75,12s4.57,8.16,7.66,10.23a10.65,10.65,0,0,0,9.38,1.65,9.79,9.79,0,0,0,4.41-3.3,21.61,21.61,0,0,0,2-2.56q.9-.27,5.9,9.36c3,5.88,4.79,9.83,5.51,11.83s-.7,4.28-4.18,6.88a24.42,24.42,0,0,1-6.84,3.92c-7,2.2-14.35.32-22.42-5.6S770.37,545.26,765.09,534,758,512.56,759.89,503s7.28-15.86,15.75-18.55a25.41,25.41,0,0,1,17.08.42c1.27.45,2,1,2.25,1.69s.77,4,1.63,9.82c.86,5.61,1.37,9,1.45,10.21S798.07,508.39,797.74,508.48Z"/><path class="cls-13" d="M878,491.44c2.15,12.11-.24,21.85-6.59,29.37a2.17,2.17,0,0,0-.7,1.9c.19.93,2.65,4.5,7.19,10.79s6.7,9.66,6.77,10c.26,1.49-4,2.81-12.79,4.34-3.38.59-5.5.25-6.35-1.06-2.19-3.39-5.52-8.2-10.14-14.37-.24-.28-3.44-.06-9.58.81q.68,2.49,2.24,8c1,3.65,1.8,6.36,2.27,8.13.44,1.62.21,2.6-.7,3-.56.23-3.15.86-7.73,1.93a44.9,44.9,0,0,1-7,1.37c-1-.05-1.75-1-2.38-2.94q-7.85-24.4-15.68-48.8c-2.1-6.53-5.4-16.29-9.95-29.21s-7.9-22.63-10-29.11q-.63-1.92,1-2.43c2.22-.57,5.54-1.48,10-2.66q1.73-.58,5.86-2.41a33.67,33.67,0,0,1,5.9-2.1c.68-.15,1.22.56,1.64,2.12.56,2,1.17,4.83,1.87,8.4.83,4.15,1.42,7,1.79,8.5q4.17,17.48,6.81,27c.42,1.51.77,2.26,1,2.26a10.91,10.91,0,0,0,.9-2.08c3.07-8.36,8.46-13.32,15.86-14.69,7-1.29,13,0,17.9,3.72C872.87,475.26,876.3,482.07,878,491.44Zm-21.21,9c-1.48-6.57-4.84-9.4-10-8.37-2.31.45-4.45,2.21-6.37,5.22a11.5,11.5,0,0,0-1.79,9.52c1.23,4.47,2.38,7.06,3.45,7.79.82.52,3,.38,6.46-.34C855.78,512.79,858.56,508.25,856.77,500.43Z"/><path class="cls-13" d="M944.88,494.83q.25,8.42-3.26,9.7c-.4.14-4.16.84-11.23,2.35-4.25,1-10.59,2.21-18.92,4a12.25,12.25,0,0,0,5.43,7.82,11.78,11.78,0,0,0,7.21,1.8c3.13-.22,6.19-1.72,9.23-4.55,1.28-1.4,2.56-2.8,3.87-4.19.79.53,2.21,3.3,4.17,8.35s2.92,8.28,3,9.68a4.71,4.71,0,0,1-.7,1.94c-3.94,7.42-10,11.29-18.58,11.88-8,.55-14.72-2.69-20.74-9.81s-10.44-17.23-12.42-30.22c-1.92-12.64-1-23.33,3.17-32,4.28-9,11.27-13.93,20.5-14.65,7.79-.59,14.72,2.94,20.41,10.48S944.54,484.11,944.88,494.83Zm-20-4.15a16.43,16.43,0,0,0-3.22-8.9c-1.91-2.49-4.06-3.64-6.43-3.45s-4.32,1.83-5.56,4.9a19.62,19.62,0,0,0-1.12,9.73c.18,1.49.77,2.19,1.82,2.1a76.23,76.23,0,0,0,12.76-2.92C924.33,491.76,924.93,491.28,924.88,490.68Z"/><path class="cls-13" d="M1009,539.74c-.18,1.49-.75,2.32-1.72,2.46a49.12,49.12,0,0,1-7.38-.28c-4.22-.33-6.82-.64-7.8-1s-1.4-1.57-1.26-3.52c.19-2.61.56-6.56,1-11.85s.85-9.25,1.06-11.93c.16-2.05.35-5.13.6-9.24s.44-7.16.59-9.22c.6-7.62-1.4-11.57-6-11.77-1.49-.06-3.31.81-5.37,2.63-2.24,2-3.38,4.1-3.47,6.16q-1,22.56-1.94,45.1c-.09,1.83-.65,2.84-1.7,3a52.55,52.55,0,0,1-7.23.18,38.92,38.92,0,0,1-7.66-.56c-1.05-.28-1.57-1.2-1.57-2.76q0-6.51,0-19.62t0-19.71c0-13.85-.76-24.74-2.35-32.62a7.1,7.1,0,0,1-.12-1.25,2,2,0,0,1,.89-1.85c2.52-.4,5.9-1,10.13-1.83,6.42-1.67,10.1-2.43,10.9-2.42.44,0,.72,1.9.81,5.67s.33,5.64.77,5.66c-.42,0,1.75-1.9,6.7-5.59s9.31-5.39,12.9-5.19a16.62,16.62,0,0,1,12.28,5.89c3.38,4.14,4.58,9.65,3.76,16.47q-1.6,13.28-3.2,26.57-.66,5.4-1.89,16.2C1010.11,530.74,1009.46,536.13,1009,539.74Z"/><path class="cls-13" d="M1139.5,475.06c-.23.59-.72.76-1.5.53-3-.86-7.3-2.49-13.11-4.79a107.14,107.14,0,0,0-13.31-4.51c-3.85-.93-6.15-1.24-6.9-1-1.77.57-3.27,3-4.51,7.31q-2.26,7.73.19,9.42a11.36,11.36,0,0,0,3.41,1.23c2.66.64,6.7,1.39,12.13,2.37s9.45,1.86,12.09,2.61q1.89.54-3.31,14.62-4.52,12.24-5.84,14.07c-.61.89-1.26,1.23-2,1,.47.14-.59-.38-3.18-1.51a112.71,112.71,0,0,0-17.27-5.35c-2.54-.61-4-.92-4.33-.93a3.64,3.64,0,0,0-3.81,2.86c-2.28,7.7-4.66,16.62-7.21,26.73q-3.51,13.69-3.1,12.22c-.42,1.42-1.69,2-3.81,1.73.56.08-.88-.29-4.36-1-6.12-1.32-10-2.44-11.62-3.5a2.39,2.39,0,0,1-.82-2.81q2.2-9.14,7-27.31c3.22-12.13,5.6-21.23,7.07-27.3,1.77-7.21,3.77-16.34,5.94-27.38,3.37-17.05,5.14-26.21,5.4-27.48,0-.33.12-.67.18-1a1.85,1.85,0,0,1,2.41-1.69c3.15.59,7.88,1.57,14.18,3s11,2.65,14.15,3.38c3.36.78,8.52,1.65,15.47,2.72a139.85,139.85,0,0,1,15.43,3.11c2.08.59,2.85,2,2.28,4.28-.86,2.28-2.07,5.75-3.63,10.37-.36,1.2-.94,3.53-1.76,7A64.65,64.65,0,0,1,1139.5,475.06Z"/><path class="cls-13" d="M1187.31,545q-3.25,5.82-9.28,17.51t-9.27,17.43c-1.14,2-2.29,2.86-3.45,2.54-4.08-1.23-8.57-2.88-13.56-4.9q-.88-.36,1.07-4.9c1.29-3,1.82-4.64,1.55-4.79a7.27,7.27,0,0,0-1.66.9c-6.49,4.39-11.63,5.86-15.66,4.39-6.1-2.26-9.38-8-10.15-17.53-.75-8.9.84-18.63,5.13-29.21,5-12.21,11.18-21.33,19-27.21,8.12-6.07,16.71-7.56,25.3-4.39,6,2.21,9.27,6.89,9.73,13.87,0,.31.09.5.19.55.33.14,1.35-1,3.06-3.27s2.87-3.34,3.47-3.09c1.38.56,3.74,2.17,7,4.87a52.76,52.76,0,0,1,6.43,6,1.39,1.39,0,0,1,.14,1.57c-.13.2-.48.7-1.07,1.51A263.7,263.7,0,0,0,1187.31,545Zm-16.77-6.49c2.24-4.35,3.15-8.33,2.7-11.93s-2.26-6-5.34-7.17-6.28-.65-9.5,1.53-5.83,5.52-7.86,10a21.6,21.6,0,0,0-2.1,11.9c.51,3.7,2.07,6,4.73,7.06,2.83,1.07,5.84.54,9.1-1.59A25,25,0,0,0,1170.54,538.48Z"/><path class="cls-13" d="M1243.18,561.22c-1.35,1.85-2.73,2.36-4.15,1.57-.63-.36-1.51-.93-2.63-1.73a30.4,30.4,0,0,0-2.57-1.68c-2.75-1.51-5.07-1.89-6.91-1.18s-4.06,3-6.65,6.83c-1.4,2.08-3.52,5.25-6.33,9.52s-4.92,7.43-6.34,9.51c-.94,1.4-2.31,3.53-4.06,6.38s-3.09,4.95-4,6.3c-.79,1.16-1.72,1.55-2.8,1.16a63.14,63.14,0,0,1-6.77-3.14,48.12,48.12,0,0,1-6.58-3.88c-.88-.69-.88-1.75,0-3.19,2.45-4,6.1-9.88,11-17.75s8.56-13.79,11-17.74c7.17-11.62,12.33-21.56,15.38-29.83a6.36,6.36,0,0,1,.58-1.17,2,2,0,0,1,1.71-1.1c2.17.65,5.43,1.52,9.75,2.64,6.66,1.34,10.11,2.15,10.29,2.23.64.34,0,2.08-1.84,5.24s-2.57,4.83-2.12,5.08c-.49-.25,1.8-.79,6.91-1.49s9.31-.14,12.44,1.63c2,1.12,2.54,2.26,1.72,3.39-1,1.39-2.52,3.27-4.57,5.66-2.17,2.59-3.71,4.47-4.6,5.63-1,1.39-2.31,3.22-3.94,5.51Q1244.17,559.87,1243.18,561.22Z"/><path class="cls-13" d="M1289.68,658.46c-1.57,1.4-2.85,1.85-3.79,1.33a55.33,55.33,0,0,1-6-4.76c-3.16-2.73-5-4.5-5.56-5.4s.14-2.25,2-4q3-2.88,9-8.51t9.05-8.51q11.34-10.94,16-15.74c5-5.1,5.85-9,2.58-11.6-1.44-1.15-3.71-1.43-6.79-.85a15.73,15.73,0,0,0-7.84,3.79q-2.8,2.57-15.59,15.68-2.94,3-8.8,9.25t-8.88,9.32c-1.38,1.41-2.46,1.82-3.23,1.21-4.1-3.16-8.23-6.22-12.41-9.22-.79-.56-.35-1.74,1.28-3.56q2.8-3.14,8.54-9.27t8.59-9.33q2.2-2.46,6.6-7.5c2.92-3.36,5.12-5.89,6.65-7.57,5.68-6.33,6.8-10.73,3.32-13.14-1.4-1-3.59-1.25-6.53-.81-3.22.46-5.6,1.65-7.15,3.5q-5.23,6.18-15.56,18.5t-15.5,18.43a7.46,7.46,0,0,1-2,1.93,2.35,2.35,0,0,1-1.77-.33,68.48,68.48,0,0,1-12.07-8c-.61-.51-.91-.93-.86-1.24a7.93,7.93,0,0,1,1.44-2.21q4.32-5.6,13-16.7t13-16.71c5.92-7.63,12.22-16.45,18.78-26.51a11.11,11.11,0,0,1,.87-1.32,2.43,2.43,0,0,1,2-1.17,16,16,0,0,1,5.09,1.59c2.84,1.27,4.52,2,5.08,2.25.4.12,2.15.5,5.21,1.15a14,14,0,0,1,4.83,1.68c.65.42-.33,2.22-3,5.4s-3.81,4.83-3.57,5a7.1,7.1,0,0,0,2-.19,65,65,0,0,1,12.67-1.65,18.75,18.75,0,0,1,10.55,3.43,13.37,13.37,0,0,1,5.6,8.61c.75,4-.25,8-2.94,12.18a34.68,34.68,0,0,1,14.59-2.32c5.06.28,9,1.6,11.81,3.9,4.2,3.47,6.23,7.61,6.07,12.31-.17,5.31-3.24,10.52-9,15.67q-3.6,3.19-10.94,9.49c-4.9,4.2-8.53,7.37-10.93,9.5q-4.26,3.81-12.72,11.52T1289.68,658.46Z"/><path class="cls-13" d="M733.84,499.52a126.85,126.85,0,0,0-24.52,11.68,2.53,2.53,0,0,1-2.87.13c-8.85-8.24-31.65-35.06-17.81-46.3a9.65,9.65,0,0,1,3.34-1.62c2.47.69,2.47.75,2.91-1.35.05-.25.92-.79,2.94-1.21,21.26-4.47,33.21,23.74,37.55,36.45C735.87,498.76,735.45,499,733.84,499.52Z"/><path class="cls-14" d="M694.36,470.22c1.94-.26,4-4.86,4.73-10.68.75-6.14-.28-11.32-2.31-11.55-1.86-.22-3.91,3.77-4.82,9.16-3.13-5.11-6.87-8.56-8.59-7.84s-.68,5.92,2.54,11.52l.47.78-.77-.42c-6.17-3.24-12-4.64-13-3.11s3.16,5.36,9.34,8.6C687.33,469.51,692.47,470.94,694.36,470.22Z"/><path class="cls-15" d="M786.24,378.62c-1.1-.6-1.71-1.27-1.8-2s.31-2,1.24-3.84,2.38-4.67,4.34-8.51a45.61,45.61,0,0,0,3-6.44,16.38,16.38,0,0,0,.88-3.34c.05-.67.08-1.11.08-1.28a1.49,1.49,0,0,1,.2-1.32,2.91,2.91,0,0,1,1.2-.87,22.46,22.46,0,0,1,2.12-1.65,8.8,8.8,0,0,0,2.59-2.83c.56-1.27,1.19-2.6,1.89-3.93s1.64-3,2.82-5.07,2.74-4.72,4.7-8c1.23-2.13,2.7-4.54,4.39-7.21s3.38-5.12,5-7.31a9.07,9.07,0,0,1,2.14-2,3.7,3.7,0,0,1,1.94-.73,8.78,8.78,0,0,1,4.06,1.06,15.21,15.21,0,0,1,3.61,2.59,9.12,9.12,0,0,1,2.11,2.93,6,6,0,0,1,.37,3.11c-.07,1.59-.19,3.5-.37,5.75s-.4,4.67-.65,7.22-.45,5.46-.83,8.86-.72,7-1.07,10.7-.6,7.3-.79,10.75a70.74,70.74,0,0,0,0,9,8.12,8.12,0,0,1,0,1.56,8.32,8.32,0,0,0-.09,1.18,3.43,3.43,0,0,1-2.39.5,13.36,13.36,0,0,1-3.61-.59c-1.17-.38-1.82-.83-1.94-1.37a1.73,1.73,0,0,1-.37-.45,6.48,6.48,0,0,1,0-1.79c.05-1.06.16-3,.28-5.89l.46-14-1.21.1c-.56,0-1.56.06-3,.18s-3,.3-4.71.5-3.25.42-4.67.64a21,21,0,0,0-3,.59,3.16,3.16,0,0,0-2,1.1,13.06,13.06,0,0,0-2.17,2.84,9.54,9.54,0,0,1-1.35,2.69,4.68,4.68,0,0,0-1,1.88,6.11,6.11,0,0,0-1.47,1.74,11,11,0,0,1-.84,2.69c-.56,1.43-1.22,3-2,4.76a30.76,30.76,0,0,1-2.5,4.52l-2.5,3.47Zm22.08-31.44c1.35-.25,2.51-.44,3.47-.59a15.61,15.61,0,0,1,2.54-.24c1.41-.35,2.6-.63,3.55-.82a16.61,16.61,0,0,1,2.36-.33,3,3,0,0,1,1.49.24,1.82,1.82,0,0,0,1,.63,15.55,15.55,0,0,0,.37-1.91c.19-1.15.4-2.58.65-4.29s.49-3.48.73-5.35.46-3.59.65-5.21.31-2.88.37-3.79a28.34,28.34,0,0,0-.28-4.58c-.37,0-1.07.66-2.09,2a62.12,62.12,0,0,0-3.51,5.21c-1.33,2.16-2.65,4.5-3.92,7a18.45,18.45,0,0,1-1.72,2.74c-.52.67-.94,1-1.24,1a11.9,11.9,0,0,0-1,1.41c-.53.83-1.09,1.75-1.66,2.74s-1.09,1.91-1.49,2.74S808.13,347.05,808.32,347.18Z"/><path class="cls-15" d="M850.74,326.7c-2.52.25-4.24-.07-5.13-.92a2.7,2.7,0,0,1-1-2.74,3.25,3.25,0,0,1,1.35-1.86,10.27,10.27,0,0,1,3.92-1.33c.68-.12,1.55-.28,2.64-.45s2.11-.35,3.09-.54c2-.25,3.71-.45,5-.64s2.7-.34,4.12-.45,3.2-.25,5.35-.37l6.47-.45c.2,0,.84.06,2,.18l3.6.45a15.2,15.2,0,0,1,2.87.64,7.13,7.13,0,0,1,3.41,1.65,5.43,5.43,0,0,1,1.67,2.74,2.53,2.53,0,0,1,0,1.69,2.14,2.14,0,0,1-1,1c-1.42.42-2.57.77-3.46,1.05a4.08,4.08,0,0,1-2.65,0,5.9,5.9,0,0,0-1.06-.83,6.22,6.22,0,0,0-2-.59c-1-.15-2.45-.29-4.48-.4a45,45,0,0,1-4.53.28q-1.95,0-1.95.45l-5.46.28-4.53.45-2.59.23-3.23.28A12.47,12.47,0,0,0,850.74,326.7Zm-.82,53.74a3,3,0,0,1-2.77-1.55,4.59,4.59,0,0,1-1-2.74A20.87,20.87,0,0,1,847,372c.49-1.83,1-3.68,1.66-5.58a47.33,47.33,0,0,1,1.66-4.48c.25-1,.47-1.83.7-2.61l.42-1.51a11.11,11.11,0,0,0,.88-1.91,26.2,26.2,0,0,0,1-3c.12-.48.38-1.42.79-2.78s.89-3,1.46-4.81,1.18-3.62,1.75-5.4l1.53-4.66c.43-1.34.7-2.23.84-2.65a10.35,10.35,0,0,0,1.1-2.09,13.23,13.23,0,0,0,.45-1.37,1.41,1.41,0,0,0,.65-1,8.34,8.34,0,0,0,.09-1,.9.9,0,0,1,.31-.73.83.83,0,0,0,.32-.64c.24-.19.4-.22.45-.09s.25,0,.56-.28l.46-3.11,8.22-.1c-.12.73-.31,1.64-.56,2.69a19.19,19.19,0,0,1-1.75,4.25,25.65,25.65,0,0,1-1.06,3.3,4.19,4.19,0,0,0-.51,1.91,8.72,8.72,0,0,0-.79,1.82c-.4,1.1-.86,2.44-1.38,4s-1.05,3.17-1.58,4.75-1,3-1.38,4.16-.66,1.93-.79,2.24a32.49,32.49,0,0,0-1.66,4.29c-.61,1.9-1.54,4.45-2.78,7.68a42.21,42.21,0,0,0-1.8,4.39c-.72,1.94-1.28,3.71-1.72,5.3a31.77,31.77,0,0,1-1.8,5.12,4,4,0,0,1-1.43,1.86A3.14,3.14,0,0,1,849.92,380.44Z"/><path class="cls-15" d="M902.69,379.45a1,1,0,0,1-.84.33,10.65,10.65,0,0,1-4.57-2.51,3.09,3.09,0,0,1-.42-3.56,13.09,13.09,0,0,0,1-2.78c.41-1.43.84-3.1,1.35-5l1.47-5.66c.49-1.88.93-3.55,1.3-5s.61-2.39.73-2.88a19.72,19.72,0,0,1,.42-2.92c.28-1.46.54-3.11.79-4.93a14.27,14.27,0,0,0,1.43-4.2c.28-1.52.48-2.61.6-3.29.24-1,.54-2,.87-3.11s.63-2.2.88-3.3.51-2,.79-3a10.55,10.55,0,0,0,.42-2v-1.46h-3.42a23.56,23.56,0,0,1-3.15,0c-1.17-.06-2.46-.09-3.88-.09-2.91-.12-4.83-.4-5.78-.87a3,3,0,0,1-1.61-2.69,2.51,2.51,0,0,1,.46-2,5.36,5.36,0,0,1,3-1.42,31.55,31.55,0,0,1,7.41-.37,60.63,60.63,0,0,1,6.1-.05c1.49.1,2.35.14,2.59.14a1.56,1.56,0,0,0,.46-.73,2.74,2.74,0,0,1,.28-.73,5,5,0,0,1,.14-1.06,1.26,1.26,0,0,1,.87-.87,2.59,2.59,0,0,1,2.82-1.15,4.16,4.16,0,0,1,3.1,1.7,3.11,3.11,0,0,1,.22,1.74,2,2,0,0,0,.51,1.65A3.42,3.42,0,0,1,921,317c1-.07,2.16-.13,3.33-.19,1.42,0,2.68-.05,3.8-.14s1.87-.14,2.3-.14a4.45,4.45,0,0,1,2.17-.45,19.48,19.48,0,0,1,2.73.19,3.75,3.75,0,0,1,3,1.05,16.09,16.09,0,0,1,1.16,1.51,6,6,0,0,0,0,.73,1.39,1.39,0,0,0,.42.73c.25.25.37.41.37.5a3.36,3.36,0,0,1-.37.87,2.72,2.72,0,0,1-1.29.59,8.13,8.13,0,0,1-2,.24c-.44,0-1.18,0-2.23.14s-1.94.14-2.67.14c-1.42.25-2.8.45-4.17.59s-3.11.29-5.26.4a23.13,23.13,0,0,0-2.59.14c-.81.09-1.21.3-1.21.59-.25,0-.58.64-1,1.92s-.79,2.62-1.16,4a41,41,0,0,1-1.15,4.11,12.25,12.25,0,0,1-1,2.28,1.1,1.1,0,0,1,.32.92,8.49,8.49,0,0,1-.6,1.92,13.08,13.08,0,0,1-.7,2,3.65,3.65,0,0,0-.31,1.46,46.34,46.34,0,0,0-1.21,4.93,25,25,0,0,1-.51,3.38,4,4,0,0,1-.7,1.74,4,4,0,0,0-.73,1.91,18.54,18.54,0,0,1-.32,2.69c-.21,1.25-.45,2.43-.7,3.52s-.45,1.71-.64,1.83c.61.13.52.95-.28,2.48a6.21,6.21,0,0,1-.28,1.83,4.68,4.68,0,0,0-.28,1.28c-.37,1.15-.9,2.56-1.58,4.2s-1.31,3.11-1.89,4.38A14,14,0,0,1,902.69,379.45Z"/><path class="cls-15" d="M966.08,383.55a5,5,0,0,1-1.34-.32,3.19,3.19,0,0,1-1.44-.87,3.14,3.14,0,0,1-.87-1.56,6.77,6.77,0,0,1-.23-1.74v-2.88a35.13,35.13,0,0,0-.19-3.61c0-1.77,0-3.4-.09-4.93a7.69,7.69,0,0,1,.28-3.11,7.8,7.8,0,0,1-.05-2.78,17,17,0,0,0,.22-2.33L962,357h-5a29.29,29.29,0,0,1-5.64,0l-8.69-.5-1.21,1.92c-.19.25-.52.73-1,1.46a16.6,16.6,0,0,0-1.49,3c-.32.79-.72,1.78-1.24,3s-1.09,2.36-1.67,3.51a22,22,0,0,1-1.71,2.92,14.37,14.37,0,0,1-2.64,3.89c-.77.7-1.31,1.06-1.61,1.06a7.28,7.28,0,0,1-1.3-.09,4.63,4.63,0,0,1-1.38-.73,4,4,0,0,1-2.36-2.57c-.33-1.15.1-2.61,1.35-4.39.31-.42.7-1,1.2-1.91a12.85,12.85,0,0,1,.79-1.86c.53-1.12,1.16-2.42,1.89-3.85s1.45-2.7,2.12-3.84,1.17-1.75,1.47-1.86q1.65-1.83-.28-3.47c-.44-.19-.72-.7-.84-1.56a3.15,3.15,0,0,1,.64-2.42c.56-.76,1.61-1.09,3.15-1,.62-.31,1.07-.51,1.35-.63a.61.61,0,0,0,.42-.55,4.85,4.85,0,0,1,.42-1.1c.28-.61.63-1.32,1.07-2.15s.89-1.63,1.38-2.43a23.21,23.21,0,0,1,1.38-2,23.89,23.89,0,0,1,1.58-3.42,13.09,13.09,0,0,0,.93-1.7,10.27,10.27,0,0,0,1.29-2c.56-1.05,1.14-2,1.75-3a22.37,22.37,0,0,0,2.36-2.78c.7-1,1.35-1.84,1.89-2.52a13,13,0,0,1,1.35-2.2c.58-.79,1.19-1.61,1.8-2.47a13.76,13.76,0,0,1,4.2-3.11,5,5,0,0,1,4.31-.37,9.73,9.73,0,0,1,4,3.6,13,13,0,0,1,2.11,6.54c.2,1.4.39,3,.6,4.71a9,9,0,0,1-.14,3.89c0,1.1,0,2.44-.05,4a30.63,30.63,0,0,0,.22,4.48,16.41,16.41,0,0,0-.28,3.89c.06,1.43.09,2.43.09,3s0,1.42-.09,2.6-.08,2.21-.08,3.06c-.07,2.32-.11,4.23-.14,5.76s0,3,0,4.34,0,3,0,4.8c.12,4.82-.19,8.24-1,10.28S967.5,383.37,966.08,383.55Zm-18.67-34.18a41.62,41.62,0,0,1,6.28-.37,30.53,30.53,0,0,1,5-.14,6.52,6.52,0,0,0,2.31-.05,1.23,1.23,0,0,0,1.38-.82,6.36,6.36,0,0,0,.37-2.38c-.12-1.34-.23-3-.31-5.07s-.18-4.11-.23-6.22-.07-3.92,0-5.45a38.46,38.46,0,0,0-.56-5.3c-.12-.19-.47.11-1.07.87s-1.24,1.7-2,2.79-1.42,2.17-2,3.25-1.09,1.85-1.39,2.33a20.23,20.23,0,0,0-1.38,2.38q-1,1.9-2.31,4.1a47.22,47.22,0,0,0-4.16,7.5C946.84,348.2,946.85,349.06,947.41,349.37Z"/><path class="cls-15" d="M997.68,381.91a25.11,25.11,0,0,1-6.65-1.09,27.32,27.32,0,0,1-6.1-3.21,14,14,0,0,1-.93-2.14c-.37-1-.73-2.09-1.1-3.25s-.67-2.18-.88-3.07a4.25,4.25,0,0,1-.22-1.6,1.78,1.78,0,0,0,.36-1.13,5.63,5.63,0,0,0-.08-1.06c-.25-.92-.07-2.54.55-4.84s1.6-5.21,2.91-8.68,2.9-7.31,4.76-11.52a62.07,62.07,0,0,1,4.71-8.13,94.59,94.59,0,0,1,6.42-8.46,72.22,72.22,0,0,1,6.79-7.05,23.63,23.63,0,0,1,5.63-4,8.6,8.6,0,0,1,2.87-.68,14.48,14.48,0,0,1,2.68.14,12.43,12.43,0,0,1,4.7,1.69,11.09,11.09,0,0,1,3.7,3.61,13.16,13.16,0,0,1,2,5.3,25.4,25.4,0,0,1,.28,5.66,21.24,21.24,0,0,1-.74,4.58,8,8,0,0,1-1.1,2.14,2.62,2.62,0,0,1-1.66.87,6.56,6.56,0,0,1-2.09-.4,14.43,14.43,0,0,1-2.73-1.06,4.76,4.76,0,0,1-1.75-2.29,20.24,20.24,0,0,1,.65-3.37q1.29-4.2.93-6a3.45,3.45,0,0,0-2.5-2.57c-1.35-.06-3,.76-5,2.47a58.57,58.57,0,0,0-5.83,5.85,88.71,88.71,0,0,0-7.12,9.87A73.74,73.74,0,0,0,995.92,349q-2,5.85-3.19,9.83a52.38,52.38,0,0,0-1.52,6.34c.12.79.19,1.45.23,2s-.07.78-.32.78a13.79,13.79,0,0,0,.74,2.56,6.06,6.06,0,0,0,2.31,2.74,2.43,2.43,0,0,0,1.1.59,4.07,4.07,0,0,0,1.66.14,21.46,21.46,0,0,0,3.1-.45,22.5,22.5,0,0,0,3-.87,6.45,6.45,0,0,0,1.89-1,11.08,11.08,0,0,0,2.87-.83c.56-.31,1.26-.64,2.12-1s1.82-.76,2.87-1.18a10.47,10.47,0,0,1,7.77-.92,23.66,23.66,0,0,1-.84,3.56c-.32.42-.7.94-1.15,1.51a9.64,9.64,0,0,1-1.81,1.7,13.91,13.91,0,0,1-2.78,1.55,7.5,7.5,0,0,0-1.47.59c-.68.33-1.42.75-2.22,1.23a32.79,32.79,0,0,1-5.6,2.65A24.08,24.08,0,0,1,997.68,381.91Z"/><path class="cls-15" d="M1034.94,379.9a11.09,11.09,0,0,1-2.23-1.79,2.82,2.82,0,0,1-.45-3,6.37,6.37,0,0,1,.14-2.1c.16-.67.26-1.12.31-1.37a.53.53,0,0,0,.56-.49,5,5,0,0,0,.09-.88,9.8,9.8,0,0,1,.56-2.47c.37-1.15.74-2.38,1.1-3.65.49-1.05,1-2.13,1.44-3.3a10.62,10.62,0,0,0,.7-2.1,3.46,3.46,0,0,1,.37-1.51,12.51,12.51,0,0,1,.84-1.51,11.41,11.41,0,0,0,.7-2.42,13.13,13.13,0,0,0,.22-2.06c.37-.79.77-1.64,1.21-2.56a14.47,14.47,0,0,0,1-2.83c.37-1,.93-2.57,1.67-4.62s1.5-4.09,2.31-6.17c.56-1.16,1.08-2.37,1.61-3.61s1-2.32,1.43-3.21.74-1.32.93-1.32v-1a4.94,4.94,0,0,1,.73-1.79c.49-.88,1-1.82,1.39-2.78a14.49,14.49,0,0,0,1.66-3.84,10.22,10.22,0,0,1,1.1-1.56,9.15,9.15,0,0,1,4.11-1.27c1.14,0,1.93.73,2.36,2.19a7.65,7.65,0,0,1,.65,2.78,6.23,6.23,0,0,1-.65,1.89c-.49,1.08-1.13,2.48-1.94,4.15s-1.63,3.45-2.5,5.35-1.68,3.7-2.45,5.44-1.38,3.22-1.85,4.43a9.94,9.94,0,0,0-.7,2.29l-3.89,9.41a22.86,22.86,0,0,0-1.21,3.25c-.56,1.74-1.2,3.81-1.94,6.22s-1.49,4.85-2.26,7.31-1.52,4.71-2.25,6.72c-.37,1-.72,1.89-1,2.59a6.78,6.78,0,0,1-.93,1.61,1.38,1.38,0,0,1-1.1.54,1.69,1.69,0,0,1-.84-.28A7.42,7.42,0,0,1,1034.94,379.9Zm11.26-35.1,6.76-4.93c.19-.19.72-.69,1.61-1.51s2.64-2.21,5.21-4.15l12.2-9.78a30.28,30.28,0,0,0,4.25-2.65q1.95-1.47,3.24-2.28c1-.73,2.11-1.5,3.23-2.29s1.79-1.15,2-1.1c.49-.25,1.09,0,1.75.68a9.39,9.39,0,0,1,1.72,2.47,4.3,4.3,0,0,1,.59,2.15,1.82,1.82,0,0,1-.28,1.55,8.42,8.42,0,0,1-2.39,1.75,21.94,21.94,0,0,0-3.66,1.91,4.56,4.56,0,0,0-1.52,1.37q-3.89,2.91-6.56,4.76c-2.47,1.64-4.48,3.09-6.06,4.34a15.37,15.37,0,0,0-3.1,3,1.08,1.08,0,0,0-.7.28.76.76,0,0,1-.7.18,7.28,7.28,0,0,0-1.85,1.56,4.77,4.77,0,0,1-.79,1.18,1.57,1.57,0,0,1-1.43.64c-.44.25-1.21.74-2.31,1.51s-2.26,1.6-3.47,2.52-2.24,1.74-3.09,2.47a11.15,11.15,0,0,0-1.39,1.27Zm21.46,34.91a3.9,3.9,0,0,1-2.26-.77,29.47,29.47,0,0,1-3.05-2.15c-1.08-.86-2.1-1.74-3-2.64a30,30,0,0,1-2.26-2.38c-1-1.4-2.24-3.3-3.74-5.66a28.18,28.18,0,0,1-3.38-7.5,32.31,32.31,0,0,0-1.35-4.71,9.13,9.13,0,0,1-.7-3.16l.09-5.66,6.76-.45a41.28,41.28,0,0,0,1.47,8.18,32.3,32.3,0,0,0,2.39,5.8q1.11,2.38,2.45,4.66a16.76,16.76,0,0,0,3,3.85,21.74,21.74,0,0,0,3.8,3.37,5.35,5.35,0,0,0,2.5,1.1,11.78,11.78,0,0,1,2.59,1.56,4.3,4.3,0,0,1,1.1,1.28,1.54,1.54,0,0,1,.2,1,3.39,3.39,0,0,1-.09,1.22,11.59,11.59,0,0,1-.56,1.92,2,2,0,0,1-1,1.23,2.83,2.83,0,0,1-1.66.77A6.73,6.73,0,0,1,1067.66,379.71Z"/><path class="cls-15" d="M1087.71,380.26a6.92,6.92,0,0,1-1.94-1.46,7.46,7.46,0,0,1-2.45-4,10.31,10.31,0,0,1-.14-4.71,8.94,8.94,0,0,1,2.45-3.79,4,4,0,0,1,2.87-.92,5.65,5.65,0,0,1,2.9,1.15,35.53,35.53,0,0,0-1,3.47,3.39,3.39,0,0,0,.28,2.64,4.89,4.89,0,0,0,3,1.74,21.77,21.77,0,0,0,3.19.14c.89,0,2-.07,3.18-.14a30.28,30.28,0,0,0,3.38-.45c.84-.18,1.59-.37,2.25-.54a14.06,14.06,0,0,0,4.45-2,12.65,12.65,0,0,0,3-3.07,9.62,9.62,0,0,0,1-2.33,8.54,8.54,0,0,0,.28-2.24,9.33,9.33,0,0,0-.28-2.43,18.34,18.34,0,0,0-1-2.56c-.46-1-1.19-2.43-2.17-4.25a6.21,6.21,0,0,0-1.44-2.19c-.89-1-1.77-2-2.64-3-.44-1-1-2.08-1.66-3.34a7.23,7.23,0,0,0-2.31-2.69,8.15,8.15,0,0,1-.79-1.74c-.28-.8-.51-1.22-.7-1.28a16.43,16.43,0,0,1-.73-1.55,9.54,9.54,0,0,1-.09-6.63,19.68,19.68,0,0,1,4.06-7.45,21.74,21.74,0,0,1,2.59-3.34,37.37,37.37,0,0,1,2.9-2.83,4.53,4.53,0,0,1,1.72-1.14,10.19,10.19,0,0,0,2.11-1.09,18.13,18.13,0,0,1,2-1.05,13.63,13.63,0,0,1,2.67-.78l.56-.09.37-.1c1-.31,1.91-.53,2.59-.68a8.5,8.5,0,0,1,1.94-.24c.61,0,1.35,0,2.22.1a16.75,16.75,0,0,1,6.43,3q2.25,1.86,2.45,6.72l-.74,2.56-1.57,1.74c-.2-.06-.67.13-1.44.55a9.1,9.1,0,0,1-8.19.09c-.24-.06-.33-.23-.28-.5s.32-.43.74-.49a5.77,5.77,0,0,0,.87-.83,11.11,11.11,0,0,0,1.16-1.46c.8-1.09,1-1.93.59-2.52a2.59,2.59,0,0,0-2.26-.87,19.12,19.12,0,0,0-6,1.14,13.09,13.09,0,0,0-5.26,3.7,25.23,25.23,0,0,0-2.87,4.34,7.77,7.77,0,0,0-.93,3.42,9,9,0,0,1,.23,1.86,5.92,5.92,0,0,0,.7,2.52c2,2.8,3.62,5,4.75,6.49s1.93,2.63,2.37,3.3c.12.18.21.34.28.45a.93.93,0,0,1,.08.35c.25.42.58,1.05,1,1.84s.84,1.55,1.21,2.29a4.62,4.62,0,0,1,.56,1.46,18.24,18.24,0,0,1,.92,1.91,10,10,0,0,1,.88,2.33,31.12,31.12,0,0,1,.7,3.21,18.48,18.48,0,0,1,.28,3.06,9.3,9.3,0,0,1-.56,2.78,20.54,20.54,0,0,1-1.44,3.38,9.11,9.11,0,0,1-2.17,2.78,30.48,30.48,0,0,1-3.79,2.65,41.09,41.09,0,0,1-5.46,2.83,25.25,25.25,0,0,1-5.72,1.74c-1.86.31-3.59.54-5.22.73a33.1,33.1,0,0,1-4.53.23,15.6,15.6,0,0,1-3.74-.5A6.55,6.55,0,0,1,1087.71,380.26Z"/><path class="cls-16" d="M1009.41,118.47q-23.58-23.13-61-23.13-38.05,0-61.64,23-25,24.5-25,67.43,0,40.22,22.94,67.78,24.35,29.28,63.69,29.27,38.19,0,62.67-29,23.32-27.79,23.33-68Q1034.4,143.07,1009.41,118.47ZM965.83,229.64q-7.56,12.65-17.43,12.64-10.12,0-17-12.41a48.2,48.2,0,0,1-6.15-23.81q0-31.89,23.45-31.89,24.09,0,24.09,31.66A45.54,45.54,0,0,1,965.83,229.64Z"/><path class="cls-16" d="M1229.4,101.61q-5.13,8.65-26,41.8-11.91,18.35-35.62,52.4l46.64,80.76h-59.59l-24.35-35.66q-15.89,21.65-25.24,35.66H1052.8q6.79-9.12,29.86-42.95,9-13.67,20.25-31.21-8.46-12.3-27.3-41.34-20.5-32.7-36.27-59.46h88.17q1.66,4.78,7.18,18.68a190.72,190.72,0,0,0,8.33,17.2q3.21-4.89,10.25-16.74,4.11-7.41,9.49-19.14Z"/><path class="cls-16" d="M867,103.09c-56.21-7.4-79.68-17-122.52-13.1-14.84-17.28-28.42-35.58-45.61-50.85a309.06,309.06,0,0,1-4,56.66h-.25l.09,1-.09.54h.13q4.56,53.78,5.57,84.1l3.92,89.3h71l1-39.64q9.24-.23,18.74.45,12.78,1.38,16.33,2.05,1.65-9.8,3-16.74Q817,205.15,818.27,200,791.06,202,778,201.73l1.3-22.23C814.57,160.57,839.11,139.05,867,103.09Z"/><path class="cls-17" d="M1269.18,898.64c3.87,8.09,11.2,13.72,17.84,9s11.75-11.22,9.21-19.89-10.18-12.38-18.94-9.85S1265.31,890.56,1269.18,898.64Z"/><path class="cls-17" d="M1290,984.27c2.76.5,3.51-.07,6.16-.83.81-.22.83-2.33.91-2.83,1.41-9.17.48-69.2-.85-77.39-.07-.49.27-2.93-.43-3a14.71,14.71,0,0,0-5.19.26c-.73.13-.2,2.45-.29,3.13-1.64,12.16-2.51,63.12-1.63,77.55C1288.77,982,1289.11,984.09,1290,984.27Z"/><path class="cls-18" d="M1354.05,802.07c24.19,9,35.94,43.43,6.83,37.8s-24.14-2.49-38.65,14.19-30.13-11.29-23.49-29.38S1329.86,793.11,1354.05,802.07Z"/><path class="cls-19" d="M1180.44,883.81c24.63,7,26,.89,49.15-1.27,3.87-16.47,2.4-15.06,14.26-26.11-5.11-10.91-3.73-26.62-2.79-38.79-7.33-51.86-53.37-74.73-100.2-55.07,17.9,57.36,32.78,41.28,45.28,72.42C1185,856.6,1175.53,851.41,1180.44,883.81Z"/><path class="cls-20" d="M1180.46,909.67c25.3,3.89,26-2.36,48.68-7.4,1.9-16.8.6-15.21,11.1-27.66-6.37-10.18-6.87-25.92-7.37-38.08-13.45-50.49-61.91-67.4-106.13-42.08,24.6,54.62,37.48,36.83,53.59,66.14C1181.73,882.15,1171.73,878.18,1180.46,909.67Z"/><path class="cls-13" d="M1183,954.79c41.72-3.76,85.34-2.77,126.1,5.22,6.38,1.26,11-2.43,12-6.24,17.45-67.4,49.7-272.16-32-301-5.12-1.81-16.22-2.09-17.29-.85-8.46,9.8-8.37,10.14-14.83-.42-.8-1.29-5.55-2.13-14.68.42-96.59,27-81.55,213.05-70.52,294.33C1173,955.51,1175.19,955.49,1183,954.79Z"/><path class="cls-17" d="M1228.05,904.78c3.34,7.28,9.64,12.38,15.26,8.17s10-10,7.73-17.76-8.75-11.18-16.23-9S1224.69,897.51,1228.05,904.78Z"/><path class="cls-17" d="M1235.69,991c2.7.54,3.42-.06,6-.87.79-.25.82-2.5.88-3,1.38-9.81.47-74.09-.82-82.85-.08-.51.25-3.14-.42-3.2a13.36,13.36,0,0,0-5.06.27c-.72.15-.19,2.64-.28,3.37-1.6,13-2.45,67.56-1.58,83C1234.47,988.53,1234.8,990.83,1235.69,991Z"/><path class="cls-18" d="M1227.08,870c25.7,2.67,50.06-23.12,21.17-31s-23.09-8.49-29.81-30-32.06-3.23-33.12,16S1201.37,867.29,1227.08,870Z"/><ellipse class="cls-21" cx="1307.06" cy="713.79" rx="35.99" ry="37.12"/><ellipse class="cls-22" cx="1307.5" cy="713.42" rx="31.76" ry="34.05"/><ellipse cx="1318.99" cy="718.59" rx="12.56" ry="13.43"/><ellipse class="cls-22" cx="1322.34" cy="728.31" rx="5.68" ry="6.07"/><ellipse class="cls-21" cx="1251.95" cy="722.87" rx="40.59" ry="43.5"/><ellipse class="cls-23" cx="1252.1" cy="722.2" rx="36.96" ry="38.76"/><ellipse cx="1256.19" cy="728.95" rx="16.68" ry="17.9"/><ellipse class="cls-23" cx="1261.73" cy="743.16" rx="6.94" ry="7.42"/><path d="M1280.72,748.68c-1.23,7.76,19.57,10.54,23.77,11.19s24,9.3,25.88,2.24-16.65-15.3-22.22-16.48S1282,740.91,1280.72,748.68Z"/><path d="M1281,748.73c-4.15,7.64,10.08,14.82,14.62,18.62s27.63,13.89,30,7.7-17.27-17-20.71-21S1285.17,741.09,1281,748.73Z"/><path class="cls-17" d="M1283.74,749.24c-1.37,6.54,17,9.37,20.72,10s21,8.42,22.93,2.48-14.24-13.31-19.15-14.44S1285.12,742.71,1283.74,749.24Z"/><path class="cls-17" d="M1284,749.3c-4,6.36,8.41,12.75,12.32,16.06s24,12.38,26.42,7.21-14.74-14.79-17.64-18.26S1288,742.94,1284,749.3Z"/><path class="cls-24" d="M1315,762.32c-.11.87-8.41-3.76-9.87-4.33s-10.66-3.68-10.47-4.47,8.84,2.74,10.92,3.59S1315.11,761.46,1315,762.32Z"/><path class="cls-17" d="M1232.65,981.58c2-2.94,11.82-2.2,22.81,1.85,11.59,4.28,20.06,10.61,18.91,14.16-1,3.24-9.78,3-20.14-.31,6.72,9.72,10,19,7.4,21.14s-11.13-4.2-18.67-14.52c-.36-.49-.7-1-1-1.46l.15,1.63c1,13-1,23.87-4.5,24.18s-7.18-10-8.19-23.06C1228.49,993.74,1229.93,984,1232.65,981.58Z"/><path class="cls-17" d="M1288,971.42c1.81-2.65,10.82-2,20.88,1.66,10.62,3.84,18.37,9.54,17.32,12.74-1,2.92-9,2.71-18.44-.28,6.15,8.73,9.18,17.05,6.78,19s-10.21-3.78-17.1-13.06c-.33-.45-.64-.88-1-1.33,0,.49.1,1,.14,1.48.94,11.73-.92,21.47-4.13,21.74s-6.56-9-7.5-20.73C1284.13,982.36,1285.46,973.62,1288,971.42Z"/><path class="cls-14" d="M1267.19,666.64c-4.16,1.43-14.77-7.32-24.55-20.41-10.31-13.82-15.76-27.24-12.16-30,3.3-2.5,13,4.83,22.54,16.67-1.27-15.48,1-27.72,5.38-27.84,4.63-.13,9.85,13.37,11.65,30.16.09.8.16,1.58.22,2.35l.88-1.81c7.33-14.29,16.63-23.84,20.8-21.31s1.59,16.15-5.73,30.45C1279.8,657.46,1271.86,666.34,1267.19,666.64Z"/><polygon class="cls-25" points="1584 569.87 1600.21 611.31 1606.31 602.72 1617.57 626.14 1625 615.68 1649.78 646.45 1621.4 601.82 1617.68 607.04 1608.73 590.99 1603.17 595.24 1584 569.87"/><polygon class="cls-25" points="1682.36 557 1661.19 591.4 1671.85 591.43 1661.28 612.46 1674.26 612.5 1667 647.69 1682.56 602.37 1676.07 602.35 1682.49 587 1675.53 585.06 1682.36 557"/><polygon class="cls-25" points="1763 589.87 1726.67 601.09 1733.02 608.16 1712.23 616.59 1719.96 625.21 1691.4 646.21 1731.89 623.27 1728.03 618.96 1742.43 611.95 1739.6 605.93 1763 589.87"/><rect class="cls-26" x="1661.72" y="719.11" width="12.54" height="55.31"/><rect class="cls-26" x="1625.62" y="655.22" width="85.75" height="70.57" rx="30.84"/><rect class="cls-27" x="1631.64" y="662.37" width="73.21" height="56.74" rx="28.37"/><ellipse class="cls-28" cx="1668.24" cy="690.5" rx="14.04" ry="13.35"/><polygon class="cls-29" points="1668.52 694.89 1597.09 855 1739.95 855 1668.52 694.89"/><path class="cls-17" d="M669,868.19c-3.64,7.16-10.54,12.15-16.8,7.94s-11-9.94-8.66-17.61,9.58-11,17.83-8.73S672.59,861,669,868.19Z"/><path class="cls-17" d="M649.34,944c-2.6.44-3.31-.06-5.8-.73-.76-.21-.78-2.07-.86-2.51-1.33-8.12-.45-61.3.8-68.56.07-.43-.25-2.59.4-2.65a14.42,14.42,0,0,1,4.89.23c.69.11.19,2.17.27,2.77,1.55,10.77,2.37,55.91,1.53,68.7C650.51,942,650.19,943.88,649.34,944Z"/><path class="cls-18" d="M592.69,766.7c-22.91-.74-43.53,25.07-17.58,30.46s20.82,6.38,27.61,26,28.57.84,28.76-17.24S615.6,767.46,592.69,766.7Z"/><path class="cls-19" d="M752.46,855.05c-23.17,6.22-24.49.79-46.25-1.13-3.65-14.58-2.26-13.33-13.43-23.12,4.82-9.66,3.52-23.58,2.63-34.36,6.9-45.94,50.23-66.19,94.3-48.78-16.85,50.8-30.84,36.56-42.61,64.15C748.19,831,757.08,826.35,752.46,855.05Z"/><path class="cls-20" d="M752.45,878c-23.82,3.44-24.44-2.09-45.82-6.55-1.79-14.89-.56-13.48-10.45-24.51,6-9,6.47-22.95,6.94-33.73,12.66-44.72,58.27-59.7,99.88-37.27-23.15,48.38-35.27,32.62-50.43,58.58C751.25,853.58,760.66,850.06,752.45,878Z"/><path class="cls-13" d="M750.07,917.92c-39.26-3.32-80.32-2.45-118.68,4.63-6,1.11-10.31-2.15-11.24-5.53-16.42-59.7-46.77-241.07,30.09-266.63,4.81-1.6,15.26-1.85,16.27-.75,8,8.68,7.88,9,14-.37.75-1.15,5.22-1.89,13.81.37,90.91,23.9,76.75,188.71,66.37,260.71C759.47,918.57,757.4,918.54,750.07,917.92Z"/><path class="cls-17" d="M707.66,873.63c-3.15,6.44-9.08,11-14.37,7.23S683.93,872,686,865.13s8.24-9.9,15.27-7.94S710.82,867.18,707.66,873.63Z"/><path class="cls-17" d="M700.47,950c-2.54.48-3.22-.06-5.65-.77-.75-.22-.78-2.22-.84-2.69-1.29-8.7-.44-65.63.78-73.39.07-.45-.24-2.78.39-2.83a13,13,0,0,1,4.76.24c.68.13.18,2.33.26,3,1.51,11.53,2.31,59.85,1.49,73.54C701.61,947.81,701.3,949.85,700.47,950Z"/><path class="cls-18" d="M742.49,836.87c-14.39,17.85-47.32,16.54-34.46-6.66s8.77-20-1.62-38,18-22.2,31.79-10.48S756.88,819,742.49,836.87Z"/><ellipse class="cls-21" cx="633.3" cy="704.45" rx="33.87" ry="32.88"/><ellipse class="cls-22" cx="632.88" cy="704.12" rx="29.89" ry="30.16"/><ellipse cx="622.07" cy="708.7" rx="11.82" ry="11.9"/><ellipse class="cls-22" cx="618.92" cy="717.31" rx="5.35" ry="5.38"/><ellipse class="cls-21" cx="685.17" cy="712.49" rx="38.2" ry="38.53"/><ellipse class="cls-23" cx="685.02" cy="711.9" rx="34.78" ry="34.33"/><ellipse cx="681.17" cy="717.88" rx="15.7" ry="15.86"/><ellipse class="cls-23" cx="675.96" cy="730.46" rx="6.54" ry="6.58"/><path d="M654.08,729.35c1.17,6.88-18.41,9.34-22.36,9.91s-22.6,8.24-24.36,2,15.67-13.55,20.91-14.6S652.92,722.48,654.08,729.35Z"/><path d="M653.82,729.4c3.91,6.77-9.48,13.13-13.76,16.49s-26,12.3-28.26,6.83,16.26-15.08,19.49-18.63S649.9,722.63,653.82,729.4Z"/><path class="cls-17" d="M651.24,729.85c1.3,5.79-16,8.3-19.5,8.86s-19.77,7.47-21.58,2.2,13.41-11.79,18-12.79S650,724.07,651.24,729.85Z"/><path class="cls-17" d="M651,729.9c3.74,5.63-7.92,11.3-11.6,14.23s-22.63,11-24.86,6.39,13.87-13.11,16.6-16.18S647.28,724.27,651,729.9Z"/><path class="cls-24" d="M621.85,741.44c.1.77,7.91-3.34,9.29-3.84s10-3.26,9.85-4-8.32,2.43-10.28,3.19S621.73,740.68,621.85,741.44Z"/><path class="cls-17" d="M703.32,941.66c-1.87-2.61-11.12-1.95-21.46,1.63-10.91,3.8-18.88,9.4-17.8,12.55,1,2.87,9.21,2.66,19-.28-6.33,8.61-9.44,16.8-7,18.73,2.62,2,10.48-3.72,17.58-12.87l1-1.29c-.05.48-.09,1-.14,1.45-1,11.55.94,21.14,4.24,21.41s6.75-8.87,7.7-20.42C707.25,952.43,705.89,943.82,703.32,941.66Z"/><path class="cls-17" d="M651.29,932.65c-1.71-2.34-10.19-1.76-19.66,1.47-10,3.41-17.29,8.46-16.3,11.29.9,2.58,8.44,2.4,17.36-.25-5.79,7.74-8.64,15.1-6.38,16.84s9.6-3.35,16.09-11.58c.31-.39.6-.78.89-1.17,0,.43-.1.86-.13,1.3-.88,10.39.87,19,3.88,19.27s6.18-8,7.06-18.37C654.88,942.35,653.63,934.6,651.29,932.65Z"/><path class="cls-14" d="M670.82,662.69c3.91,1.26,13.91-6.49,23.1-18.08,9.71-12.25,14.83-24.13,11.45-26.56-3.1-2.21-12.24,4.28-21.21,14.77,1.2-13.72-.95-24.55-5.07-24.66-4.36-.12-9.27,11.84-11,26.71-.09.71-.15,1.4-.21,2.08-.27-.52-.54-1.06-.83-1.6-6.89-12.66-15.65-21.12-19.57-18.88s-1.5,14.31,5.4,27C659,654.55,666.43,662.42,670.82,662.69Z"/><rect class="cls-30" x="785" y="595" width="355" height="295" rx="32.35"/><polygon class="cls-16" points="1080.13 742.95 891 848.38 891 637.51 1080.13 742.95"/><path class="cls-31" d="M378.17,750.1h0Z"/><path class="cls-32" d="M336.74,753.05h0Z"/><path class="cls-33" d="M781.31,745.31h0Z"/><path class="cls-34" d="M739.88,748.25h0Z"/><path class="cls-35" d="M1184.46,744.9h0v0Z"/><path class="cls-36" d="M1143,747.85h0v0Z"/><path class="cls-37" d="M1567.44,745.53h0v0Z"/><path class="cls-38" d="M1526,748.48h0l0,0Z"/><path class="cls-39" d="M50.92,1070.81q-1.29,5.55-2.15,11.14a185.66,185.66,0,0,0-11.11,30.13l23.85,1.84a164.91,164.91,0,0,1,4.83-22.55h0v-.11a192.58,192.58,0,0,1,24.73-52.75l-.24.29a277.67,277.67,0,0,0,26.51-37.46A169.62,169.62,0,0,1,107,1029.15h0l-.07.24a133.79,133.79,0,0,0-6.18,31.32,131.08,131.08,0,0,0,1.49,31.73l3.19-.23a135.08,135.08,0,0,0-4.27,22l19.41.41a123,123,0,0,1,4.53-37.73,134.38,134.38,0,0,1,16.83-36.67l.17-.27,0-.07c1.25-3.39,2.59-6.79,3.89-10.21a117.32,117.32,0,0,0-4.55,25.2,124.66,124.66,0,0,0,3.47,38.34l13.35-1.32a138.48,138.48,0,0,0,6.77,23.24l4.93-.73c0,.22-.05.44-.07.66l16.19.27v0l5.69.06h.88l13.49.14a91.38,91.38,0,0,1,1.82-22.92l2.06.09.42,1.37,8.61-1,6.83.28c0-.36,0-.72.06-1.09l2.88-.33q-1.23-2.85-2.34-5.72a99.59,99.59,0,0,1,4.21-18.17c1.36-4.22,3-8.44,4.68-12.65.87-2.11,1.74-4.21,2.71-6.22s2.06-4.09,3.24-6.12c4.63-8.14,10.5-16.15,16.22-24.27l1.08-1.54c.13-.19.26-.37.4-.55a201.52,201.52,0,0,1,12.81,20.42,181.56,181.56,0,0,0,17.38,35.27c.07.17.14.33.2.49l-.25,1.11-.54,2.47a138.46,138.46,0,0,0-2.71,19.91,125.3,125.3,0,0,0,.38,20.12l21.44-1.06a122.81,122.81,0,0,1-3-19c0-.24,0-.47,0-.71l1.74-.46A206.67,206.67,0,0,0,328.69,1117l17.36-7.56A226.66,226.66,0,0,1,326,1093.58l2.61-.23a111,111,0,0,1-4.45-16.43,115.76,115.76,0,0,1-1.91-16.68l-.07-2.09,0-2,.19-4.19c.14-2.83.32-5.64.6-8.44.13-1.4.29-2.8.47-4.19l.13-1c.06-.33.16-.65.23-1l.54-2.07,2.18-8.45q.62-2.47,1.19-5c2.45,6,4.41,12.1,6.31,18.24l2.25,7.27,1.16,3.64.62,1.88c.22.63.41,1.29.66,1.91L342,1062l1.7,3.62.86,1.81,1,1.86c4.12,7.75,9.09,15.26,14,22.65q-.72,5.43-1,10.91l-.91,3.91,14.29.93c.33.38.67.77,1,1.14,2.8,3.09,5.48,5.94,7.6,8.73l20.36-5.78c-1.42-1.5-2.89-2.93-4.36-4.32l19.13,1.08c.06-.82.14-1.64.23-2.46l19.06,2.68A209.4,209.4,0,0,1,454.07,1066c-.86,3.7-1.57,7.42-2.16,11.14a186.6,186.6,0,0,0-11.11,30.13l23.86,1.84a164.86,164.86,0,0,1,4.82-22.55h0v-.11a192.75,192.75,0,0,1,24.74-52.75l-.24.29a279.47,279.47,0,0,0,26.51-37.46,169.34,169.34,0,0,1-10.42,27.81h0l-.08.24a134.3,134.3,0,0,0-6.18,31.32,131.09,131.09,0,0,0,1.5,31.73l3.18-.23a134,134,0,0,0-4.26,22l19.4.41a123,123,0,0,1,4.53-37.73A134.68,134.68,0,0,1,545,1035.4l.17-.27,0-.07c1.25-3.39,2.59-6.79,3.9-10.21a116.73,116.73,0,0,0-4.56,25.2,124.36,124.36,0,0,0,3.48,38.34l13.34-1.32a138.48,138.48,0,0,0,6.77,23.24l4.93-.73c0,.22-.05.44-.06.66l16.19.27v0l5.69.06h.88l13.49.14a91.38,91.38,0,0,1,1.82-22.92l2.07.09c.13.46.27.92.41,1.38l8.62-1,6.83.28c0-.36,0-.72.06-1.08l2.88-.34q-1.25-2.85-2.35-5.72a100.42,100.42,0,0,1,4.21-18.17c1.36-4.22,3-8.44,4.69-12.65.86-2.11,1.74-4.21,2.7-6.22s2.06-4.09,3.24-6.12c4.64-8.14,10.51-16.15,16.23-24.27l1.08-1.54.39-.55A199.77,199.77,0,0,1,675,1032.33a181.28,181.28,0,0,0,17.38,35.27l.21.49-.26,1.11-.54,2.47a139.88,139.88,0,0,0-2.71,19.91,126.47,126.47,0,0,0,.38,20.12l21.44-1.06a121.59,121.59,0,0,1-3-19c0-.24,0-.47,0-.71l1.75-.46a205.63,205.63,0,0,0,22.25,21.67l17.36-7.56a226.66,226.66,0,0,1-20.09-15.85l2.61-.23a112.49,112.49,0,0,1-4.45-16.42,117.5,117.5,0,0,1-1.91-16.69l-.07-2.09,0-2,.19-4.19c.15-2.83.33-5.64.6-8.44.13-1.4.29-2.8.48-4.19l.12-1c.06-.32.16-.65.24-1l.53-2.07,2.18-8.45q.61-2.47,1.19-5c2.45,6,4.41,12.1,6.31,18.24l2.25,7.27,1.16,3.64.62,1.88c.22.63.42,1.29.67,1.91l3.39,7.21,1.7,3.62.86,1.81,1,1.86A275.33,275.33,0,0,0,763.25,1088a126.78,126.78,0,0,0-1.52,14.51l-.92,3.91,18.5,1.2c1.61,1.78,3.11,3.51,4.4,5.2l19.42-5.51,15.71.88c.07-.81.15-1.63.23-2.45l19.07,2.68a209.13,209.13,0,0,1,19.07-42.78q-1.29,5.57-2.15,11.15a186.55,186.55,0,0,0-11.12,30.12l23.86,1.85a164.59,164.59,0,0,1,4.83-22.55h0v-.11a192.77,192.77,0,0,1,24.73-52.76l-.24.3a278.3,278.3,0,0,0,26.51-37.46A169.62,169.62,0,0,1,913.25,1024h0l-.08.24a134.2,134.2,0,0,0-6.17,31.31,130.69,130.69,0,0,0,1.49,31.74l3.19-.23a134,134,0,0,0-4.27,22l19.41.4a123,123,0,0,1,4.53-37.72A134.27,134.27,0,0,1,948.17,1035l.17-.26,0-.08c1.24-3.39,2.58-6.78,3.89-10.2a117.21,117.21,0,0,0-4.55,25.2,124.66,124.66,0,0,0,3.47,38.34l13.35-1.33a137,137,0,0,0,6.77,23.24l4.92-.73-.06.67,16.19.27v0l5.69.06h.88l13.49.14a91.38,91.38,0,0,1,1.82-22.92l2.06.09c.14.45.27.91.41,1.37l8.62-1,6.83.28c0-.36,0-.73.06-1.09l2.88-.34c-.82-1.89-1.6-3.8-2.34-5.71a99.4,99.4,0,0,1,4.21-18.17c1.35-4.22,3-8.44,4.68-12.65.86-2.12,1.74-4.22,2.71-6.23s2.06-4.09,3.24-6.12c4.63-8.13,10.5-16.14,16.22-24.26l1.08-1.54.39-.56a200,200,0,0,1,12.82,20.43,181.56,181.56,0,0,0,17.38,35.27c.06.16.13.33.2.49l-.26,1.1-.53,2.48a139.9,139.9,0,0,0-2.72,19.91,125.3,125.3,0,0,0,.39,20.12l21.43-1.06a124,124,0,0,1-3-19c0-.24,0-.48,0-.71l1.75-.46a206.61,206.61,0,0,0,22.26,21.66l10.7-4.65,18.83,1.22.44-4,.06-.53v-.12a118.8,118.8,0,0,1,0-18.29c1.42,2.14,2.85,4.26,4.25,6.38l.08.15.14.21.13.18.2.25c.14.17.29.33.45.49l.34.3.33.28.25.19.25.18.19.14.21.13a76.43,76.43,0,0,0,7.49,9.38l1.08,1.18c-.21.9-.41,1.81-.6,2.71l3.21.18c1.42,1.59,2.75,3.14,3.91,4.66l13.05-3.71,1.92.11.06-.67,4.26-1.21,15,2.1a209.64,209.64,0,0,1,19.08-42.77c-.86,3.71-1.57,7.43-2.16,11.15a186.15,186.15,0,0,0-11.11,30.12l23.86,1.84a165.91,165.91,0,0,1,4.82-22.54h0v-.11a192.34,192.34,0,0,1,24.73-52.76l-.24.29a277.93,277.93,0,0,0,26.51-37.46,168.1,168.1,0,0,1-10.42,27.81v0l-.08.23a134.38,134.38,0,0,0-6.17,31.32,130.69,130.69,0,0,0,1.49,31.74l3.19-.23a134,134,0,0,0-4.27,22l19.4.4a123,123,0,0,1,4.54-37.72,134,134,0,0,1,16.83-36.68l.17-.26,0-.08c1.24-3.39,2.58-6.79,3.89-10.2a117.21,117.21,0,0,0-4.55,25.2,124.66,124.66,0,0,0,3.47,38.34l13.35-1.33a137,137,0,0,0,6.76,23.24l4.93-.73-.06.67,16.19.27v0l5.69.06.87,0h0l13.49.15a91.85,91.85,0,0,1,1.82-22.92l2.07.08c.14.46.27.92.41,1.38l8.62-1,6.83.28c0-.37,0-.73.06-1.09l2.88-.34q-1.23-2.85-2.35-5.71a101.08,101.08,0,0,1,4.21-18.17c1.36-4.22,3-8.44,4.69-12.66.86-2.11,1.74-4.21,2.71-6.22s2.06-4.09,3.23-6.12c4.64-8.13,10.51-16.14,16.23-24.26l1.08-1.54.39-.56a201.64,201.64,0,0,1,12.82,20.42,181.3,181.3,0,0,0,17.37,35.28l.21.48-.26,1.11-.53,2.48a139.9,139.9,0,0,0-2.72,19.91,126.34,126.34,0,0,0,.38,20.11l21.44-1.05a122.72,122.72,0,0,1-3-19c0-.23,0-.47,0-.71l1.75-.46q5.55,6.32,11.93,12.41c0,.43-.05.85-.07,1.28l-.92,3.91,7.14.46c1.37,1.21,2.76,2.42,4.18,3.61l6.66-2.9,2.74.18.15-1.44,7.8-3.39c-2.67-1.88-5.25-3.8-7.79-5.75a114.66,114.66,0,0,1,.42-14.23,123.3,123.3,0,0,1,3.6-20.1c.37-1.42.78-2.83,1.2-4.24l.25.52.86,1.82,1,1.86c1.34,2.52,2.77,5,4.26,7.48.05,3.78.26,7.56.68,11.33l-.26,3.57,9.23.11.24.35a131.56,131.56,0,0,0-6.38,21.3l22.08,1.24c.07-.82.15-1.64.23-2.46l.47.07c1.63,1.81,3.16,3.56,4.46,5.28l11-3.12,3.17.45c.16-.5.33-1,.49-1.49l5.73-1.62c-1.25-1.33-2.54-2.59-3.84-3.83a201.45,201.45,0,0,1,16.69-35.83q-1.29,5.57-2.15,11.14a186.65,186.65,0,0,0-11.12,30.13l23.86,1.84a164.91,164.91,0,0,1,4.83-22.55h0v-.1a192.34,192.34,0,0,1,24.73-52.76l-.24.29a277.67,277.67,0,0,0,26.51-37.46,169.28,169.28,0,0,1-10.41,27.81h0l-.08.24a134.28,134.28,0,0,0-6.17,31.32,130.58,130.58,0,0,0,1.49,31.73l3.19-.23a134.22,134.22,0,0,0-4.27,22l19.41.41a123,123,0,0,1,4.53-37.73A134.08,134.08,0,0,1,1694,1037l.17-.27,0-.07c1.24-3.39,2.58-6.79,3.89-10.21a117.32,117.32,0,0,0-4.55,25.2A124.66,124.66,0,0,0,1697,1090l13.35-1.32a138.16,138.16,0,0,0,6.76,23.24l4.93-.73-.06.66,16.19.27v0l5.69.06h.88l13.49.14a91.84,91.84,0,0,1,1.81-22.92l2.07.09c.14.46.27.92.41,1.38l8.62-1,6.83.28c0-.36,0-.72.06-1.08l2.88-.34q-1.23-2.85-2.35-5.72a100.46,100.46,0,0,1,4.22-18.17c1.35-4.22,3-8.44,4.68-12.65.86-2.11,1.74-4.21,2.71-6.22s2.06-4.09,3.24-6.12c4.63-8.14,10.5-16.15,16.22-24.26l1.08-1.55.39-.55a199.88,199.88,0,0,1,12.82,20.42,181.64,181.64,0,0,0,17.38,35.28c.06.16.13.32.2.48l-.26,1.11-.53,2.47a139.9,139.9,0,0,0-2.72,19.91,125.3,125.3,0,0,0,.39,20.12l21.43-1.06a122.6,122.6,0,0,1-3-19c0-.24,0-.47,0-.71l1.75-.46a206.67,206.67,0,0,0,22.26,21.67l17.35-7.56a225,225,0,0,1-20.08-15.85l2.61-.23a111.24,111.24,0,0,1-4.45-16.42,116.06,116.06,0,0,1-1.91-16.69l-.08-2.08,0-2.05.2-4.19c.14-2.83.32-5.64.59-8.44.14-1.4.3-2.8.48-4.19l.12-1c.07-.32.16-.65.24-1l.53-2.07,2.18-8.45q.63-2.48,1.19-5c2.46,6,4.42,12.1,6.32,18.24l2.24,7.27,1.16,3.65.62,1.87c.23.63.42,1.29.67,1.91l3.39,7.21,1.7,3.62.86,1.81,1,1.86c5,9.51,11.39,18.66,17.36,27.67,0,0,0,.1.08.14l.14.22.13.17.2.25c.14.17.29.33.45.49l.34.31.33.27.25.2.25.18.19.13.21.14a78,78,0,0,0,7.48,9.37c2.81,3.09,5.49,6,7.61,8.73l20.35-5.78c-3.08-3.28-6.45-6.25-9.48-9a74.82,74.82,0,0,1-7.92-8.15l0-.07-.14-.18-.2-.25-.14-.15,3.07-.44c-1.52-3-3.37-5.68-5-8.23a43.86,43.86,0,0,1-4-7.35l0-.07,0-.16-.09-.22c-.07-.15-.15-.29-.23-.44s-.12-.19-.19-.28l-.19-.26-.16-.18-.15-.17-.13-.12c-.22-.22-.39-.37-.52-.48-3.22-7.66-6.54-15.15-8.76-22.68l-.41-1.42-.36-1.48-.71-3-1.42-5.94c-.08-.49-.11-.95-.17-1.43l-.15-1.46-.28-3-.51-6.07c-.67-8.1-1.51-16.34-4-24.45s-5.9-16-9.21-23.87a.84.84,0,0,0-.17-.33,1.64,1.64,0,0,0-.24-.27c-.16-.15-.3-.27-.44-.38s-.27-.22-.36-.31l-.11-.1s0,0,0,.07l0-.13a45,45,0,0,0-4.29-8.08c-1.67-2.63-3.44-5.23-4.83-7.91,1,2.73,2.42,5.42,3.71,8.11a40.53,40.53,0,0,1,3.1,8.08.92.92,0,0,0,.14.37,2.12,2.12,0,0,0,.21.27c.14.15.27.28.4.4s.23.22.31.31l0,.08v0s0,0,0,0v.08c2.2,8,4.6,16,5.8,24s1,16,.49,24l-.35,6.07-.14,3-.06,1.57c0,.54,0,1.08,0,1.61l.59,6.15.3,3.08.16,1.55.23,1.59c.2,1.29.43,2.57.68,3.84l-3-4.77c-.32-.57-.55-1.12-.83-1.67l-.82-1.72-1.65-3.54-3.25-7.13c-4.33-9.5-8.91-19.14-15.32-28.41l.09-.61a106.3,106.3,0,0,0-1.12-34.38,117.9,117.9,0,0,0-4.72-16.93,110.32,110.32,0,0,1,2.38,17,104.71,104.71,0,0,1-2,27.45l-1.3-1.67c0-.28.06-.56.08-.84a119.62,119.62,0,0,0,0-19.67,128.5,128.5,0,0,0-3.22-19.53,123.7,123.7,0,0,1,.53,19.52,118.42,118.42,0,0,1-1.77,15c-3.37-4.14-6.82-8.24-10.22-12.35a1.58,1.58,0,0,0-.35-.37,2.94,2.94,0,0,0-.4-.28c-.25-.16-.48-.28-.69-.39l-.56-.31-.16-.1c-.06,0,0,0,0,.08l-.07-.15a78.63,78.63,0,0,0-8.61-9c-3.13-2.88-6.34-5.7-9.16-8.68,2.39,3.1,5.22,6.09,7.93,9.09a65.91,65.91,0,0,1,7.18,9.14,1.48,1.48,0,0,0,.34.41,2.91,2.91,0,0,0,.37.29l.63.42a5.75,5.75,0,0,1,.51.33l.1.08a.16.16,0,0,1,0-.07l0,.07,0,0s0,0,0,0l.05.1c4,6,8.06,12,11.77,18a131.35,131.35,0,0,1-5.32,17.11,184,184,0,0,1-8.57,18.66l-4.87,9.31-1.24,2.38c-.21.42-.44.83-.63,1.25l-.52,1.31c-.17.45-.34.9-.5,1.34a131.28,131.28,0,0,1-8-30.29l0-.22h0a143.39,143.39,0,0,0-11-26q-1.92-3.51-4.1-7l.57-2v0a2,2,0,0,1,.25-.24c.12-.12.27-.25.43-.42s.09-.09.13-.15a1.58,1.58,0,0,0,.15-.18l.07-.11.07-.15a.92.92,0,0,0,.08-.25c3.72-10.71,6.39-21.58,7-32.48-2.08,10.88-6.13,21.53-11.22,32h0l0,0-.1.08a132.75,132.75,0,0,0-10.8-13.8,114.62,114.62,0,0,1,9.37,15.57l-2.06,4.86q-3.59,6.16-7.8,12.2c-.6.86-1.21,1.71-1.83,2.56q-4.3-4.35-9-8.57a124.9,124.9,0,0,0,4.14-33.69,126.25,126.25,0,0,1-7.5,30.72q-6-5.19-12.6-10.12c.77-2.53,1.47-5.06,2.1-7.61a145.85,145.85,0,0,0,3.67-47.17,149.4,149.4,0,0,1-9.27,46.55,161.09,161.09,0,0,1-9.35,20.56l0-1.84a113.42,113.42,0,0,0-1.24-19.64,132.5,132.5,0,0,0-12.22-38.49,124,124,0,0,1,7.53,38.6,112,112,0,0,1-1.12,19.28l-.35,2.4-.45,2.39L1763,1000l-.55,2.38-.56,2.38-.66,2.38-.66,2.39-.59,2.45c-.13.53-.25,1.06-.37,1.59l-1.63,2.32-1.85,2.78a223.87,223.87,0,0,0-20.3,37.74,160.26,160.26,0,0,1-3.44-30l0,.25a124,124,0,0,0-1-37.48,119.53,119.53,0,0,0-13.23-36.52,110.29,110.29,0,0,1,8.18,36.68A121.31,121.31,0,0,1,1723,1023a158.13,158.13,0,0,0-1.19-42.35,152.79,152.79,0,0,0-16.3-47.26,141.1,141.1,0,0,1,9.77,47.43,158.56,158.56,0,0,1-6,47.23h0l0,.31a228.78,228.78,0,0,0-1.88,27.32c-.14-1.33-.27-2.66-.37-4a110.42,110.42,0,0,1,3.47-36.82l.07-.27v-.07c0-4.7.25-9.43.28-14.19,0-2.37,0-4.76-.13-7.14-.06-1.19-.14-2.39-.25-3.58,0-.59-.12-1.2-.19-1.81,0-.3-.06-.6-.12-.9L1710,986l-1.47-7.08-.74-3.53a34,34,0,0,0-.93-3.53,143.13,143.13,0,0,0-4.68-14,135.62,135.62,0,0,1,2.68,14.1,35.18,35.18,0,0,1,.42,3.52l.23,3.54.22,3.45c-.5,3.52-1.19,7-1.91,10.54a35.25,35.25,0,0,1-.85,3.59l-1.05,3.6-2.09,7.17-.26.89c-.09.3-.22.59-.33.88q-.33.85-.69,1.74c-.48,1.17-1,2.34-1.53,3.5-1.06,2.33-2.22,4.65-3.42,7-2.35,4.54-4.89,9.06-7.29,13.66a161.09,161.09,0,0,0-18.25,27.5,125.8,125.8,0,0,1,1.69-35.41l-.09.25a152.35,152.35,0,0,0,8.18-42q.06-1.56.09-3.12c7.75-16.29,12.93-33,14.88-49.77a162.85,162.85,0,0,1-15.19,38.42c0-.7-.1-1.4-.16-2.09a186.6,186.6,0,0,0,12.8-31.64,195.1,195.1,0,0,1-13.5,25.69,114.86,114.86,0,0,0-4.51-19.5,109.94,109.94,0,0,1,2,23.52q-4.58,7.11-9.64,14.12l-1.94,2.66c-.64.88-1.29,1.77-2,2.63l-2,2.61-2.15,2.58q-4.34,5.13-9.24,10.11c-1.59,1.67-3.3,3.31-5,5l-1,1c.59-1.2,1.16-2.4,1.73-3.6.67-1.5,1.37-3,2-4.48q1.92-4.49,3.36-9l.7-2.28.59-2.3c.21-.77.38-1.53.54-2.29l.5-2.28c2.58-12.16,4.05-24.44,3.41-36.68-.93,12.22-4,24.3-8.06,36.21l-.77,2.24c-.26.74-.53,1.48-.83,2.21l-.86,2.2-1,2.19q-2,4.37-4.41,8.66c-.78,1.43-1.65,2.86-2.49,4.28s-1.74,2.85-2.66,4.26c-1.8,2.84-3.68,5.67-5.56,8.51-2.68,4-5.36,8.1-7.89,12.22-4.81,4.45-9.57,8.94-14.12,13.56a220.62,220.62,0,0,0-18.25,21.16c-.84,1.1-1.65,2.2-2.46,3.3a121.09,121.09,0,0,1,2.3-15.57q.69-3.19,1.53-6.4c3.84-6.39,8-12.74,12.44-19,1.19-1.74,2.44-3.45,3.67-5.16l3.78-5.2c1.3-1.74,2.49-3.51,3.69-5.28s2.29-3.56,3.43-5.33a157.25,157.25,0,0,0,11.23-21.77,182.11,182.11,0,0,0,12.16-44.67A193.93,193.93,0,0,1,1621.43,981a171.9,171.9,0,0,1-13.63,20.85c-1.32,1.69-2.57,3.39-4,5-1,1.16-1.9,2.32-2.89,3.46l.91-1.92,2.19-4.62c.78-1.54,1.44-3.11,2.11-4.68s1.27-3.14,1.89-4.72a115.65,115.65,0,0,0,5.35-19.06,144.58,144.58,0,0,0,1.84-38.42,147.8,147.8,0,0,1-6.49,38,123,123,0,0,1-7.54,18.44c-.79,1.5-1.52,3-2.4,4.51s-1.67,3-2.61,4.47l-2.75,4.49c-.92,1.51-1.85,3-2.72,4.55-3.57,6.07-6.9,12.2-9.88,18.41-1.64,3.44-3.18,6.91-4.59,10.4l-1.76,2.37c-4.82,6.62-9.28,13.35-13.31,20.19a145.33,145.33,0,0,1-5.28-14.42l-.3-1,.06-.62a128.2,128.2,0,0,1,3.26-18.28c.78-3.06,1.54-6.13,2.42-9.16s1.83-6.1,2.79-9.15c1.94-6.12,3.92-12.27,5.45-18.5.76-3.11,1.39-6.24,1.87-9.38a77.16,77.16,0,0,0,.77-9.45,179.19,179.19,0,0,0-3.37-37.47,177,177,0,0,1-1.22,37.31,76.87,76.87,0,0,1-1.88,9.17q-1.27,4.56-3,9.07c-2.25,6-5,12-7.64,18-1.32,3-2.64,6-3.9,9l-.09-.84c1.9-4,3.74-8,5.41-12q2.07-5.07,3.7-10.22a87,87,0,0,0,2.5-10.35,196.5,196.5,0,0,0,2.85-41.44,202,202,0,0,1-7.88,41,91.54,91.54,0,0,1-3.68,10q-2.2,4.94-4.84,9.81l-.22.38c-.32-1.35-.66-2.7-1.07-4-2.37-8.1-5.91-16-9.21-23.87a.84.84,0,0,0-.17-.33,2.18,2.18,0,0,0-.24-.27c-.16-.15-.31-.27-.44-.38l-.36-.3-.11-.1s0,0,0,.06l0-.12a44.7,44.7,0,0,0-4.29-8.09c-1.67-2.63-3.44-5.23-4.83-7.91,1,2.73,2.42,5.42,3.71,8.11a39.88,39.88,0,0,1,3.09,8.08,1,1,0,0,0,.15.37,2.12,2.12,0,0,0,.21.27c.14.15.27.28.4.4a4,4,0,0,1,.3.32l.06.07a.43.43,0,0,1,0,0v.06l0,0s0,0,0,0v.09c2.2,8,4.6,16,5.8,24a84.39,84.39,0,0,1,.87,14.19q-2.58,4.23-5.23,8.48-2.42,3.89-4.78,7.82a165.37,165.37,0,0,0-13.84-25.18l.09-.62a106.33,106.33,0,0,0-1.12-34.38,117.42,117.42,0,0,0-4.72-16.92,111.21,111.21,0,0,1,2.38,17,104.83,104.83,0,0,1-2,27.45l-1.3-1.68c0-.28,0-.55.08-.83a120.73,120.73,0,0,0,0-19.67,128.42,128.42,0,0,0-3.22-19.54,123.86,123.86,0,0,1,.53,19.53,118,118,0,0,1-1.77,15c-3.37-4.14-6.82-8.24-10.22-12.35a1.58,1.58,0,0,0-.35-.37,2.94,2.94,0,0,0-.4-.28l-.69-.39-.56-.3-.16-.11c-.06,0,0,0,0,.08l-.08-.15a76.8,76.8,0,0,0-8.6-9c-3.13-2.88-6.34-5.71-9.16-8.69,2.39,3.1,5.22,6.09,7.93,9.09a65.91,65.91,0,0,1,7.18,9.14,1.34,1.34,0,0,0,.34.41,2.69,2.69,0,0,0,.36.29l.64.42.51.33.09.08,0-.06,0,.07,0,0s0,0,0,0l0,.1c4,6,8,12,11.77,18a132.76,132.76,0,0,1-5.32,17.1,186.17,186.17,0,0,1-8.57,18.66l-4.87,9.32-1.24,2.37c-.21.42-.44.83-.63,1.26l-.52,1.31-.51,1.34a132,132,0,0,1-8-30.3l0-.21v0a143.39,143.39,0,0,0-11-26c-1.28-2.34-2.65-4.65-4.1-6.95l.57-2v0l.24-.24.44-.42.13-.14a1.56,1.56,0,0,0,.14-.19l.08-.1.07-.15a.92.92,0,0,0,.08-.25c3.72-10.71,6.39-21.58,7-32.49-2.07,10.88-6.13,21.54-11.21,32h0l0,0-.11.09a131.4,131.4,0,0,0-10.79-13.81,114.62,114.62,0,0,1,9.37,15.57l-2.07,4.86q-3.57,6.18-7.79,12.2c-.6.86-1.21,1.71-1.83,2.57q-4.31-4.36-9-8.58a124.83,124.83,0,0,0,4.14-33.68,126.17,126.17,0,0,1-7.5,30.71q-6-5.19-12.6-10.11,1.15-3.8,2.1-7.61a146.15,146.15,0,0,0,3.67-47.17,149.13,149.13,0,0,1-9.28,46.55,160.26,160.26,0,0,1-9.34,20.56l0-1.84a115.62,115.62,0,0,0-1.24-19.65A132.44,132.44,0,0,0,1395,933.57a124.32,124.32,0,0,1,7.53,38.59,112.22,112.22,0,0,1-1.12,19.29l-.35,2.39-.45,2.4-.45,2.38-.56,2.38-.56,2.38-.66,2.39-.65,2.38-.59,2.45c-.13.53-.25,1.06-.37,1.59l-1.63,2.33-1.85,2.78A223.49,223.49,0,0,0,1373,1055a161.21,161.21,0,0,1-3.45-30l0,.25a124,124,0,0,0-1-37.48,119.35,119.35,0,0,0-13.24-36.53,109.85,109.85,0,0,1,8.18,36.69,120.89,120.89,0,0,1-3.3,33.67,158.14,158.14,0,0,0-1.19-42.35,153,153,0,0,0-16.3-47.26,141.1,141.1,0,0,1,9.77,47.43,158.56,158.56,0,0,1-6,47.23v0l0,.31a228.64,228.64,0,0,0-1.88,27.32c-.14-1.33-.28-2.66-.37-4a110.11,110.11,0,0,1,3.47-36.82l.07-.27v-.08c0-4.7.25-9.43.28-14.18,0-2.38,0-4.76-.13-7.15-.06-1.19-.14-2.38-.26-3.58,0-.59-.11-1.19-.18-1.8,0-.3-.06-.61-.12-.91l-.18-.88-1.47-7.08-.74-3.54a34.66,34.66,0,0,0-.93-3.53,145,145,0,0,0-4.68-14,133.48,133.48,0,0,1,2.67,14.1,32.69,32.69,0,0,1,.43,3.53l.22,3.53.23,3.45c-.51,3.52-1.19,7-1.91,10.54a34.81,34.81,0,0,1-.85,3.6l-1,3.59-2.09,7.17-.26.9c-.09.3-.22.58-.33.87-.22.58-.45,1.16-.7,1.74-.47,1.18-1,2.34-1.52,3.51-1.07,2.33-2.22,4.64-3.42,7-2.35,4.54-4.89,9.07-7.29,13.66a160.18,160.18,0,0,0-18.25,27.51,125.85,125.85,0,0,1,1.69-35.42l-.09.25a152.26,152.26,0,0,0,8.17-42c0-1,.08-2.08.1-3.12,7.75-16.28,12.93-33,14.88-49.77a162.68,162.68,0,0,1-15.19,38.42c0-.7-.1-1.39-.17-2.09a186.06,186.06,0,0,0,12.81-31.63,195,195,0,0,1-13.5,25.68,114.86,114.86,0,0,0-4.51-19.5,109.94,109.94,0,0,1,2,23.52c-3,4.75-6.28,9.45-9.64,14.12l-1.94,2.66c-.64.89-1.29,1.77-2,2.64l-2,2.6-2.15,2.58q-4.35,5.15-9.24,10.12c-1.6,1.67-3.3,3.31-5,5l-1.05,1c.59-1.19,1.15-2.4,1.73-3.6.67-1.49,1.36-3,2-4.48q1.92-4.49,3.36-9l.69-2.28.6-2.3c.21-.76.38-1.52.54-2.28l.49-2.29c2.58-12.16,4-24.44,3.41-36.67-.93,12.22-4,24.29-8.05,36.21l-.78,2.23c-.25.75-.52,1.49-.82,2.22l-.86,2.2-1,2.18c-1.32,2.92-2.78,5.8-4.41,8.66-.78,1.44-1.66,2.86-2.49,4.29s-1.74,2.84-2.66,4.26c-1.8,2.84-3.68,5.67-5.56,8.51-2.68,4-5.36,8.09-7.89,12.22-4.81,4.44-9.57,8.94-14.12,13.56a222.18,222.18,0,0,0-18.26,21.16c-.83,1.09-1.64,2.19-2.45,3.3a119.12,119.12,0,0,1,2.3-15.57q.69-3.21,1.53-6.4c3.84-6.4,8-12.74,12.44-19,1.18-1.73,2.44-3.44,3.67-5.16l3.78-5.2c1.3-1.73,2.49-3.51,3.68-5.27s2.3-3.56,3.44-5.34a157.25,157.25,0,0,0,11.23-21.77,182.11,182.11,0,0,0,12.16-44.67,194,194,0,0,1-17.49,43.76,171.8,171.8,0,0,1-13.63,20.84c-1.32,1.69-2.57,3.4-4,5.06-1,1.15-1.9,2.31-2.89,3.46.3-.64.6-1.28.91-1.92l2.19-4.62c.77-1.55,1.44-3.12,2.11-4.69s1.26-3.14,1.88-4.71a115,115,0,0,0,5.36-19.06,145.1,145.1,0,0,0,1.84-38.43,147.8,147.8,0,0,1-6.49,38,122.17,122.17,0,0,1-7.54,18.44c-.8,1.51-1.53,3-2.4,4.51s-1.67,3-2.61,4.47l-2.75,4.49c-.92,1.52-1.85,3-2.72,4.55-3.57,6.07-6.9,12.2-9.88,18.42q-2.48,5.16-4.59,10.39c-.59.79-1.18,1.58-1.76,2.38a242.72,242.72,0,0,0-14,21.34q-2.36,4-4.47,8.16-.48-3.54-.72-7.09a109.5,109.5,0,0,1,.36-18.28,127,127,0,0,1,3.26-18.29c.78-3.06,1.53-6.12,2.41-9.16s1.83-6.09,2.8-9.15c1.94-6.11,3.92-12.27,5.45-18.49q1.14-4.68,1.87-9.39a75.06,75.06,0,0,0,.76-9.44A178.45,178.45,0,0,0,1206,934a176.85,176.85,0,0,1-1.22,37.3,76.07,76.07,0,0,1-1.88,9.17q-1.28,4.56-3,9.08c-2.25,6-5,12-7.64,18-1.34,3-2.68,6-4,9.09s-2.42,6.11-3.59,9.17a140.57,140.57,0,0,0-5.67,18.68,114.15,114.15,0,0,0-2.32,14.16c-1.28-3.21-2.45-6.4-3.45-9.61.69-1.84,1.41-3.67,2.18-5.51,1.39-3.32,2.77-6.65,4.27-9.94s3.09-6.6,4.68-9.9c3.21-6.62,6.48-13.28,9.26-20q2.07-5.07,3.7-10.21a88,88,0,0,0,2.51-10.35,196.59,196.59,0,0,0,2.85-41.44,202,202,0,0,1-7.88,41,94.63,94.63,0,0,1-3.68,10q-2.2,4.93-4.84,9.81c-3.54,6.49-7.57,12.92-11.59,19.39-1.8,2.9-3.59,5.81-5.33,8.73l0-.56-.51-6.07c-.67-8.1-1.51-16.34-4-24.46s-5.9-16-9.21-23.86a1,1,0,0,0-.17-.34,1.54,1.54,0,0,0-.24-.26l-.44-.39a4.37,4.37,0,0,1-.36-.3l-.11-.1s0,0,0,.07l0-.13a44.7,44.7,0,0,0-4.29-8.09c-1.67-2.63-3.43-5.23-4.83-7.91,1,2.74,2.42,5.43,3.71,8.12a40.07,40.07,0,0,1,3.1,8.08.87.87,0,0,0,.14.36,2.33,2.33,0,0,0,.21.27c.14.16.28.28.4.4l.31.32,0,.07v0s0,0,0,0v.08c2.2,8,4.6,16,5.8,24s1,15.95.49,24l-.35,6.08-.14,3-.06,1.57c0,.53,0,1.08,0,1.6l.59,6.16.3,3.08.16,1.54.09.62c-.33.66-.65,1.31-1,2l-1.2-1.92c-.32-.56-.55-1.11-.83-1.67l-.82-1.71-1.65-3.54-3.25-7.13c-4.33-9.51-8.91-19.15-15.32-28.41l.09-.62a105.65,105.65,0,0,0,.84-17.22,107.11,107.11,0,0,0-2-17.16,119.5,119.5,0,0,0-4.73-16.92,110.32,110.32,0,0,1,2.38,17,104.71,104.71,0,0,1-2,27.45c-.43-.56-.86-1.12-1.3-1.67,0-.28.06-.56.08-.84a119.62,119.62,0,0,0,0-19.67,128.42,128.42,0,0,0-3.22-19.54,123.86,123.86,0,0,1,.53,19.53,118,118,0,0,1-1.77,15c-3.36-4.14-6.82-8.24-10.22-12.34a1.4,1.4,0,0,0-.35-.37,2.35,2.35,0,0,0-.4-.29l-.69-.39-.56-.3-.16-.11s0,0,0,.08l-.07-.14a77.82,77.82,0,0,0-8.61-9c-3.12-2.88-6.34-5.71-9.16-8.68,2.39,3.09,5.23,6.08,7.93,9.08a66.51,66.51,0,0,1,7.18,9.14,1.54,1.54,0,0,0,.34.42,4.22,4.22,0,0,0,.37.29c.23.16.44.29.64.41s.37.24.5.34l.1.07a.15.15,0,0,1,0-.06l0,.07,0,0,0,0,0,.1c4,6,8.06,12,11.77,18a131.21,131.21,0,0,1-5.32,17.1,185.11,185.11,0,0,1-8.57,18.67l-4.87,9.31-1.24,2.37c-.21.42-.44.83-.63,1.26l-.52,1.31c-.17.45-.34.89-.5,1.34a131.54,131.54,0,0,1-8-30.29l0-.22h0a143.48,143.48,0,0,0-11-26q-1.92-3.49-4.1-6.95l.57-2v0a2.91,2.91,0,0,1,.25-.25,5.4,5.4,0,0,0,.43-.42.89.89,0,0,0,.13-.14l.15-.18.07-.11.08-.15a1.64,1.64,0,0,0,.07-.25c3.73-10.71,6.39-21.58,7-32.49-2.07,10.88-6.13,21.54-11.22,32h0l0,0-.1.08a132.75,132.75,0,0,0-10.8-13.8,114,114,0,0,1,9.37,15.57l-2.06,4.85q-3.58,6.18-7.8,12.21c-.6.85-1.21,1.71-1.83,2.56-2.87-2.91-5.87-5.76-9-8.58a124.83,124.83,0,0,0,4.14-33.68,126.25,126.25,0,0,1-7.5,30.72q-6-5.19-12.59-10.12,1.14-3.8,2.09-7.61A145.85,145.85,0,0,0,1044,925.8a149.4,149.4,0,0,1-9.27,46.55,161.09,161.09,0,0,1-9.35,20.56l0-1.84a113.42,113.42,0,0,0-1.24-19.64A132.41,132.41,0,0,0,1012,932.94a124,124,0,0,1,7.53,38.59,112.22,112.22,0,0,1-1.12,19.29l-.35,2.4-.44,2.39-.46,2.39-.55,2.38-.56,2.38-.66,2.38-.66,2.39-.59,2.44c-.13.53-.25,1.06-.37,1.59l-1.63,2.33-1.85,2.78a223.49,223.49,0,0,0-20.3,37.74,160.26,160.26,0,0,1-3.44-30l0,.25a124,124,0,0,0-1-37.48,119.53,119.53,0,0,0-13.23-36.52,110.29,110.29,0,0,1,8.18,36.68,121.24,121.24,0,0,1-3.31,33.67A157.73,157.73,0,0,0,976,978.69a152.56,152.56,0,0,0-16.3-47.25,141,141,0,0,1,9.77,47.42,158.34,158.34,0,0,1-6,47.24h0l0,.31a226.71,226.71,0,0,0-1.87,27.32c-.15-1.33-.28-2.66-.38-4a110.42,110.42,0,0,1,3.47-36.82l.07-.27v-.08c0-4.69.25-9.42.28-14.18,0-2.38,0-4.76-.13-7.14-.06-1.2-.14-2.39-.25-3.58-.05-.6-.12-1.2-.19-1.81,0-.3-.06-.61-.12-.9l-.18-.89L962.64,977l-.73-3.54c-.21-1.17-.61-2.37-.94-3.53a145,145,0,0,0-4.68-14A135.81,135.81,0,0,1,959,970.07a35.18,35.18,0,0,1,.42,3.52l.23,3.53.22,3.46c-.5,3.52-1.19,7-1.91,10.53a34.81,34.81,0,0,1-.85,3.6l-1,3.59-2.1,7.18-.26.89c-.09.3-.22.58-.33.87-.22.58-.45,1.16-.69,1.75-.48,1.17-1,2.34-1.53,3.5-1.06,2.33-2.22,4.65-3.42,7-2.35,4.54-4.89,9.07-7.29,13.66a161.16,161.16,0,0,0-18.25,27.51,125.8,125.8,0,0,1,1.69-35.41l-.09.25a152.35,152.35,0,0,0,8.18-42c0-1,.07-2.07.09-3.11,7.75-16.29,12.93-33,14.88-49.78A162.9,162.9,0,0,1,931.74,969c-.06-.69-.11-1.39-.17-2.08a186.6,186.6,0,0,0,12.8-31.64,194.36,194.36,0,0,1-13.5,25.68,115.08,115.08,0,0,0-4.51-19.5,110,110,0,0,1,2,23.53q-4.58,7.11-9.64,14.11l-1.94,2.66c-.64.89-1.29,1.78-2,2.64l-2,2.61-2.15,2.57q-4.33,5.15-9.24,10.12c-1.59,1.67-3.3,3.31-5,5l-1,1c.59-1.2,1.16-2.41,1.73-3.61.67-1.49,1.37-3,2-4.47,1.28-3,2.4-6,3.36-9.06l.7-2.28.59-2.29c.21-.77.38-1.53.54-2.29l.5-2.28c2.58-12.17,4-24.44,3.41-36.68-.93,12.22-4,24.29-8.06,36.21l-.77,2.23c-.26.75-.53,1.49-.82,2.22l-.87,2.2-1,2.19q-2,4.37-4.41,8.66c-.78,1.43-1.65,2.85-2.49,4.28s-1.74,2.84-2.66,4.26c-1.8,2.84-3.68,5.67-5.56,8.51-2.68,4-5.35,8.1-7.88,12.22-4.82,4.44-9.58,8.94-14.13,13.56a222,222,0,0,0-18.25,21.16c-.84,1.1-1.65,2.2-2.46,3.3a120.84,120.84,0,0,1,2.3-15.57q.69-3.21,1.53-6.4c3.84-6.4,8-12.74,12.44-19,1.19-1.73,2.44-3.44,3.67-5.16l3.78-5.19c1.31-1.74,2.49-3.51,3.69-5.28s2.3-3.56,3.43-5.34a156.69,156.69,0,0,0,11.23-21.77,181.6,181.6,0,0,0,12.16-44.66A194.12,194.12,0,0,1,875.59,979,172.68,172.68,0,0,1,862,999.86c-1.32,1.68-2.57,3.39-4,5-1,1.16-1.9,2.31-2.89,3.46l.91-1.92,2.19-4.62c.78-1.55,1.44-3.12,2.11-4.68s1.27-3.15,1.89-4.72a115.65,115.65,0,0,0,5.35-19.06,144.66,144.66,0,0,0,1.84-38.43,147.8,147.8,0,0,1-6.49,38,122.17,122.17,0,0,1-7.54,18.44c-.79,1.51-1.52,3-2.4,4.51s-1.67,3-2.61,4.47l-2.75,4.49c-.92,1.52-1.85,3-2.72,4.55-3.56,6.07-6.9,12.21-9.88,18.42-1.64,3.44-3.18,6.9-4.59,10.39-.59.79-1.18,1.58-1.76,2.38a246.53,246.53,0,0,0-14,21.34c-1.56,2.7-3.06,5.42-4.47,8.16q-.48-3.54-.72-7.09a109.5,109.5,0,0,1,.36-18.28,128.58,128.58,0,0,1,3.26-18.29c.78-3.05,1.54-6.12,2.42-9.16s1.83-6.09,2.79-9.14c1.94-6.12,3.92-12.28,5.45-18.5.76-3.11,1.39-6.24,1.87-9.38a77.32,77.32,0,0,0,.77-9.45A179.19,179.19,0,0,0,823,933.32a177,177,0,0,1-1.22,37.31,76.87,76.87,0,0,1-1.88,9.17q-1.27,4.55-2.94,9.07c-2.26,6-5,12-7.65,18-1.34,3-2.68,6-3.94,9.09s-2.43,6.11-3.6,9.17a140.57,140.57,0,0,0-5.67,18.68,116.4,116.4,0,0,0-2.71,19.05,111.41,111.41,0,0,0,.54,18.7l-.26,3.57,9.6.11a137.23,137.23,0,0,0-5.18,15.91c-1.19-1.1-2.38-2.17-3.51-3.21a74.67,74.67,0,0,1-7.91-8.15l0-.07-.13-.18-.21-.25-.14-.15,3.07-.44c-1.52-3-3.36-5.68-5-8.23-.54-.85-1.05-1.69-1.54-2.51a122.26,122.26,0,0,1,3-15.17,153.35,153.35,0,0,1,6.8-19.94c1.4-3.32,2.77-6.65,4.27-9.94s3.09-6.59,4.69-9.9c3.21-6.61,6.47-13.27,9.26-20q2.07-5.07,3.7-10.22a88,88,0,0,0,2.5-10.35A197.22,197.22,0,0,0,819.79,941a202.14,202.14,0,0,1-7.89,41,90.24,90.24,0,0,1-3.68,10q-2.21,4.93-4.84,9.81c-3.54,6.5-7.57,12.92-11.59,19.39-2,3.24-4,6.49-5.95,9.77s-3.74,6.59-5.57,9.89a172.26,172.26,0,0,0-7.65,15.64c-1.06-2.79-2-5.58-2.87-8.38l-.41-1.42-.36-1.48-.7-3-1.42-5.94c-.09-.49-.12-1-.18-1.43l-.15-1.47-.28-3-.5-6.07c-.68-8.1-1.52-16.34-4-24.45s-5.91-16-9.21-23.87a.84.84,0,0,0-.17-.33,1.68,1.68,0,0,0-.24-.27c-.16-.15-.31-.27-.45-.38l-.36-.31-.1-.1s0,0,0,.07l0-.13a45.91,45.91,0,0,0-4.29-8.08c-1.68-2.63-3.44-5.23-4.83-7.91,1,2.73,2.41,5.42,3.71,8.11a39.88,39.88,0,0,1,3.09,8.08.92.92,0,0,0,.15.37,2.12,2.12,0,0,0,.21.27l.39.4.31.31.06.08a.13.13,0,0,1,0-.06v.06l0,0,0,0,0,.08c2.2,8,4.6,16,5.8,24s.95,16,.48,24l-.34,6.07-.15,3.05-.06,1.57c0,.54,0,1.08,0,1.61l.59,6.15.3,3.08.15,1.55L757,1049c.2,1.29.44,2.57.68,3.84l-3-4.77c-.31-.57-.54-1.12-.82-1.67l-.82-1.72-1.65-3.54L748.2,1034c-4.33-9.51-8.92-19.14-15.32-28.41,0-.2.06-.41.08-.61a106.68,106.68,0,0,0-1.11-34.38,117.9,117.9,0,0,0-4.72-16.93,112.81,112.81,0,0,1,2.38,17,104.65,104.65,0,0,1-.41,17,98.57,98.57,0,0,1-1.64,10.47c-.42-.56-.86-1.11-1.29-1.67,0-.28.05-.56.07-.84a119.62,119.62,0,0,0,0-19.67A128.5,128.5,0,0,0,723,956.38a126.15,126.15,0,0,1,.53,19.52,116.64,116.64,0,0,1-1.78,15c-3.36-4.14-6.81-8.24-10.21-12.35a1.81,1.81,0,0,0-.35-.37c-.15-.12-.28-.2-.4-.28s-.48-.28-.69-.39l-.56-.31-.17-.1s0,0,0,.08l-.08-.15a76.88,76.88,0,0,0-8.6-9c-3.13-2.88-6.35-5.7-9.16-8.68,2.39,3.1,5.22,6.08,7.93,9.09a66.08,66.08,0,0,1,7.18,9.14,1.47,1.47,0,0,0,.33.41c.14.12.26.21.37.29l.64.42c.19.12.37.23.5.33a.44.44,0,0,1,.1.08l0-.07,0,.07,0,0s0,0,0,0l.06.1c4,6,8.05,12,11.77,18a131.4,131.4,0,0,1-5.33,17.11,183.85,183.85,0,0,1-8.56,18.66l-4.87,9.31-1.24,2.38c-.21.42-.44.83-.63,1.25l-.52,1.31-.51,1.34a131.52,131.52,0,0,1-7.95-30.29l0-.22h0a143.44,143.44,0,0,0-11-26q-1.92-3.51-4.1-7l.58-2v0a3,3,0,0,1,.25-.24l.44-.42.13-.15a1.63,1.63,0,0,0,.14-.18l.07-.11.08-.15a.92.92,0,0,0,.08-.25c3.72-10.71,6.39-21.58,7-32.48-2.07,10.87-6.13,21.53-11.21,32h0l0,0-.11.08a132.64,132.64,0,0,0-10.79-13.8A115.65,115.65,0,0,1,671.76,983l-2.07,4.86c-2.38,4.11-5,8.18-7.79,12.2-.6.86-1.21,1.71-1.83,2.56q-4.3-4.35-9-8.57a125.3,125.3,0,0,0,4.14-33.69,126.25,126.25,0,0,1-7.5,30.72q-6-5.19-12.6-10.12c.77-2.53,1.47-5.06,2.09-7.61a145.57,145.57,0,0,0,3.67-47.17,148.83,148.83,0,0,1-9.27,46.55,159.64,159.64,0,0,1-9.34,20.56l0-1.84a114.41,114.41,0,0,0-1.23-19.64,132.41,132.41,0,0,0-12.22-38.49,124,124,0,0,1,7.52,38.6,111,111,0,0,1-1.11,19.28l-.35,2.4-.45,2.39L614,998.4l-.56,2.38-.56,2.38-.66,2.38-.65,2.39-.59,2.45c-.13.53-.25,1.06-.37,1.59l-1.63,2.32-1.85,2.78a224.66,224.66,0,0,0-20.31,37.74,162,162,0,0,1-3.44-30l0,.25a123.69,123.69,0,0,0-1-37.48,119.55,119.55,0,0,0-13.24-36.52,109.8,109.8,0,0,1,8.18,36.68,120.82,120.82,0,0,1-3.3,33.67,158.07,158.07,0,0,0-1.19-42.34,152.79,152.79,0,0,0-16.3-47.26,141.09,141.09,0,0,1,9.77,47.42,158.91,158.91,0,0,1-6,47.24h0l0,.31a228.78,228.78,0,0,0-1.88,27.32c-.14-1.33-.28-2.66-.38-4a110.42,110.42,0,0,1,3.47-36.82l.08-.27V1013c0-4.7.25-9.43.28-14.19,0-2.37,0-4.76-.13-7.14-.06-1.19-.14-2.39-.26-3.58-.05-.59-.11-1.2-.19-1.81,0-.3,0-.6-.11-.9l-.19-.89-1.47-7.08-.73-3.53c-.2-1.18-.61-2.37-.93-3.53a145.87,145.87,0,0,0-4.68-14,133,133,0,0,1,2.67,14.1,32.47,32.47,0,0,1,.42,3.52l.23,3.54.22,3.45c-.5,3.52-1.18,7-1.9,10.54-.27,1.21-.46,2.39-.85,3.59l-1.05,3.6-2.09,7.17-.27.89a9.25,9.25,0,0,1-.32.88c-.22.57-.45,1.15-.7,1.74-.48,1.17-1,2.34-1.52,3.5-1.07,2.33-2.22,4.65-3.42,7-2.36,4.55-4.89,9.07-7.29,13.67A160.5,160.5,0,0,0,519,1061a126.17,126.17,0,0,1,1.68-35.41l-.08.25a152.33,152.33,0,0,0,8.17-42q.08-1.56.09-3.12c7.75-16.29,12.94-33,14.88-49.77a162.81,162.81,0,0,1-15.18,38.42c-.05-.7-.11-1.4-.17-2.09a187.48,187.48,0,0,0,12.81-31.64,196.3,196.3,0,0,1-13.5,25.69,115.19,115.19,0,0,0-4.51-19.51,110.73,110.73,0,0,1,2,23.53c-3.05,4.74-6.28,9.45-9.65,14.11l-1.93,2.67c-.64.88-1.3,1.77-2,2.63l-2,2.61L507.47,990q-4.35,5.13-9.24,10.11c-1.6,1.67-3.3,3.31-5,5l-1,1,1.73-3.6c.66-1.5,1.36-3,2-4.48a95.21,95.21,0,0,0,3.37-9.05l.69-2.28.6-2.3c.21-.77.38-1.53.54-2.29l.49-2.28c2.58-12.16,4.05-24.44,3.41-36.68-.93,12.22-3.95,24.29-8,36.21l-.78,2.24c-.26.74-.52,1.48-.82,2.21l-.86,2.2-1,2.19c-1.32,2.91-2.78,5.8-4.41,8.66-.78,1.43-1.66,2.86-2.49,4.28s-1.75,2.85-2.66,4.26c-1.8,2.84-3.69,5.67-5.56,8.51-2.68,4-5.36,8.1-7.89,12.22-4.82,4.44-9.58,8.94-14.13,13.56a223.49,223.49,0,0,0-18.25,21.16c-.83,1.1-1.65,2.2-2.45,3.3a119.37,119.37,0,0,1,2.3-15.57c.46-2.13,1-4.27,1.53-6.4,3.84-6.39,8-12.74,12.43-19,1.19-1.74,2.44-3.45,3.68-5.16l3.78-5.2c1.3-1.74,2.48-3.51,3.68-5.28s2.3-3.56,3.44-5.33a158.35,158.35,0,0,0,11.23-21.77,182.23,182.23,0,0,0,12.16-44.67,194.4,194.4,0,0,1-17.49,43.75,171.9,171.9,0,0,1-13.63,20.85c-1.32,1.69-2.57,3.39-4,5-.95,1.16-1.9,2.32-2.88,3.46l.9-1.92,2.2-4.62c.77-1.54,1.43-3.11,2.11-4.68s1.26-3.14,1.88-4.72a115.7,115.7,0,0,0,5.36-19.06,145,145,0,0,0,1.84-38.42,147.8,147.8,0,0,1-6.49,38,122.49,122.49,0,0,1-7.54,18.43c-.8,1.51-1.53,3-2.4,4.52s-1.68,3-2.62,4.47l-2.74,4.49c-.92,1.51-1.86,3-2.73,4.55-3.56,6.07-6.89,12.2-9.87,18.41q-2.48,5.16-4.6,10.4L425.5,1041a240.62,240.62,0,0,0-14,21.35q-2.36,4.05-4.47,8.15c-.32-2.35-.57-4.72-.72-7.08a108.56,108.56,0,0,1,.36-18.29,126.81,126.81,0,0,1,3.26-18.28c.77-3.06,1.53-6.13,2.41-9.16s1.83-6.1,2.79-9.15c1.94-6.12,3.93-12.27,5.46-18.5q1.14-4.66,1.86-9.38a75.24,75.24,0,0,0,.77-9.45,179.86,179.86,0,0,0-3.36-37.47A177,177,0,0,1,418.64,971a76.87,76.87,0,0,1-1.88,9.17q-1.27,4.56-2.95,9.07c-2.25,6-4.95,12-7.64,18-1.34,3-2.68,6-3.95,9.09s-2.42,6.12-3.59,9.17a138.79,138.79,0,0,0-5.67,18.69,115.08,115.08,0,0,0-2.72,19,111.38,111.38,0,0,0,.55,18.7l-.26,3.57,9.6.11a132.62,132.62,0,0,0-6.05,19.51l-2.64-2.41a74.67,74.67,0,0,1-7.91-8.15l0-.07-.13-.18-.21-.25L383,1094l3.07-.44c-1.52-3-3.36-5.68-5-8.23q-1.06-1.66-2-3.27a124.71,124.71,0,0,1,3.46-18.81,152.77,152.77,0,0,1,6.81-19.93c1.39-3.32,2.76-6.66,4.27-9.94s3.08-6.6,4.68-9.91c3.21-6.61,6.48-13.27,9.26-20q2.07-5.07,3.7-10.22a89,89,0,0,0,2.51-10.35,197.16,197.16,0,0,0,2.85-41.44,202,202,0,0,1-7.88,41,91.61,91.61,0,0,1-3.69,10q-2.19,4.93-4.84,9.81c-3.53,6.5-7.56,12.92-11.59,19.4-2,3.24-4,6.48-5.95,9.77s-3.74,6.58-5.56,9.88a171.11,171.11,0,0,0-8.51,17.73c-.73-2-1.41-4-2-6.07l-.41-1.42-.36-1.48-.71-3-1.42-5.94c-.08-.49-.11-.95-.17-1.43l-.15-1.47-.28-3-.51-6.07c-.67-8.1-1.51-16.34-3.94-24.45s-5.91-16-9.22-23.87a.84.84,0,0,0-.16-.33,1.69,1.69,0,0,0-.25-.27,4.74,4.74,0,0,0-.44-.38l-.36-.31-.1-.1s0,0,0,.07l0-.13a45.31,45.31,0,0,0-4.3-8.08c-1.67-2.63-3.43-5.23-4.82-7.91,1,2.73,2.41,5.42,3.71,8.11a41.1,41.1,0,0,1,3.09,8.08.92.92,0,0,0,.14.37c.08.11.15.19.22.27s.27.28.39.4.23.22.31.31l.05.08v0s0,0,0,0v.08c2.2,8,4.61,16,5.8,24s1,16,.49,24l-.35,6.07-.14,3-.06,1.57c0,.54,0,1.08,0,1.61l.59,6.15.3,3.08.16,1.55.23,1.59c.2,1.29.43,2.57.68,3.84l-3-4.77c-.31-.57-.55-1.12-.83-1.68l-.82-1.71-1.64-3.54-3.26-7.13c-4.32-9.51-8.91-19.14-15.31-28.41,0-.2.06-.41.08-.62a105.65,105.65,0,0,0,.84-17.22,107,107,0,0,0-2-17.15A118,118,0,0,0,324,958.43a110.32,110.32,0,0,1,2.38,17,103.52,103.52,0,0,1-.4,17,101.2,101.2,0,0,1-1.64,10.47l-1.29-1.67c0-.28.05-.56.07-.84a120.73,120.73,0,0,0,0-19.67,129.76,129.76,0,0,0-3.22-19.53,124.91,124.91,0,0,1,.52,19.52,118.42,118.42,0,0,1-1.77,15c-3.36-4.14-6.82-8.24-10.22-12.35a1.56,1.56,0,0,0-.34-.37,2.73,2.73,0,0,0-.41-.28,7.27,7.27,0,0,0-.69-.39l-.55-.31-.17-.1c-.05,0,0,0,0,.08l-.08-.15a77,77,0,0,0-8.61-9c-3.12-2.88-6.34-5.7-9.16-8.68,2.4,3.1,5.23,6.08,7.93,9.09a66.17,66.17,0,0,1,7.19,9.14,1.47,1.47,0,0,0,.33.41,2.91,2.91,0,0,0,.37.29c.23.16.44.29.64.41s.37.24.5.34l.1.08,0-.07,0,.07s0,0,0,0,0,0,0,0l0,.1c4,6,8.06,12,11.78,18a131.4,131.4,0,0,1-5.33,17.11,185,185,0,0,1-8.57,18.66l-4.87,9.31-1.24,2.38c-.21.42-.43.83-.63,1.25l-.51,1.31c-.18.45-.34.9-.51,1.34a131,131,0,0,1-7.95-30.29l0-.22h0a143.39,143.39,0,0,0-11-26q-1.92-3.51-4.1-7l.57-2v0a2,2,0,0,1,.25-.24c.12-.12.27-.25.44-.43l.13-.14a1.63,1.63,0,0,0,.14-.18l.07-.11.08-.15a1,1,0,0,0,.07-.25c3.73-10.71,6.39-21.58,7-32.48-2.07,10.87-6.13,21.53-11.21,32h0l0,0-.1.08a132.75,132.75,0,0,0-10.8-13.8,114.71,114.71,0,0,1,9.38,15.57l-2.07,4.86q-3.58,6.17-7.79,12.2c-.6.86-1.22,1.71-1.83,2.56-2.87-2.9-5.88-5.76-9-8.57a124.91,124.91,0,0,0,4.15-33.69,126.27,126.27,0,0,1-7.51,30.72q-6-5.19-12.59-10.12c.76-2.53,1.47-5.07,2.09-7.61A145.57,145.57,0,0,0,237.74,931a149.11,149.11,0,0,1-9.27,46.55,161.09,161.09,0,0,1-9.35,20.56l0-1.84a114.41,114.41,0,0,0-1.23-19.64,132.74,132.74,0,0,0-12.23-38.49,124,124,0,0,1,7.53,38.59A113.11,113.11,0,0,1,212.13,996l-.36,2.4-.44,2.39-.46,2.39-.55,2.38-.56,2.38-.66,2.38-.66,2.39-.59,2.45-.36,1.59-1.64,2.32-1.85,2.78a223.87,223.87,0,0,0-20.3,37.74,162,162,0,0,1-3.44-30l0,.25a124,124,0,0,0-1-37.48A119.53,119.53,0,0,0,166,955.89a110,110,0,0,1,8.18,36.68,121.2,121.2,0,0,1-3.31,33.67,157.66,157.66,0,0,0-1.19-42.34,152.53,152.53,0,0,0-16.3-47.26,141.09,141.09,0,0,1,9.77,47.42,158.26,158.26,0,0,1-6,47.24h0l0,.31a228.77,228.77,0,0,0-1.87,27.32c-.15-1.33-.28-2.66-.38-4a110.42,110.42,0,0,1,3.47-36.82l.07-.27v-.07c0-4.7.26-9.43.29-14.19,0-2.37,0-4.76-.14-7.14-.06-1.19-.14-2.39-.25-3.58-.05-.59-.12-1.2-.19-1.81,0-.3-.06-.6-.12-.9l-.18-.89-1.47-7.08-.73-3.53c-.2-1.18-.61-2.37-.93-3.53a143.21,143.21,0,0,0-4.69-14,135.62,135.62,0,0,1,2.68,14.1,32.47,32.47,0,0,1,.42,3.52l.23,3.54.22,3.45c-.5,3.52-1.18,7-1.91,10.54a35.19,35.19,0,0,1-.84,3.59l-1.05,3.6-2.1,7.17-.26.89c-.09.3-.22.58-.32.88-.23.57-.45,1.15-.7,1.74-.48,1.17-1,2.34-1.53,3.5-1.06,2.33-2.21,4.65-3.42,7-2.35,4.54-4.88,9.07-7.28,13.67a159.53,159.53,0,0,0-18.25,27.5,125.79,125.79,0,0,1,1.68-35.41l-.08.25a152.7,152.7,0,0,0,8.17-42q.06-1.56.09-3.12c7.75-16.29,12.93-33,14.88-49.77a162.57,162.57,0,0,1-15.18,38.41c0-.69-.11-1.39-.17-2.08a187.48,187.48,0,0,0,12.81-31.64,196.3,196.3,0,0,1-13.5,25.69,116.16,116.16,0,0,0-4.51-19.51,110.72,110.72,0,0,1,2,23.53c-3,4.74-6.27,9.45-9.64,14.11l-1.93,2.67c-.65.88-1.3,1.77-2,2.63l-2,2.61-2.15,2.58q-4.33,5.13-9.23,10.11c-1.6,1.67-3.31,3.31-5,5l-1.05,1c.59-1.2,1.16-2.4,1.73-3.6.67-1.5,1.37-3,2-4.48a95.12,95.12,0,0,0,3.36-9l.7-2.29.59-2.29c.21-.77.38-1.53.55-2.29l.49-2.28c2.58-12.16,4-24.44,3.41-36.68-.93,12.22-3.95,24.29-8.06,36.21l-.77,2.24c-.26.74-.53,1.48-.82,2.21l-.86,2.2-1,2.19q-2,4.37-4.4,8.66c-.79,1.43-1.66,2.86-2.5,4.28s-1.74,2.85-2.66,4.26c-1.8,2.84-3.68,5.67-5.56,8.51-2.68,4-5.35,8.1-7.88,12.22-4.82,4.44-9.58,8.94-14.13,13.56A222,222,0,0,0,35,1065.57c-.84,1.1-1.65,2.2-2.45,3.3a119.37,119.37,0,0,1,2.3-15.57c.45-2.13,1-4.27,1.53-6.4,3.84-6.39,8-12.74,12.43-19,1.19-1.73,2.44-3.44,3.68-5.15l3.77-5.2c1.31-1.74,2.49-3.51,3.69-5.28s2.3-3.56,3.43-5.34a157.75,157.75,0,0,0,11.24-21.76,181.76,181.76,0,0,0,12.15-44.67A193.47,193.47,0,0,1,69.3,984.21a170.62,170.62,0,0,1-13.62,20.85c-1.33,1.69-2.58,3.39-4,5.05-.95,1.16-1.9,2.31-2.89,3.46.31-.64.61-1.28.91-1.92l2.2-4.62c.77-1.54,1.43-3.11,2.1-4.68s1.27-3.14,1.89-4.72a115.7,115.7,0,0,0,5.36-19.06,145,145,0,0,0,1.83-38.42,147,147,0,0,1-6.49,38,120.43,120.43,0,0,1-7.54,18.43c-.79,1.51-1.52,3-2.4,4.52s-1.67,3-2.61,4.46l-2.75,4.5c-.91,1.51-1.85,3-2.72,4.54-3.56,6.08-6.9,12.21-9.88,18.42q-2.46,5.16-4.59,10.39l-1.75,2.38a243,243,0,0,0-14,21.35q-2.34,4-4.47,8.15c-.32-2.35-.56-4.72-.72-7.08a109.62,109.62,0,0,1,.36-18.29,129.62,129.62,0,0,1,3.26-18.28c.78-3.06,1.54-6.13,2.42-9.16s1.83-6.1,2.79-9.15c1.94-6.12,3.92-12.27,5.46-18.5.75-3.11,1.38-6.24,1.86-9.38a75.39,75.39,0,0,0,.77-9.45,179.19,179.19,0,0,0-3.37-37.47,176.3,176.3,0,0,1-1.22,37.31A76.87,76.87,0,0,1,13.61,985c-.84,3-1.83,6.06-2.94,9.07-2.25,6-4.95,12-7.64,18-1.34,3-2.68,6-3.95,9.09s-2.42,6.12-3.59,9.17a140.3,140.3,0,0,0-5.68,18.69,116.12,116.12,0,0,0-2.71,19,112.45,112.45,0,0,0,.54,18.7l-.26,3.57,9.6.11a133,133,0,0,0-6.51,21.65l22.08,1.24q.1-1.23.24-2.46l19.06,2.68M1825.26,984.72h0l0,0v0s0,0,0,0Zm-362.85-1.34h0l0,0h0Zm-383-.63h0l0,0h0s0,0,0,0Zm-403.14.41h0l0,0v0s0,0,0,0A.07.07,0,0,1,676.28,983.16ZM273.13,988h0l0,0h0Zm-258,109.09q.71-3.08,1.57-6.14l1.79,0C17.31,1092.93,16.2,1095,15.11,1097.05ZM78.64,1035l0,0-.22.27c-1.14,1.4-2.26,2.81-3.36,4.21.21-.52.42-1,.64-1.56v0c2.94-3.28,6-6.55,9-9.83s6.31-6.82,9.39-10.28c1.56-1.72,3.06-3.47,4.59-5.2s3-3.5,4.4-5.27c2.89-3.53,5.59-7.13,8.1-10.76l1.85-2.74,1.73-2.76c.6-.93,1.14-1.85,1.67-2.77l1.6-2.76q1.78-3.12,3.49-6.24c-.08.75-.16,1.5-.25,2.25q-1.71,2.87-3.53,5.72C107.1,1003.83,93.82,1019.75,78.64,1035Zm71.73-17.74c-.11.28-.22.56-.34.84.15-.49.31-1,.45-1.49C150.44,1016.79,150.41,1017,150.37,1017.23Zm51.32,48.71c-1.23,2.33-2.28,4.62-3.31,6.9q-1.71,3.77-3.27,7.56,1-5.54,2.3-11.05a186.11,186.11,0,0,1,6.27-20.5c0,1.9,0,3.8.06,5.7q.12,3.51.4,7C203.29,1063,202.48,1064.47,201.69,1065.94Zm44.8-64.24h0l0,0v0s0,0,0,0Zm-29.75,18.73,1-1.86,1.6-2.81,1.48-2.84,1.48-2.85,1.36-2.86,1.35-2.87,1.23-2.88a152.33,152.33,0,0,0,5.52-15.09q6.39,5.73,12,11.71l-.6,1.56h0l0,0-.33.29c-.14.13-.3.26-.48.45s-.09.09-.14.16l-.15.19-.07.12-.08.17a1.24,1.24,0,0,0-.06.2l-1.89,5.68q-3.22,6.7-7.14,13.26c-1.3,2.18-2.66,4.36-4.07,6.52-.7,1.08-1.43,2.18-2.13,3.21-.33.53-.76,1-1.15,1.57l-1.18,1.58c-2.54,3.37-5.12,6.75-7.66,10.16A143.56,143.56,0,0,1,216.74,1020.43Zm26.41-20.75,0,.26A.57.57,0,0,1,243.15,999.68Zm11.25,11.19c-.74,1-1.52,2-2.26,2.94-.36.48-.8,1-1.2,1.44l-1.25,1.45c-6.71,7.79-13.7,15.6-19.63,23.85-1.5,2.06-2.88,4.15-4.23,6.26s-2.52,4.26-3.67,6.37-2.31,4.25-3.41,6.4v0c4-8.17,9.11-16.27,14-24.46l1-1.68c.32-.56.69-1.11,1-1.7.62-1.16,1.19-2.27,1.77-3.41,1.14-2.26,2.23-4.52,3.27-6.8q3.09-6.84,5.49-13.77l0-.12h0l1.18-5.9v0l.24-.26h0q3.27,3.68,6.28,7.43c.5.63,1,1.26,1.47,1.89ZM270.18,986l-.05.22h0A.46.46,0,0,1,270.18,986Zm-8.49,26.45c1.22-2,2.41-4.08,3.54-6.14q3.4-6.16,6.16-12.44c.52,1.2,1,2.41,1.49,3.62a128.54,128.54,0,0,1,6.91,25.76q0,5.94.42,11.91A232.24,232.24,0,0,0,261.69,1012.42Zm47.7,38.87-.8,4.32-.26,2.22-.22,2.18a119.55,119.55,0,0,0-.5,15.15l-.34-.39c-.72-.81-1.42-1.63-2.12-2.46l.71-4.46c.54-3.22,1.1-6.42,1.78-9.61.33-1.59.69-3.18,1.08-4.76l.27-1.08c.11-.37.26-.74.39-1.11l0,0Zm11.51-35.66c.39-1.88.74-3.77,1.05-5.65l.43.8C321.93,1012.4,321.43,1014,320.9,1015.63Zm97.35,76.62c.47-2,1-4.1,1.57-6.14l1.79,0C420.46,1088.13,419.34,1090.18,418.25,1092.25Zm63.53-62.08v0l-.23.27c-1.14,1.4-2.26,2.81-3.35,4.21l.63-1.56v0c2.94-3.27,6-6.55,9-9.83s6.31-6.82,9.4-10.28c1.56-1.72,3.06-3.47,4.58-5.2s3-3.5,4.4-5.27c2.89-3.53,5.59-7.13,8.1-10.76l1.85-2.74,1.74-2.76c.59-.93,1.13-1.85,1.66-2.77l1.6-2.76q1.79-3.11,3.49-6.24l-.24,2.25c-1.15,1.92-2.32,3.82-3.54,5.72C510.24,999,497,1015,481.78,1030.17Zm71.74-17.74c-.12.28-.23.56-.34.85.15-.5.3-1,.44-1.5C553.59,1012,553.55,1012.21,553.52,1012.43Zm51.31,48.71c-1.22,2.33-2.27,4.62-3.31,6.9q-1.71,3.76-3.27,7.56c.65-3.69,1.41-7.37,2.31-11a184.63,184.63,0,0,1,6.27-20.5q0,2.85.06,5.7.11,3.51.39,7C606.43,1058.22,605.62,1059.67,604.83,1061.14Zm44.8-64.23v0l0,0v0h0Zm-29.75,18.72,1-1.86,1.59-2.81,1.49-2.84,1.47-2.85,1.36-2.86,1.35-2.87,1.24-2.88a154.81,154.81,0,0,0,5.51-15.09q6.39,5.73,12,11.71l-.6,1.56h0l0,0-.33.29a6.22,6.22,0,0,0-.47.45,1.14,1.14,0,0,0-.14.16,1,1,0,0,0-.15.19l-.08.12-.07.17a.47.47,0,0,0-.06.2l-1.89,5.68q-3.23,6.71-7.15,13.26c-1.3,2.18-2.66,4.36-4.07,6.52-.69,1.08-1.43,2.18-2.13,3.21-.33.53-.76,1-1.14,1.57l-1.19,1.58c-2.53,3.37-5.11,6.75-7.65,10.16A143.56,143.56,0,0,1,619.88,1015.63Zm26.42-20.75,0,.26A.46.46,0,0,1,646.3,994.88Zm11.24,11.19c-.74,1-1.51,2-2.26,2.94-.35.48-.8,1-1.2,1.44l-1.24,1.45c-6.71,7.79-13.7,15.6-19.64,23.85-1.49,2.06-2.88,4.15-4.23,6.26s-2.51,4.26-3.67,6.37-2.31,4.25-3.41,6.4v0c4-8.17,9.1-16.26,14-24.46l1-1.68c.33-.56.69-1.11,1-1.7.62-1.16,1.2-2.27,1.77-3.41,1.14-2.26,2.23-4.52,3.27-6.8q3.1-6.84,5.49-13.77l0-.12h0l1.17-5.9v0a2.81,2.81,0,0,1,.25-.26h0q3.29,3.67,6.28,7.43c.5.63,1,1.26,1.47,1.89Zm15.78-24.9-.05.22h0A.46.46,0,0,1,673.32,981.17Zm-8.49,26.45c1.23-2,2.41-4.08,3.55-6.14q3.39-6.16,6.16-12.44c.51,1.2,1,2.41,1.48,3.62a128.57,128.57,0,0,1,6.92,25.76q-.06,5.94.41,11.91A232.24,232.24,0,0,0,664.83,1007.62Zm47.7,38.87-.79,4.32-.27,2.22-.22,2.18a121.5,121.5,0,0,0-.5,15.15l-.34-.38c-.71-.82-1.42-1.64-2.11-2.47l.71-4.46c.53-3.22,1.1-6.42,1.77-9.6.33-1.6.7-3.19,1.09-4.77l.26-1.08c.11-.37.27-.74.4-1.11v0ZM724,1010.83c.39-1.88.74-3.77,1.05-5.65l.44.8C725.07,1007.6,724.57,1009.21,724,1010.83Zm97.36,81c.46-2,1-4.09,1.56-6.13l1.79,0Q823,1088.74,821.4,1091.84Zm63.53-62.07h0l-.22.28q-1.71,2.1-3.36,4.21l.64-1.57h0q4.42-4.92,9-9.83c3.14-3.41,6.31-6.82,9.39-10.28,1.56-1.72,3.06-3.47,4.58-5.2s3-3.5,4.4-5.28q4.35-5.29,8.11-10.76l1.85-2.73,1.73-2.77c.59-.92,1.14-1.84,1.67-2.76l1.6-2.76q1.79-3.12,3.48-6.24-.1,1.13-.24,2.25-1.71,2.86-3.53,5.72C913.39,998.63,900.11,1014.55,884.93,1029.77ZM956.66,1012c-.11.28-.22.56-.34.84l.45-1.5C956.73,1011.59,956.7,1011.81,956.66,1012Zm51.32,48.71c-1.23,2.33-2.28,4.62-3.31,6.9q-1.71,3.77-3.28,7.56,1-5.54,2.31-11a183.34,183.34,0,0,1,6.27-20.5q0,2.85.06,5.7c.07,2.34.21,4.68.39,7Q1009.16,1058.53,1008,1060.74Zm44.79-64.24h0l0,0h0ZM1023,1015.23l1-1.86,1.59-2.81,1.49-2.85,1.48-2.84L1030,1002l1.35-2.86,1.23-2.89a154.73,154.73,0,0,0,5.52-15.08q6.38,5.72,12,11.71l-.6,1.56h0l0,0-.32.29a6,6,0,0,0-.48.45l-.14.15a1.73,1.73,0,0,0-.15.2l-.07.12-.08.17a1,1,0,0,0-.06.2l-1.89,5.68q-3.23,6.71-7.14,13.26c-1.31,2.18-2.67,4.36-4.07,6.52-.7,1.08-1.43,2.17-2.13,3.21-.34.52-.77,1-1.15,1.57l-1.18,1.58c-2.54,3.37-5.12,6.75-7.66,10.15A143.44,143.44,0,0,1,1023,1015.23Zm26.42-20.75,0,.26A.44.44,0,0,1,1049.44,994.48Zm11.25,11.19c-.74,1-1.52,2-2.26,2.94-.36.48-.81,1-1.21,1.44l-1.24,1.44c-6.71,7.8-13.7,15.61-19.63,23.86-1.5,2.05-2.88,4.15-4.23,6.26s-2.52,4.26-3.68,6.37-2.3,4.25-3.4,6.4v-.05c4-8.16,9.1-16.26,14-24.45l1-1.68c.33-.57.7-1.11,1-1.7.62-1.17,1.19-2.27,1.76-3.41q1.73-3.39,3.27-6.81,3.11-6.82,5.5-13.76l0-.12h0l1.18-5.89v0l.24-.27h0c2.18,2.45,4.28,4.93,6.27,7.43l1.48,1.89Zm15.77-24.9,0,.21h0A.45.45,0,0,1,1076.46,980.77Zm-8.49,26.45c1.23-2,2.42-4.08,3.55-6.14q3.39-6.18,6.16-12.45c.52,1.21,1,2.42,1.49,3.63a128.36,128.36,0,0,1,6.91,25.76c0,4,.1,7.93.42,11.9A234.94,234.94,0,0,0,1068,1007.22Zm47.71,38.87-.8,4.32-.26,2.22-.23,2.17a123.52,123.52,0,0,0-.5,15.15l-.33-.38c-.72-.82-1.42-1.64-2.12-2.46l.71-4.46c.53-3.22,1.1-6.42,1.77-9.61.34-1.59.7-3.18,1.09-4.76l.26-1.08c.12-.37.27-.74.4-1.11v0Zm11.51-35.67q.58-2.82,1-5.64l.44.79Q1128,1008,1127.19,1010.42Zm20.2,72.06a124.91,124.91,0,0,0-2.4,16.35c-4.44-3.39-8.7-6.87-12.74-10.45l2.61-.23a111.37,111.37,0,0,1-4.45-16.43,115.76,115.76,0,0,1-1.91-16.68l-.08-2.09,0-2,.2-4.2c.14-2.82.32-5.63.59-8.43.14-1.4.3-2.8.48-4.19l.12-.95c.07-.33.16-.66.24-1l.53-2.07,2.18-8.45q.63-2.48,1.19-5c2.46,6,4.42,12.1,6.32,18.24l2.24,7.26,1.17,3.65.61,1.87c.23.64.42,1.29.67,1.91l3.39,7.22,1.7,3.62.86,1.81,1,1.86c.19.35.39.69.57,1A139.29,139.29,0,0,0,1147.39,1082.48Zm23.81,10.91a3.48,3.48,0,0,1-.37-.75l.49.93Zm1.51,1.5-.18-.12-.13-.09h0l.2.12C1172.77,1094.91,1172.86,1095,1172.71,1094.89Zm31.67-2.42c.47-2,1-4.09,1.57-6.14l1.79,0Q1206,1089.38,1204.38,1092.47Zm63.53-62.07h0l-.23.28c-1.14,1.4-2.25,2.8-3.35,4.21.21-.52.42-1.05.64-1.57h0c2.94-3.28,6-6.55,9-9.83s6.3-6.83,9.39-10.28c1.56-1.72,3.06-3.47,4.58-5.21s3-3.49,4.4-5.27q4.35-5.29,8.1-10.76l1.86-2.73,1.73-2.77c.59-.92,1.13-1.84,1.67-2.76l1.59-2.77q1.8-3.11,3.49-6.24-.11,1.13-.24,2.25-1.71,2.88-3.54,5.73C1296.37,999.26,1283.1,1015.18,1267.91,1030.4Zm71.74-17.75c-.12.29-.23.57-.34.85.15-.5.3-1,.44-1.5C1339.72,1012.22,1339.68,1012.44,1339.65,1012.65Zm51.32,48.71c-1.23,2.34-2.28,4.63-3.31,6.91-1.14,2.5-2.24,5-3.28,7.56q1-5.53,2.31-11a184.14,184.14,0,0,1,6.27-20.51c0,1.9,0,3.8.06,5.71q.11,3.49.39,7Q1392.15,1059.17,1391,1061.36Zm44.79-64.23h0l0,0h0s0,0,0,0ZM1406,1015.85l1-1.85,1.59-2.81,1.49-2.85,1.48-2.84,1.36-2.87,1.34-2.87,1.24-2.88a154.9,154.9,0,0,0,5.52-15.09q6.38,5.73,12,11.71-.29.78-.6,1.56h0l0,0-.33.29c-.14.12-.29.26-.47.44l-.14.16a1.73,1.73,0,0,0-.15.2l-.08.12-.07.16a.76.76,0,0,0-.06.21l-1.89,5.68q-3.23,6.69-7.14,13.25c-1.31,2.19-2.67,4.36-4.07,6.53-.7,1.07-1.43,2.17-2.13,3.21-.34.52-.77,1-1.15,1.57l-1.18,1.58c-2.54,3.37-5.12,6.75-7.66,10.15A143.57,143.57,0,0,1,1406,1015.85Zm26.42-20.74,0,.25A.4.4,0,0,1,1432.43,995.11Zm11.25,11.18c-.75,1-1.52,2-2.26,3-.36.48-.81,1-1.21,1.44l-1.24,1.44c-6.71,7.79-13.7,15.61-19.63,23.85-1.5,2.06-2.88,4.15-4.23,6.27s-2.52,4.26-3.68,6.36-2.31,4.26-3.4,6.41v0c4-8.16,9.1-16.26,14-24.45l1-1.68c.33-.57.69-1.12,1-1.7.62-1.17,1.19-2.28,1.76-3.41,1.14-2.26,2.24-4.53,3.27-6.81q3.11-6.82,5.5-13.76l0-.12h0l1.17-5.89v0c0-.07.14-.16.24-.27h0q3.27,3.69,6.27,7.44c.5.63,1,1.26,1.47,1.89Zm15.77-24.89,0,.21h0A.42.42,0,0,1,1459.45,981.4Zm-8.49,26.45c1.23-2,2.42-4.09,3.55-6.14q3.39-6.18,6.16-12.45c.52,1.21,1,2.41,1.48,3.62a127.82,127.82,0,0,1,6.92,25.77c0,4,.1,7.93.42,11.9A234.94,234.94,0,0,0,1451,1007.85Zm47.71,38.87-.8,4.31-.26,2.22-.23,2.18a121.5,121.5,0,0,0-.5,15.15l-.34-.38-2.11-2.46.71-4.46c.53-3.22,1.1-6.43,1.77-9.61.34-1.59.7-3.18,1.09-4.76l.26-1.09c.11-.36.27-.73.4-1.1v0Zm12.89.62c.15-2.83.33-5.64.6-8.44.14-1.39.3-2.79.48-4.18l.12-1c.06-.32.16-.65.24-1l.53-2.06,2.18-8.45c.42-1.66.82-3.31,1.19-5,2.45,6,4.42,12.11,6.31,18.25l2.25,7.26.24.76a171.12,171.12,0,0,0-9.12,19.45c-1.2,3-2.26,6.07-3.22,9.13a116,116,0,0,1-1.87-16.47l-.08-2.09,0-2Zm-.34-41.94.44.8q-.69,2.43-1.48,4.85Q1510.77,1008.23,1511.22,1005.4Zm27.55,38.46c1-2.44,2-4.88,3.13-7.31v.25l.59,6.15,0,.46c-.19.8-.41,1.59-.59,2.4-.24,1-.45,2-.66,3.08l-.4-.65c-.32-.56-.55-1.11-.83-1.67l-.82-1.72Zm92-12.13v0l-.23.28c-1.13,1.39-2.25,2.8-3.35,4.21.21-.53.42-1,.64-1.57v0c2.94-3.27,6-6.55,9-9.83s6.31-6.82,9.39-10.28c1.56-1.72,3.06-3.47,4.58-5.2s3-3.5,4.4-5.27c2.9-3.53,5.6-7.13,8.1-10.76l1.86-2.74,1.73-2.76c.59-.92,1.14-1.85,1.67-2.77l1.6-2.76q1.78-3.1,3.48-6.24-.11,1.13-.24,2.25c-1.14,1.92-2.32,3.82-3.53,5.72C1659.23,1000.59,1646,1016.51,1630.76,1031.73ZM1702.5,1014c-.11.28-.23.56-.34.85l.45-1.5C1702.57,1013.56,1702.54,1013.77,1702.5,1014Zm51.32,48.71c-1.23,2.34-2.28,4.62-3.31,6.9-1.14,2.51-2.24,5-3.28,7.56q1-5.54,2.31-11.05a184.63,184.63,0,0,1,6.27-20.5q0,2.85.06,5.7c.07,2.34.21,4.68.39,7C1755.42,1059.78,1754.61,1061.23,1753.82,1062.7Zm44.79-64.23v0a.05.05,0,0,1,0,0v0h0Zm-29.75,18.72,1.05-1.86,1.59-2.81,1.49-2.84,1.48-2.85,1.36-2.86,1.35-2.87,1.23-2.88a154.9,154.9,0,0,0,5.52-15.09q6.38,5.73,12,11.71c-.19.52-.39,1-.59,1.56h0l0,0-.32.29c-.14.13-.3.26-.48.45s-.09.09-.14.16a.86.86,0,0,0-.15.2l-.07.11-.08.17a.68.68,0,0,0-.06.2l-1.89,5.69q-3.22,6.69-7.14,13.25c-1.31,2.18-2.67,4.36-4.07,6.52-.7,1.08-1.43,2.18-2.13,3.21-.34.53-.77,1-1.15,1.57l-1.18,1.58c-2.54,3.37-5.12,6.75-7.66,10.16A143.57,143.57,0,0,1,1768.86,1017.19Zm26.42-20.75,0,.26A.46.46,0,0,1,1795.28,996.44Zm11.25,11.19c-.74,1-1.52,2-2.26,2.94-.36.48-.81,1-1.21,1.44l-1.24,1.45c-6.71,7.79-13.7,15.6-19.63,23.85-1.5,2.06-2.88,4.15-4.23,6.26s-2.52,4.26-3.68,6.37-2.3,4.26-3.4,6.4v0c4-8.17,9.1-16.26,14-24.46l1-1.68c.33-.56.7-1.11,1-1.69.62-1.17,1.19-2.28,1.76-3.41q1.72-3.39,3.27-6.81,3.1-6.84,5.5-13.77l0-.12h0l1.18-5.9v0l.24-.26h0c2.18,2.46,4.28,4.93,6.27,7.43.5.63,1,1.26,1.47,1.89Zm15.77-24.9,0,.22h0A.48.48,0,0,1,1822.3,982.73Zm-8.49,26.45c1.23-2,2.42-4.08,3.55-6.14q3.39-6.16,6.16-12.44c.52,1.2,1,2.41,1.49,3.62a128.54,128.54,0,0,1,6.91,25.76c0,4,.1,7.93.42,11.91A233.83,233.83,0,0,0,1813.81,1009.18Zm47.71,38.87-.8,4.32-.26,2.22-.23,2.18a123.45,123.45,0,0,0-.5,15.15l-.33-.38c-.72-.82-1.42-1.64-2.12-2.47l.71-4.46c.53-3.22,1.1-6.42,1.77-9.6.34-1.6.7-3.18,1.09-4.77l.26-1.08c.12-.37.27-.74.4-1.11v0Zm11.51-35.66q.59-2.82,1-5.65c.15.27.3.53.44.8C1874.05,1009.16,1873.56,1010.77,1873,1012.39Zm44,83a3.48,3.48,0,0,1-.37-.75l.49.93Zm1.51,1.5-.18-.12-.13-.09h0l.2.13C1918.61,1096.87,1918.7,1096.94,1918.55,1096.85Zm9.3-23.67h0l.05.13,0,.16a2.28,2.28,0,0,1,.06.64Z"/><path class="cls-40" d="M1888.86,749.82h0Z"/><path class="cls-23" d="M1898.87,1023.86q0,7.78-6.28,11.41c-3.15,1.79-4.86,3.61-5.13,5.44-.06.48-.11,1-.15,1.43a1,1,0,0,1-1.13.66,19.16,19.16,0,0,0-4.53.38,1.55,1.55,0,0,1-.44.09c-.75,0-1.12-1-1.12-3.06,0-1.77,1-4,3.08-6.58s3.07-4.81,3.07-6.58c0-2.69-1.42-4-4.28-4a17.25,17.25,0,0,0-7.06,2.12c-.9,0-1.34-2.65-1.34-8a7.16,7.16,0,0,1,.09-1.32c.29-1.39,2-2.48,5.22-3.25a28.37,28.37,0,0,1,6.69-.84,14,14,0,0,1,9.37,3.16A11.1,11.1,0,0,1,1898.87,1023.86Zm-8.47,26.88a5.81,5.81,0,0,1-1.67,4.15,5.63,5.63,0,0,1-8.16,0,5.81,5.81,0,0,1-1.67-4.15,5.67,5.67,0,0,1,1.67-4.11,5.75,5.75,0,0,1,8.16,0A5.67,5.67,0,0,1,1890.4,1050.74Z"/></svg>