<svg id="Layer_1" data-name="Layer 1" xmlns="http://www.w3.org/2000/svg" width="186.32" height="186.77" viewBox="0 0 186.32 186.77"><defs><style>.cls-1{fill:#367c8a;}.cls-2{fill:#ec790b;stroke:#fff;stroke-miterlimit:10;stroke-width:2px;}.cls-3{fill:#fff;}</style></defs><circle class="cls-1" cx="94.63" cy="93.38" r="91.93"/><path class="cls-2" d="M94.43,59.86c-15,0-27.22,13.36-27.22,29.83a30.67,30.67,0,0,0,11.93,24.68l4,14.07a8.4,8.4,0,0,0-.89,3.76c0,4.31,3.19,7.8,7.12,7.8H97.7c3.93,0,7.12-3.49,7.12-7.8a8.35,8.35,0,0,0-.7-3.34l3.81-13.27c8.2-5.14,13.73-14.81,13.73-25.9C121.66,73.22,109.47,59.86,94.43,59.86Z"/><rect class="cls-3" x="79.89" y="125.91" width="27.27" height="3.36" rx="1.68"/><path class="cls-3" d="M138.26,74.28l-9.94,2.79a1.16,1.16,0,0,1-1.43-.86h0a1.23,1.23,0,0,1,.82-1.5l9.94-2.79a1.16,1.16,0,0,1,1.43.86h0A1.23,1.23,0,0,1,138.26,74.28Z"/><rect class="cls-3" x="80.7" y="132.46" width="25.66" height="3.36" rx="1.68"/><rect class="cls-3" x="87.86" y="46.25" width="13.14" height="2.35" rx="1.17" transform="translate(47.01 141.86) rotate(-90)"/><path class="cls-3" d="M125.58,52.27l-7,7.88a1.14,1.14,0,0,1-1.65.07h0a1.25,1.25,0,0,1-.07-1.72l7-7.88a1.15,1.15,0,0,1,1.66-.07h0A1.27,1.27,0,0,1,125.58,52.27Z"/><path class="cls-3" d="M65,52.27l7,7.88a1.15,1.15,0,0,0,1.66.07h0a1.27,1.27,0,0,0,.07-1.72l-7-7.88a1.15,1.15,0,0,0-1.66-.07h0A1.27,1.27,0,0,0,65,52.27Z"/><path class="cls-3" d="M51,74.28l9.93,2.79a1.18,1.18,0,0,0,1.44-.86h0a1.23,1.23,0,0,0-.83-1.5l-9.93-2.79a1.18,1.18,0,0,0-1.44.86h0A1.24,1.24,0,0,0,51,74.28Z"/></svg>