<svg id="Layer_1" data-name="Layer 1" xmlns="http://www.w3.org/2000/svg" width="186.32" height="186.77" viewBox="0 0 186.32 186.77"><defs><style>.cls-1{fill:#367c8a;}.cls-2{fill:#ec790b;stroke:#fff;stroke-miterlimit:10;}.cls-3{fill:#fff;}.cls-4{fill:none;}</style></defs><circle class="cls-1" cx="93.16" cy="93.38" r="91.93"/><path class="cls-2" d="M128,51.48H58.35a12,12,0,0,0-12,12v43.06a12,12,0,0,0,12,12H84.82v10.68H76.93a2.38,2.38,0,0,0-2.38,2.39v1.29a2.38,2.38,0,0,0,2.38,2.39h32.46a2.39,2.39,0,0,0,2.38-2.39v-1.29a2.39,2.39,0,0,0-2.38-2.39H101.5V118.54H128a12,12,0,0,0,12-12V63.48A12,12,0,0,0,128,51.48Z"/><rect class="cls-3" x="50.27" y="56.21" width="85.79" height="53.48" rx="12"/><circle class="cls-3" cx="93.16" cy="114.03" r="2.91"/><polygon class="cls-4" points="173.04 -124.72 -108.4 307.88 -108.4 -181.91 173.04 -2487.6 173.04 -124.72"/></svg>